STARTFONT 2.1
FONT -FontForge-ChangBanDianSong 16 TC-Book-R-Normal--16-120-100-100-P-157-ISO10646-1
SIZE 12 100 100
FONTBOUNDINGBOX 16 17 0 -3
COMMENT "Generated by fontforge, http://fontforge.sourceforge.net"
COMMENT "Copyright (c) 2025, yzdnn (https://github.com/yzdnn), Copyright (c) Keitarou Hiraki, Font Silo. 1990-2015"
STARTPROPERTIES 40
FOUNDRY "FontForge"
FAMILY_NAME "ChangBanDianSong 16 TC"
WEIGHT_NAME "Book"
SLANT "R"
SETWIDTH_NAME "Normal"
ADD_STYLE_NAME ""
PIXEL_SIZE 16
POINT_SIZE 120
RESOLUTION_X 100
RESOLUTION_Y 100
SPACING "P"
AVERAGE_WIDTH 157
CHARSET_REGISTRY "ISO10646"
CHARSET_ENCODING "1"
FONTNAME_REGISTRY ""
CHARSET_COLLECTIONS "ASCII ISOLatin1Encoding ISO8859-5 JISX0208.1997 GB2312.1980 BIG5 ISO10646-1"
FONT_NAME "ChangBanDianSong-16-TC"
FACE_NAME "ChangBanDianSong 16 TC"
COPYRIGHT "Copyright (c) 2025, yzdnn (https://github.com/yzdnn), Copyright (c) Keitarou Hiraki, Font Silo. 1990-2015"
FONT_VERSION "1.2.3"
FONT_ASCENT 14
FONT_DESCENT 2
UNDERLINE_POSITION -2
UNDERLINE_THICKNESS 1
X_HEIGHT 8
CAP_HEIGHT 12
RAW_ASCENT 859
RAW_DESCENT 140
NORM_SPACE 8
RELATIVE_WEIGHT 40
RELATIVE_SETWIDTH 50
SUPERSCRIPT_X 0
SUPERSCRIPT_Y 6
SUPERSCRIPT_SIZE 8
SUBSCRIPT_X 0
SUBSCRIPT_Y 5
SUBSCRIPT_SIZE 8
FIGURE_WIDTH 8
AVG_LOWERCASE_WIDTH 114
AVG_UPPERCASE_WIDTH 124
ENDPROPERTIES
CHARS 14453
STARTCHAR space
ENCODING 32
SWIDTH 500 0
DWIDTH 8 0
BBX 1 1 0 0
BITMAP
00
ENDCHAR
STARTCHAR exclam
ENCODING 33
SWIDTH 500 0
DWIDTH 8 0
BBX 3 13 2 0
BITMAP
40
E0
E0
E0
40
40
40
40
00
00
40
E0
40
ENDCHAR
STARTCHAR quotedbl
ENCODING 34
SWIDTH 500 0
DWIDTH 8 0
BBX 7 5 0 9
BITMAP
44
EE
66
22
CC
ENDCHAR
STARTCHAR numbersign
ENCODING 35
SWIDTH 500 0
DWIDTH 8 0
BBX 7 13 0 0
BITMAP
44
44
FE
FE
44
44
44
44
44
FE
FE
44
44
ENDCHAR
STARTCHAR dollar
ENCODING 36
SWIDTH 500 0
DWIDTH 8 0
BBX 7 15 0 -1
BITMAP
10
3A
76
D2
D2
70
70
1C
1C
16
96
96
DC
B8
10
ENDCHAR
STARTCHAR percent
ENCODING 37
SWIDTH 500 0
DWIDTH 8 0
BBX 7 13 0 0
BITMAP
70
D8
88
DA
74
08
10
20
5C
B6
22
36
1C
ENDCHAR
STARTCHAR ampersand
ENCODING 38
SWIDTH 500 0
DWIDTH 8 0
BBX 8 13 0 0
BITMAP
38
6C
44
6C
38
30
6F
D2
DA
CC
CC
66
3B
ENDCHAR
STARTCHAR quotesingle
ENCODING 39
SWIDTH 500 0
DWIDTH 8 0
BBX 3 5 1 9
BITMAP
40
E0
60
20
C0
ENDCHAR
STARTCHAR parenleft
ENCODING 40
SWIDTH 500 0
DWIDTH 8 0
BBX 4 15 3 -1
BITMAP
10
20
20
60
40
C0
C0
C0
C0
C0
40
60
20
20
10
ENDCHAR
STARTCHAR parenright
ENCODING 41
SWIDTH 500 0
DWIDTH 8 0
BBX 4 15 1 -1
BITMAP
80
40
40
60
20
30
30
30
30
30
20
60
40
40
80
ENDCHAR
STARTCHAR asterisk
ENCODING 42
SWIDTH 500 0
DWIDTH 8 0
BBX 7 7 0 2
BITMAP
10
92
54
38
54
92
10
ENDCHAR
STARTCHAR plus
ENCODING 43
SWIDTH 500 0
DWIDTH 8 0
BBX 7 9 0 1
BITMAP
10
10
10
10
FE
10
10
10
10
ENDCHAR
STARTCHAR comma
ENCODING 44
SWIDTH 500 0
DWIDTH 8 0
BBX 3 5 2 -2
BITMAP
40
E0
60
20
C0
ENDCHAR
STARTCHAR hyphen
ENCODING 45
SWIDTH 500 0
DWIDTH 8 0
BBX 7 1 0 5
BITMAP
FE
ENDCHAR
STARTCHAR period
ENCODING 46
SWIDTH 500 0
DWIDTH 8 0
BBX 3 3 2 0
BITMAP
40
E0
40
ENDCHAR
STARTCHAR slash
ENCODING 47
SWIDTH 500 0
DWIDTH 8 0
BBX 8 16 0 -2
BITMAP
01
01
02
02
04
04
08
08
10
10
20
20
40
40
80
80
ENDCHAR
STARTCHAR zero
ENCODING 48
SWIDTH 500 0
DWIDTH 8 0
BBX 7 13 0 0
BITMAP
38
44
44
C6
C6
C6
C6
C6
C6
C6
44
44
38
ENDCHAR
STARTCHAR one
ENCODING 49
SWIDTH 500 0
DWIDTH 8 0
BBX 6 13 1 0
BITMAP
10
30
F0
30
30
30
30
30
30
30
30
30
FC
ENDCHAR
STARTCHAR two
ENCODING 50
SWIDTH 500 0
DWIDTH 8 0
BBX 7 13 0 0
BITMAP
38
6C
86
06
06
0C
08
10
20
40
40
FE
FC
ENDCHAR
STARTCHAR three
ENCODING 51
SWIDTH 500 0
DWIDTH 8 0
BBX 7 13 0 0
BITMAP
78
4C
06
06
06
3C
0C
06
06
06
C6
CC
78
ENDCHAR
STARTCHAR four
ENCODING 52
SWIDTH 500 0
DWIDTH 8 0
BBX 7 13 0 0
BITMAP
0C
0C
1C
1C
2C
2C
4C
4C
FE
FE
0C
0C
0C
ENDCHAR
STARTCHAR five
ENCODING 53
SWIDTH 500 0
DWIDTH 8 0
BBX 7 13 0 0
BITMAP
7C
7C
40
40
80
F8
9C
06
06
02
86
C4
78
ENDCHAR
STARTCHAR six
ENCODING 54
SWIDTH 500 0
DWIDTH 8 0
BBX 7 13 0 0
BITMAP
18
30
60
60
C0
F8
C4
C6
C6
C6
C6
44
38
ENDCHAR
STARTCHAR seven
ENCODING 55
SWIDTH 500 0
DWIDTH 8 0
BBX 7 13 0 0
BITMAP
7E
FE
82
02
04
04
0C
08
18
18
30
30
30
ENDCHAR
STARTCHAR eight
ENCODING 56
SWIDTH 500 0
DWIDTH 8 0
BBX 7 13 0 0
BITMAP
38
44
C6
C6
C6
6C
7C
C6
C6
C6
C6
44
38
ENDCHAR
STARTCHAR nine
ENCODING 57
SWIDTH 500 0
DWIDTH 8 0
BBX 7 13 0 0
BITMAP
38
44
C6
C6
C6
C6
46
3E
06
0C
0C
18
30
ENDCHAR
STARTCHAR colon
ENCODING 58
SWIDTH 500 0
DWIDTH 8 0
BBX 3 9 2 0
BITMAP
40
E0
40
00
00
00
40
E0
40
ENDCHAR
STARTCHAR semicolon
ENCODING 59
SWIDTH 500 0
DWIDTH 8 0
BBX 3 11 2 -2
BITMAP
40
E0
40
00
00
00
40
E0
60
20
C0
ENDCHAR
STARTCHAR less
ENCODING 60
SWIDTH 500 0
DWIDTH 8 0
BBX 7 13 0 0
BITMAP
02
04
08
10
20
40
80
40
20
10
08
04
02
ENDCHAR
STARTCHAR equal
ENCODING 61
SWIDTH 500 0
DWIDTH 8 0
BBX 7 4 0 4
BITMAP
FE
00
00
FE
ENDCHAR
STARTCHAR greater
ENCODING 62
SWIDTH 500 0
DWIDTH 8 0
BBX 7 13 0 0
BITMAP
80
40
20
10
08
04
02
04
08
10
20
40
80
ENDCHAR
STARTCHAR question
ENCODING 63
SWIDTH 500 0
DWIDTH 8 0
BBX 7 13 0 0
BITMAP
78
E4
42
02
02
06
1C
18
10
00
10
38
10
ENDCHAR
STARTCHAR at
ENCODING 64
SWIDTH 500 0
DWIDTH 8 0
BBX 7 13 0 0
BITMAP
38
6C
C6
D6
EE
EE
EE
EE
EE
D4
C0
60
3C
ENDCHAR
STARTCHAR A
ENCODING 65
SWIDTH 500 0
DWIDTH 8 0
BBX 8 13 0 0
BITMAP
18
18
18
18
2C
2C
2C
2C
46
7E
46
46
EF
ENDCHAR
STARTCHAR B
ENCODING 66
SWIDTH 500 0
DWIDTH 8 0
BBX 7 13 0 0
BITMAP
F8
64
66
66
66
64
7C
66
66
66
66
64
F8
ENDCHAR
STARTCHAR C
ENCODING 67
SWIDTH 500 0
DWIDTH 8 0
BBX 7 13 0 0
BITMAP
3A
66
46
C2
C2
C0
C0
C0
C0
C2
46
64
3C
ENDCHAR
STARTCHAR D
ENCODING 68
SWIDTH 500 0
DWIDTH 8 0
BBX 7 13 0 0
BITMAP
F8
6C
64
66
66
66
66
66
66
66
64
6C
F8
ENDCHAR
STARTCHAR E
ENCODING 69
SWIDTH 500 0
DWIDTH 8 0
BBX 7 13 0 0
BITMAP
FE
62
62
60
60
64
7C
64
60
60
62
62
FE
ENDCHAR
STARTCHAR F
ENCODING 70
SWIDTH 500 0
DWIDTH 8 0
BBX 7 13 0 0
BITMAP
FE
62
62
60
60
64
7C
64
64
60
60
60
F8
ENDCHAR
STARTCHAR G
ENCODING 71
SWIDTH 500 0
DWIDTH 8 0
BBX 8 13 0 0
BITMAP
3A
6E
46
C2
C2
C0
DF
C6
C6
C6
46
6E
36
ENDCHAR
STARTCHAR H
ENCODING 72
SWIDTH 500 0
DWIDTH 8 0
BBX 8 13 0 0
BITMAP
F7
66
66
66
66
66
7E
66
66
66
66
66
F7
ENDCHAR
STARTCHAR I
ENCODING 73
SWIDTH 500 0
DWIDTH 8 0
BBX 6 13 1 0
BITMAP
FC
30
30
30
30
30
30
30
30
30
30
30
FC
ENDCHAR
STARTCHAR J
ENCODING 74
SWIDTH 500 0
DWIDTH 8 0
BBX 8 15 0 -2
BITMAP
3F
0C
0C
0C
0C
0C
0C
0C
0C
0C
0C
0C
CC
C8
70
ENDCHAR
STARTCHAR K
ENCODING 75
SWIDTH 500 0
DWIDTH 8 0
BBX 8 13 0 0
BITMAP
F7
62
64
64
68
68
78
68
6C
6C
66
66
F7
ENDCHAR
STARTCHAR L
ENCODING 76
SWIDTH 500 0
DWIDTH 8 0
BBX 7 13 0 0
BITMAP
F8
60
60
60
60
60
60
60
60
62
62
66
FE
ENDCHAR
STARTCHAR M
ENCODING 77
SWIDTH 500 0
DWIDTH 8 0
BBX 8 13 0 0
BITMAP
C3
42
66
66
7E
7E
56
56
46
46
46
46
EF
ENDCHAR
STARTCHAR N
ENCODING 78
SWIDTH 500 0
DWIDTH 8 0
BBX 8 13 0 0
BITMAP
C7
62
62
72
72
5A
5A
4E
4E
46
46
42
E2
ENDCHAR
STARTCHAR O
ENCODING 79
SWIDTH 500 0
DWIDTH 8 0
BBX 7 13 0 0
BITMAP
38
6C
44
C6
C6
C6
C6
C6
C6
C6
44
6C
38
ENDCHAR
STARTCHAR P
ENCODING 80
SWIDTH 500 0
DWIDTH 8 0
BBX 7 13 0 0
BITMAP
F8
64
66
66
66
66
64
78
60
60
60
60
F0
ENDCHAR
STARTCHAR Q
ENCODING 81
SWIDTH 500 0
DWIDTH 8 0
BBX 7 15 0 -2
BITMAP
38
6C
44
C6
C6
C6
E6
D6
D6
D6
54
74
38
30
1C
ENDCHAR
STARTCHAR R
ENCODING 82
SWIDTH 500 0
DWIDTH 8 0
BBX 8 13 0 0
BITMAP
F8
64
66
66
66
64
78
68
6C
6C
66
66
F7
ENDCHAR
STARTCHAR S
ENCODING 83
SWIDTH 500 0
DWIDTH 8 0
BBX 7 13 0 0
BITMAP
3A
66
C2
C2
60
70
1C
0C
06
86
86
CC
B8
ENDCHAR
STARTCHAR T
ENCODING 84
SWIDTH 500 0
DWIDTH 8 0
BBX 8 13 0 0
BITMAP
FF
DB
99
99
18
18
18
18
18
18
18
18
7E
ENDCHAR
STARTCHAR U
ENCODING 85
SWIDTH 500 0
DWIDTH 8 0
BBX 8 13 0 0
BITMAP
F7
62
62
62
62
62
62
62
62
62
62
66
3C
ENDCHAR
STARTCHAR V
ENCODING 86
SWIDTH 500 0
DWIDTH 8 0
BBX 8 13 0 0
BITMAP
F7
62
62
62
62
34
34
34
34
18
18
18
18
ENDCHAR
STARTCHAR W
ENCODING 87
SWIDTH 500 0
DWIDTH 8 0
BBX 8 13 0 0
BITMAP
DB
DA
DA
DA
DA
DA
DA
6C
6C
6C
6C
6C
6C
ENDCHAR
STARTCHAR X
ENCODING 88
SWIDTH 500 0
DWIDTH 8 0
BBX 8 13 0 0
BITMAP
F7
62
62
34
34
18
18
18
2C
2C
46
46
EF
ENDCHAR
STARTCHAR Y
ENCODING 89
SWIDTH 500 0
DWIDTH 8 0
BBX 8 13 0 0
BITMAP
F7
62
62
62
34
34
34
18
18
18
18
18
3C
ENDCHAR
STARTCHAR Z
ENCODING 90
SWIDTH 500 0
DWIDTH 8 0
BBX 7 13 0 0
BITMAP
FE
8E
8C
0C
18
18
30
30
60
62
C2
C6
FE
ENDCHAR
STARTCHAR bracketleft
ENCODING 91
SWIDTH 500 0
DWIDTH 8 0
BBX 5 14 2 -1
BITMAP
F8
C0
C0
C0
C0
C0
C0
C0
C0
C0
C0
C0
C0
F8
ENDCHAR
STARTCHAR backslash
ENCODING 92
SWIDTH 500 0
DWIDTH 8 0
BBX 8 16 0 -2
BITMAP
80
80
40
40
20
20
10
10
08
08
04
04
02
02
01
01
ENDCHAR
STARTCHAR bracketright
ENCODING 93
SWIDTH 500 0
DWIDTH 8 0
BBX 5 14 1 -1
BITMAP
F8
18
18
18
18
18
18
18
18
18
18
18
18
F8
ENDCHAR
STARTCHAR asciicircum
ENCODING 94
SWIDTH 500 0
DWIDTH 8 0
BBX 7 4 0 9
BITMAP
10
38
6C
82
ENDCHAR
STARTCHAR underscore
ENCODING 95
SWIDTH 500 0
DWIDTH 8 0
BBX 7 1 0 -1
BITMAP
FE
ENDCHAR
STARTCHAR grave
ENCODING 96
SWIDTH 500 0
DWIDTH 8 0
BBX 3 5 3 9
BITMAP
40
E0
C0
80
60
ENDCHAR
STARTCHAR a
ENCODING 97
SWIDTH 500 0
DWIDTH 8 0
BBX 8 9 0 0
BITMAP
3C
C4
C6
1E
66
C6
C6
EF
76
ENDCHAR
STARTCHAR b
ENCODING 98
SWIDTH 500 0
DWIDTH 8 0
BBX 7 14 0 0
BITMAP
E0
60
60
60
60
78
6C
66
66
66
66
66
6C
58
ENDCHAR
STARTCHAR c
ENCODING 99
SWIDTH 500 0
DWIDTH 8 0
BBX 7 9 0 0
BITMAP
38
46
C6
C0
C0
C0
C2
64
38
ENDCHAR
STARTCHAR d
ENCODING 100
SWIDTH 500 0
DWIDTH 8 0
BBX 8 14 0 0
BITMAP
0E
06
06
06
06
3E
6E
C6
C6
C6
C6
C6
6E
37
ENDCHAR
STARTCHAR e
ENCODING 101
SWIDTH 500 0
DWIDTH 8 0
BBX 7 9 0 0
BITMAP
38
64
C6
C2
FE
C0
C0
62
3C
ENDCHAR
STARTCHAR f
ENCODING 102
SWIDTH 500 0
DWIDTH 8 0
BBX 7 14 0 0
BITMAP
1C
26
26
30
30
FC
30
30
30
30
30
30
30
78
ENDCHAR
STARTCHAR g
ENCODING 103
SWIDTH 500 0
DWIDTH 8 0
BBX 8 11 0 -2
BITMAP
7B
CD
CC
CC
78
40
FC
BE
82
C2
7C
ENDCHAR
STARTCHAR h
ENCODING 104
SWIDTH 500 0
DWIDTH 8 0
BBX 8 14 0 0
BITMAP
E0
60
60
60
60
7C
66
66
66
66
66
66
66
F7
ENDCHAR
STARTCHAR i
ENCODING 105
SWIDTH 500 0
DWIDTH 8 0
BBX 4 14 2 0
BITMAP
40
E0
40
00
00
E0
60
60
60
60
60
60
60
F0
ENDCHAR
STARTCHAR j
ENCODING 106
SWIDTH 500 0
DWIDTH 8 0
BBX 6 16 0 -2
BITMAP
08
1C
08
00
00
1C
0C
0C
0C
0C
0C
0C
0C
CC
C8
70
ENDCHAR
STARTCHAR k
ENCODING 107
SWIDTH 500 0
DWIDTH 8 0
BBX 8 14 0 0
BITMAP
E0
60
60
60
60
67
62
64
68
78
6C
6C
66
F7
ENDCHAR
STARTCHAR l
ENCODING 108
SWIDTH 500 0
DWIDTH 8 0
BBX 4 14 2 0
BITMAP
E0
60
60
60
60
60
60
60
60
60
60
60
60
F0
ENDCHAR
STARTCHAR m
ENCODING 109
SWIDTH 500 0
DWIDTH 8 0
BBX 8 9 0 0
BITMAP
DA
FF
DB
DB
DB
DB
DB
DB
DB
ENDCHAR
STARTCHAR n
ENCODING 110
SWIDTH 500 0
DWIDTH 8 0
BBX 8 9 0 0
BITMAP
EC
7E
66
66
66
66
66
66
F7
ENDCHAR
STARTCHAR o
ENCODING 111
SWIDTH 500 0
DWIDTH 8 0
BBX 7 9 0 0
BITMAP
38
6C
C6
C6
C6
C6
C6
6C
38
ENDCHAR
STARTCHAR p
ENCODING 112
SWIDTH 500 0
DWIDTH 8 0
BBX 7 11 0 -2
BITMAP
FC
64
66
66
66
66
66
64
7C
60
F0
ENDCHAR
STARTCHAR q
ENCODING 113
SWIDTH 500 0
DWIDTH 8 0
BBX 8 11 0 -2
BITMAP
3A
6E
C6
C6
C6
C6
C6
66
3E
06
0F
ENDCHAR
STARTCHAR r
ENCODING 114
SWIDTH 500 0
DWIDTH 8 0
BBX 7 9 0 0
BITMAP
FC
66
66
60
60
60
60
60
F0
ENDCHAR
STARTCHAR s
ENCODING 115
SWIDTH 500 0
DWIDTH 8 0
BBX 7 9 0 0
BITMAP
7E
86
80
F0
7C
0E
02
C2
FC
ENDCHAR
STARTCHAR t
ENCODING 116
SWIDTH 500 0
DWIDTH 8 0
BBX 7 11 0 0
BITMAP
30
30
FE
30
30
30
30
30
30
32
1C
ENDCHAR
STARTCHAR u
ENCODING 117
SWIDTH 500 0
DWIDTH 8 0
BBX 8 9 0 0
BITMAP
EE
66
66
66
66
66
66
7E
37
ENDCHAR
STARTCHAR v
ENCODING 118
SWIDTH 500 0
DWIDTH 8 0
BBX 8 9 0 0
BITMAP
F7
62
62
34
34
34
18
18
18
ENDCHAR
STARTCHAR w
ENCODING 119
SWIDTH 500 0
DWIDTH 8 0
BBX 8 9 0 0
BITMAP
DB
DA
DA
DA
DA
6C
6C
6C
6C
ENDCHAR
STARTCHAR x
ENCODING 120
SWIDTH 500 0
DWIDTH 8 0
BBX 8 9 0 0
BITMAP
F7
62
34
38
18
1C
2C
46
EF
ENDCHAR
STARTCHAR y
ENCODING 121
SWIDTH 500 0
DWIDTH 8 0
BBX 8 11 0 -2
BITMAP
E7
C2
62
64
34
38
18
10
10
60
60
ENDCHAR
STARTCHAR z
ENCODING 122
SWIDTH 500 0
DWIDTH 8 0
BBX 7 9 0 0
BITMAP
FE
8C
8C
18
38
30
62
62
FE
ENDCHAR
STARTCHAR braceleft
ENCODING 123
SWIDTH 500 0
DWIDTH 8 0
BBX 6 13 1 0
BITMAP
0C
10
30
30
30
20
C0
20
30
30
30
10
0C
ENDCHAR
STARTCHAR bar
ENCODING 124
SWIDTH 500 0
DWIDTH 8 0
BBX 1 16 3 -2
BITMAP
80
80
80
80
80
80
80
80
80
80
80
80
80
80
80
80
ENDCHAR
STARTCHAR braceright
ENCODING 125
SWIDTH 500 0
DWIDTH 8 0
BBX 6 13 1 0
BITMAP
C0
20
30
30
30
10
0C
10
30
30
30
20
C0
ENDCHAR
STARTCHAR asciitilde
ENCODING 126
SWIDTH 500 0
DWIDTH 8 0
BBX 7 2 0 11
BITMAP
72
8C
ENDCHAR
STARTCHAR uni00A0
ENCODING 160
SWIDTH 500 0
DWIDTH 8 0
BBX 1 1 0 0
BITMAP
00
ENDCHAR
STARTCHAR exclamdown
ENCODING 161
SWIDTH 500 0
DWIDTH 8 0
BBX 3 13 2 -1
BITMAP
40
E0
40
00
00
40
40
40
40
E0
E0
E0
40
ENDCHAR
STARTCHAR cent
ENCODING 162
SWIDTH 1000 0
DWIDTH 16 0
BBX 9 14 3 -2
BITMAP
0200
0200
0200
3F00
6580
C580
C400
C400
C800
6880
2B00
1C00
1000
1000
ENDCHAR
STARTCHAR sterling
ENCODING 163
SWIDTH 1000 0
DWIDTH 16 0
BBX 11 14 2 -1
BITMAP
0F00
1080
31C0
3080
3000
3000
FF80
1000
1800
1820
7820
9820
96C0
6380
ENDCHAR
STARTCHAR currency
ENCODING 164
SWIDTH 1000 0
DWIDTH 16 0
BBX 10 10 3 1
BITMAP
8040
5E80
3300
6180
6180
6180
6180
3300
5E80
8040
ENDCHAR
STARTCHAR yen
ENCODING 165
SWIDTH 500 0
DWIDTH 8 0
BBX 8 13 0 0
BITMAP
F7
62
62
62
34
34
FF
18
18
FF
18
18
3C
ENDCHAR
STARTCHAR brokenbar
ENCODING 166
SWIDTH 500 0
DWIDTH 8 0
BBX 1 16 3 -2
BITMAP
80
80
80
80
80
80
80
00
80
80
80
80
80
80
80
80
ENDCHAR
STARTCHAR section
ENCODING 167
SWIDTH 1000 0
DWIDTH 16 0
BBX 8 15 4 -1
BITMAP
3C
47
C3
C2
60
3C
46
C3
62
3C
06
43
C3
E2
3C
ENDCHAR
STARTCHAR dieresis
ENCODING 168
SWIDTH 1000 0
DWIDTH 16 0
BBX 6 2 4 12
BITMAP
CC
CC
ENDCHAR
STARTCHAR copyright
ENCODING 169
SWIDTH 1000 0
DWIDTH 16 0
BBX 12 13 2 0
BITMAP
0F00
30C0
6060
6760
C530
CC30
CC30
CC30
C530
6660
6060
30C0
0F00
ENDCHAR
STARTCHAR ordfeminine
ENCODING 170
SWIDTH 500 0
DWIDTH 8 0
BBX 6 5 1 9
BITMAP
70
98
78
D8
6C
ENDCHAR
STARTCHAR guillemotleft
ENCODING 171
SWIDTH 500 0
DWIDTH 8 0
BBX 7 7 0 3
BITMAP
12
24
48
90
48
24
12
ENDCHAR
STARTCHAR logicalnot
ENCODING 172
SWIDTH 1000 0
DWIDTH 16 0
BBX 11 5 2 3
BITMAP
FFE0
0020
0020
0020
0020
ENDCHAR
STARTCHAR uni00AD
ENCODING 173
SWIDTH 500 0
DWIDTH 8 0
BBX 7 1 0 5
BITMAP
FE
ENDCHAR
STARTCHAR registered
ENCODING 174
SWIDTH 1000 0
DWIDTH 16 0
BBX 12 13 2 0
BITMAP
0F00
30C0
6060
6E60
C530
C530
C630
C730
C530
6DE0
6060
30C0
0F00
ENDCHAR
STARTCHAR macron
ENCODING 175
SWIDTH 500 0
DWIDTH 8 0
BBX 7 1 0 12
BITMAP
FE
ENDCHAR
STARTCHAR degree
ENCODING 176
SWIDTH 1000 0
DWIDTH 16 0
BBX 5 5 0 9
BITMAP
70
88
88
88
70
ENDCHAR
STARTCHAR plusminus
ENCODING 177
SWIDTH 1000 0
DWIDTH 16 0
BBX 11 12 2 1
BITMAP
0400
0400
0400
0400
FFE0
0400
0400
0400
0400
0000
0000
FFE0
ENDCHAR
STARTCHAR uni00B2
ENCODING 178
SWIDTH 500 0
DWIDTH 8 0
BBX 5 5 1 9
BITMAP
70
98
30
68
F8
ENDCHAR
STARTCHAR uni00B3
ENCODING 179
SWIDTH 500 0
DWIDTH 8 0
BBX 5 5 1 9
BITMAP
70
D8
30
D8
F0
ENDCHAR
STARTCHAR acute
ENCODING 180
SWIDTH 1000 0
DWIDTH 16 0
BBX 5 2 5 12
BITMAP
18
F8
ENDCHAR
STARTCHAR mu
ENCODING 181
SWIDTH 500 0
DWIDTH 8 0
BBX 8 11 0 -2
BITMAP
EE
66
66
66
66
66
66
7E
77
60
60
ENDCHAR
STARTCHAR paragraph
ENCODING 182
SWIDTH 1000 0
DWIDTH 16 0
BBX 8 14 3 -1
BITMAP
3F
79
F9
F9
79
39
09
09
09
09
09
09
09
09
ENDCHAR
STARTCHAR periodcentered
ENCODING 183
SWIDTH 500 0
DWIDTH 8 0
BBX 3 3 2 4
BITMAP
40
E0
40
ENDCHAR
STARTCHAR cedilla
ENCODING 184
SWIDTH 500 0
DWIDTH 8 0
BBX 3 3 2 -2
BITMAP
40
20
E0
ENDCHAR
STARTCHAR uni00B9
ENCODING 185
SWIDTH 500 0
DWIDTH 8 0
BBX 5 5 1 9
BITMAP
10
F0
30
30
F8
ENDCHAR
STARTCHAR ordmasculine
ENCODING 186
SWIDTH 500 0
DWIDTH 8 0
BBX 5 5 1 9
BITMAP
70
50
D8
50
70
ENDCHAR
STARTCHAR guillemotright
ENCODING 187
SWIDTH 500 0
DWIDTH 8 0
BBX 7 7 0 3
BITMAP
90
48
24
12
24
48
90
ENDCHAR
STARTCHAR onequarter
ENCODING 188
SWIDTH 500 0
DWIDTH 8 0
BBX 8 14 0 0
BITMAP
08
78
18
18
7C
03
0C
30
C0
0C
1C
2C
3E
0C
ENDCHAR
STARTCHAR onehalf
ENCODING 189
SWIDTH 500 0
DWIDTH 8 0
BBX 8 14 0 0
BITMAP
08
78
18
18
7C
03
0C
30
C0
1C
26
0C
1A
3E
ENDCHAR
STARTCHAR threequarters
ENCODING 190
SWIDTH 500 0
DWIDTH 8 0
BBX 8 14 0 0
BITMAP
38
6C
18
6C
78
03
0C
30
C0
0C
1C
2C
3E
0C
ENDCHAR
STARTCHAR questiondown
ENCODING 191
SWIDTH 500 0
DWIDTH 8 0
BBX 7 13 0 0
BITMAP
10
38
10
00
10
30
70
C0
80
80
84
4E
3C
ENDCHAR
STARTCHAR Agrave
ENCODING 192
SWIDTH 500 0
DWIDTH 8 0
BBX 8 14 0 0
BITMAP
70
1C
18
18
18
2C
2C
2C
2C
46
7E
46
46
EF
ENDCHAR
STARTCHAR Aacute
ENCODING 193
SWIDTH 500 0
DWIDTH 8 0
BBX 8 14 0 0
BITMAP
0E
38
18
18
18
2C
2C
2C
2C
46
7E
46
46
EF
ENDCHAR
STARTCHAR Acircumflex
ENCODING 194
SWIDTH 500 0
DWIDTH 8 0
BBX 8 14 0 0
BITMAP
18
24
5A
18
18
2C
2C
2C
2C
46
7E
46
46
EF
ENDCHAR
STARTCHAR Atilde
ENCODING 195
SWIDTH 500 0
DWIDTH 8 0
BBX 8 14 0 0
BITMAP
32
4C
18
18
18
2C
2C
2C
2C
46
7E
46
46
EF
ENDCHAR
STARTCHAR Adieresis
ENCODING 196
SWIDTH 500 0
DWIDTH 8 0
BBX 8 14 0 0
BITMAP
66
66
18
18
18
2C
2C
2C
2C
46
7E
46
46
EF
ENDCHAR
STARTCHAR Aring
ENCODING 197
SWIDTH 500 0
DWIDTH 8 0
BBX 8 14 0 0
BITMAP
18
2C
18
18
18
2C
2C
2C
2C
46
7E
46
46
EF
ENDCHAR
STARTCHAR AE
ENCODING 198
SWIDTH 500 0
DWIDTH 8 0
BBX 8 13 0 0
BITMAP
3F
39
39
38
58
5A
5E
5A
98
F8
99
99
DF
ENDCHAR
STARTCHAR Ccedilla
ENCODING 199
SWIDTH 500 0
DWIDTH 8 0
BBX 7 15 0 -2
BITMAP
3A
66
46
C2
C2
C0
C0
C0
C0
C2
46
64
3C
18
70
ENDCHAR
STARTCHAR Egrave
ENCODING 200
SWIDTH 500 0
DWIDTH 8 0
BBX 7 14 0 0
BITMAP
70
1C
FE
62
62
60
64
7C
64
60
60
62
62
FE
ENDCHAR
STARTCHAR Eacute
ENCODING 201
SWIDTH 500 0
DWIDTH 8 0
BBX 7 14 0 0
BITMAP
1C
70
FE
62
62
60
64
7C
64
60
60
62
62
FE
ENDCHAR
STARTCHAR Ecircumflex
ENCODING 202
SWIDTH 500 0
DWIDTH 8 0
BBX 7 14 0 0
BITMAP
10
28
FE
62
62
60
64
7C
64
60
60
62
62
FE
ENDCHAR
STARTCHAR Edieresis
ENCODING 203
SWIDTH 500 0
DWIDTH 8 0
BBX 7 14 0 0
BITMAP
6C
6C
FE
62
62
60
64
7C
64
60
60
62
62
FE
ENDCHAR
STARTCHAR Igrave
ENCODING 204
SWIDTH 500 0
DWIDTH 8 0
BBX 6 14 1 0
BITMAP
E0
38
FC
30
30
30
30
30
30
30
30
30
30
FC
ENDCHAR
STARTCHAR Iacute
ENCODING 205
SWIDTH 500 0
DWIDTH 8 0
BBX 6 14 1 0
BITMAP
1C
70
FC
30
30
30
30
30
30
30
30
30
30
FC
ENDCHAR
STARTCHAR Icircumflex
ENCODING 206
SWIDTH 500 0
DWIDTH 8 0
BBX 6 14 1 0
BITMAP
30
48
FC
30
30
30
30
30
30
30
30
30
30
FC
ENDCHAR
STARTCHAR Idieresis
ENCODING 207
SWIDTH 500 0
DWIDTH 8 0
BBX 6 14 1 0
BITMAP
6C
6C
FC
30
30
30
30
30
30
30
30
30
30
FC
ENDCHAR
STARTCHAR Eth
ENCODING 208
SWIDTH 500 0
DWIDTH 8 0
BBX 7 13 0 0
BITMAP
F8
6C
64
66
66
66
F6
66
66
66
64
6C
F8
ENDCHAR
STARTCHAR Ntilde
ENCODING 209
SWIDTH 500 0
DWIDTH 8 0
BBX 8 14 0 0
BITMAP
32
CB
66
62
72
72
5A
5A
4E
4E
46
46
42
E2
ENDCHAR
STARTCHAR Ograve
ENCODING 210
SWIDTH 500 0
DWIDTH 8 0
BBX 7 14 0 0
BITMAP
70
1C
38
6C
44
C6
C6
C6
C6
C6
C6
44
6C
38
ENDCHAR
STARTCHAR Oacute
ENCODING 211
SWIDTH 500 0
DWIDTH 8 0
BBX 7 14 0 0
BITMAP
1C
70
38
6C
44
C6
C6
C6
C6
C6
C6
44
6C
38
ENDCHAR
STARTCHAR Ocircumflex
ENCODING 212
SWIDTH 500 0
DWIDTH 8 0
BBX 7 14 0 0
BITMAP
38
44
BA
6C
44
C6
C6
C6
C6
C6
C6
44
6C
38
ENDCHAR
STARTCHAR Otilde
ENCODING 213
SWIDTH 500 0
DWIDTH 8 0
BBX 7 14 0 0
BITMAP
34
58
38
6C
44
C6
C6
C6
C6
C6
C6
44
6C
38
ENDCHAR
STARTCHAR Odieresis
ENCODING 214
SWIDTH 500 0
DWIDTH 8 0
BBX 7 14 0 0
BITMAP
6C
6C
38
6C
44
C6
C6
C6
C6
C6
C6
44
6C
38
ENDCHAR
STARTCHAR multiply
ENCODING 215
SWIDTH 1000 0
DWIDTH 16 0
BBX 9 10 3 1
BITMAP
8080
4100
2200
1400
0800
0800
1400
2200
4100
8080
ENDCHAR
STARTCHAR Oslash
ENCODING 216
SWIDTH 500 0
DWIDTH 8 0
BBX 7 13 0 0
BITMAP
3A
6C
44
CE
CE
D6
D6
D6
E6
E6
44
6C
B8
ENDCHAR
STARTCHAR Ugrave
ENCODING 217
SWIDTH 500 0
DWIDTH 8 0
BBX 8 14 0 0
BITMAP
38
0E
F7
62
62
62
62
62
62
62
62
62
66
3C
ENDCHAR
STARTCHAR Uacute
ENCODING 218
SWIDTH 500 0
DWIDTH 8 0
BBX 8 14 0 0
BITMAP
0E
38
F7
62
62
62
62
62
62
62
62
62
66
3C
ENDCHAR
STARTCHAR Ucircumflex
ENCODING 219
SWIDTH 500 0
DWIDTH 8 0
BBX 8 14 0 0
BITMAP
18
2C
F7
62
62
62
62
62
62
62
62
62
66
3C
ENDCHAR
STARTCHAR Udieresis
ENCODING 220
SWIDTH 500 0
DWIDTH 8 0
BBX 8 14 0 0
BITMAP
36
36
F7
62
62
62
62
62
62
62
62
62
66
3C
ENDCHAR
STARTCHAR Yacute
ENCODING 221
SWIDTH 500 0
DWIDTH 8 0
BBX 8 14 0 0
BITMAP
0C
DB
62
62
62
34
34
34
18
18
18
18
18
3C
ENDCHAR
STARTCHAR Thorn
ENCODING 222
SWIDTH 500 0
DWIDTH 8 0
BBX 7 14 0 0
BITMAP
E0
60
60
60
78
6C
66
66
66
6C
78
60
60
F0
ENDCHAR
STARTCHAR germandbls
ENCODING 223
SWIDTH 500 0
DWIDTH 8 0
BBX 7 13 0 0
BITMAP
70
C8
CC
CC
CC
C8
D8
CC
C6
C6
C6
EC
D8
ENDCHAR
STARTCHAR agrave
ENCODING 224
SWIDTH 500 0
DWIDTH 8 0
BBX 8 13 0 0
BITMAP
60
38
0C
00
3C
C4
C6
1E
66
C6
C6
EF
76
ENDCHAR
STARTCHAR aacute
ENCODING 225
SWIDTH 500 0
DWIDTH 8 0
BBX 8 13 0 0
BITMAP
0C
38
60
00
3C
C4
C6
1E
66
C6
C6
EF
76
ENDCHAR
STARTCHAR acircumflex
ENCODING 226
SWIDTH 500 0
DWIDTH 8 0
BBX 8 13 0 0
BITMAP
10
38
44
00
3C
C4
C6
1E
66
C6
C6
EF
76
ENDCHAR
STARTCHAR atilde
ENCODING 227
SWIDTH 500 0
DWIDTH 8 0
BBX 8 13 0 0
BITMAP
34
58
00
00
3C
C4
C6
1E
66
C6
C6
EF
76
ENDCHAR
STARTCHAR adieresis
ENCODING 228
SWIDTH 500 0
DWIDTH 8 0
BBX 8 13 0 0
BITMAP
66
66
00
00
3C
C4
C6
1E
66
C6
C6
EF
76
ENDCHAR
STARTCHAR aring
ENCODING 229
SWIDTH 500 0
DWIDTH 8 0
BBX 8 13 0 0
BITMAP
18
2C
18
00
3C
C4
C6
1E
66
C6
C6
EF
76
ENDCHAR
STARTCHAR ae
ENCODING 230
SWIDTH 500 0
DWIDTH 8 0
BBX 8 9 0 0
BITMAP
64
DE
DB
39
5F
D8
D8
FD
66
ENDCHAR
STARTCHAR ccedilla
ENCODING 231
SWIDTH 500 0
DWIDTH 8 0
BBX 7 11 0 -2
BITMAP
38
46
C6
C0
C0
C0
C2
64
38
18
70
ENDCHAR
STARTCHAR egrave
ENCODING 232
SWIDTH 500 0
DWIDTH 8 0
BBX 7 13 0 0
BITMAP
60
38
0C
00
38
64
C6
C2
FE
C0
C0
62
3C
ENDCHAR
STARTCHAR eacute
ENCODING 233
SWIDTH 500 0
DWIDTH 8 0
BBX 7 13 0 0
BITMAP
0C
38
60
00
38
64
C6
C2
FE
C0
C0
62
3C
ENDCHAR
STARTCHAR ecircumflex
ENCODING 234
SWIDTH 500 0
DWIDTH 8 0
BBX 7 13 0 0
BITMAP
10
38
44
00
38
64
C6
C2
FE
C0
C0
62
3C
ENDCHAR
STARTCHAR edieresis
ENCODING 235
SWIDTH 500 0
DWIDTH 8 0
BBX 7 13 0 0
BITMAP
66
66
00
00
38
64
C6
C2
FE
C0
C0
62
3C
ENDCHAR
STARTCHAR igrave
ENCODING 236
SWIDTH 500 0
DWIDTH 8 0
BBX 5 13 1 0
BITMAP
C0
70
18
00
70
30
30
30
30
30
30
30
78
ENDCHAR
STARTCHAR iacute
ENCODING 237
SWIDTH 500 0
DWIDTH 8 0
BBX 5 13 1 0
BITMAP
18
70
C0
00
70
30
30
30
30
30
30
30
78
ENDCHAR
STARTCHAR icircumflex
ENCODING 238
SWIDTH 500 0
DWIDTH 8 0
BBX 5 13 1 0
BITMAP
20
70
88
00
70
30
30
30
30
30
30
30
78
ENDCHAR
STARTCHAR idieresis
ENCODING 239
SWIDTH 500 0
DWIDTH 8 0
BBX 6 13 1 0
BITMAP
CC
CC
00
00
70
30
30
30
30
30
30
30
78
ENDCHAR
STARTCHAR eth
ENCODING 240
SWIDTH 500 0
DWIDTH 8 0
BBX 7 14 0 0
BITMAP
24
18
2C
04
06
3E
6E
C6
C6
C6
C6
C6
6C
38
ENDCHAR
STARTCHAR ntilde
ENCODING 241
SWIDTH 500 0
DWIDTH 8 0
BBX 8 13 0 0
BITMAP
34
58
00
00
EC
7E
66
66
66
66
66
66
F7
ENDCHAR
STARTCHAR ograve
ENCODING 242
SWIDTH 500 0
DWIDTH 8 0
BBX 7 13 0 0
BITMAP
60
38
0C
00
38
6C
C6
C6
C6
C6
C6
6C
38
ENDCHAR
STARTCHAR oacute
ENCODING 243
SWIDTH 500 0
DWIDTH 8 0
BBX 7 13 0 0
BITMAP
0C
38
60
00
38
6C
C6
C6
C6
C6
C6
6C
38
ENDCHAR
STARTCHAR ocircumflex
ENCODING 244
SWIDTH 500 0
DWIDTH 8 0
BBX 7 13 0 0
BITMAP
10
38
44
00
38
6C
C6
C6
C6
C6
C6
6C
38
ENDCHAR
STARTCHAR otilde
ENCODING 245
SWIDTH 500 0
DWIDTH 8 0
BBX 7 13 0 0
BITMAP
34
58
00
00
38
6C
C6
C6
C6
C6
C6
6C
38
ENDCHAR
STARTCHAR odieresis
ENCODING 246
SWIDTH 500 0
DWIDTH 8 0
BBX 7 13 0 0
BITMAP
6C
6C
00
00
38
6C
C6
C6
C6
C6
C6
6C
38
ENDCHAR
STARTCHAR divide
ENCODING 247
SWIDTH 1000 0
DWIDTH 16 0
BBX 11 11 2 1
BITMAP
0400
0E00
0400
0000
0000
FFE0
0000
0000
0400
0E00
0400
ENDCHAR
STARTCHAR oslash
ENCODING 248
SWIDTH 500 0
DWIDTH 8 0
BBX 7 9 0 0
BITMAP
3A
6C
CE
DE
D6
F6
E6
6C
B8
ENDCHAR
STARTCHAR ugrave
ENCODING 249
SWIDTH 500 0
DWIDTH 8 0
BBX 8 13 0 0
BITMAP
60
38
0C
00
EE
66
66
66
66
66
66
7E
37
ENDCHAR
STARTCHAR uacute
ENCODING 250
SWIDTH 500 0
DWIDTH 8 0
BBX 8 13 0 0
BITMAP
0C
38
60
00
EE
66
66
66
66
66
66
7E
37
ENDCHAR
STARTCHAR ucircumflex
ENCODING 251
SWIDTH 500 0
DWIDTH 8 0
BBX 8 13 0 0
BITMAP
10
38
44
00
EE
66
66
66
66
66
66
7E
37
ENDCHAR
STARTCHAR udieresis
ENCODING 252
SWIDTH 500 0
DWIDTH 8 0
BBX 8 12 0 0
BITMAP
66
66
00
EE
66
66
66
66
66
66
7E
37
ENDCHAR
STARTCHAR yacute
ENCODING 253
SWIDTH 500 0
DWIDTH 8 0
BBX 8 15 0 -2
BITMAP
0C
38
60
00
E7
C2
62
64
34
38
18
10
10
60
60
ENDCHAR
STARTCHAR thorn
ENCODING 254
SWIDTH 500 0
DWIDTH 8 0
BBX 7 16 0 -2
BITMAP
E0
60
60
60
60
78
6C
66
66
66
66
66
6C
78
60
F0
ENDCHAR
STARTCHAR ydieresis
ENCODING 255
SWIDTH 500 0
DWIDTH 8 0
BBX 8 15 0 -2
BITMAP
6C
6C
00
00
E7
C2
62
64
34
38
18
10
10
60
60
ENDCHAR
STARTCHAR amacron
ENCODING 257
SWIDTH 500 0
DWIDTH 8 0
BBX 8 12 0 0
BITMAP
7E
00
00
3C
C4
C6
1E
66
C6
C6
EF
76
ENDCHAR
STARTCHAR Dcroat
ENCODING 272
SWIDTH 500 0
DWIDTH 8 0
BBX 7 13 0 0
BITMAP
F8
6C
64
66
66
66
F6
66
66
66
64
6C
F8
ENDCHAR
STARTCHAR dcroat
ENCODING 273
SWIDTH 500 0
DWIDTH 8 0
BBX 8 14 0 0
BITMAP
0E
06
1F
06
06
3E
6E
C6
C6
C6
C6
C6
6E
37
ENDCHAR
STARTCHAR emacron
ENCODING 275
SWIDTH 500 0
DWIDTH 8 0
BBX 7 12 0 0
BITMAP
7E
00
00
38
64
C6
C2
FE
C0
C0
62
3C
ENDCHAR
STARTCHAR ecaron
ENCODING 283
SWIDTH 500 0
DWIDTH 8 0
BBX 7 13 0 0
BITMAP
44
38
10
00
38
64
C6
C2
FE
C0
C0
62
3C
ENDCHAR
STARTCHAR Hbar
ENCODING 294
SWIDTH 500 0
DWIDTH 8 0
BBX 8 13 0 0
BITMAP
F7
66
66
FF
66
66
7E
66
66
66
66
66
F7
ENDCHAR
STARTCHAR hbar
ENCODING 295
SWIDTH 500 0
DWIDTH 8 0
BBX 8 14 0 0
BITMAP
E0
60
FC
60
60
7C
66
66
66
66
66
66
66
F7
ENDCHAR
STARTCHAR imacron
ENCODING 299
SWIDTH 500 0
DWIDTH 8 0
BBX 6 12 1 0
BITMAP
FC
00
00
70
30
30
30
30
30
30
30
78
ENDCHAR
STARTCHAR dotlessi
ENCODING 305
SWIDTH 500 0
DWIDTH 8 0
BBX 4 9 2 0
BITMAP
E0
60
60
60
60
60
60
60
F0
ENDCHAR
STARTCHAR Lslash
ENCODING 321
SWIDTH 500 0
DWIDTH 8 0
BBX 7 13 0 0
BITMAP
F8
60
60
62
64
68
70
60
E0
62
62
66
FE
ENDCHAR
STARTCHAR lslash
ENCODING 322
SWIDTH 500 0
DWIDTH 8 0
BBX 6 14 1 0
BITMAP
70
30
30
30
34
38
30
70
B0
30
30
30
30
78
ENDCHAR
STARTCHAR eng
ENCODING 331
SWIDTH 500 0
DWIDTH 8 0
BBX 7 11 0 -2
BITMAP
EC
7E
66
66
66
66
66
66
F6
06
1C
ENDCHAR
STARTCHAR omacron
ENCODING 333
SWIDTH 500 0
DWIDTH 8 0
BBX 7 12 0 0
BITMAP
7E
00
00
38
6C
C6
C6
C6
C6
C6
6C
38
ENDCHAR
STARTCHAR Tbar
ENCODING 358
SWIDTH 500 0
DWIDTH 8 0
BBX 8 13 0 0
BITMAP
FF
DB
99
99
18
18
FF
18
18
18
18
18
7E
ENDCHAR
STARTCHAR tbar
ENCODING 359
SWIDTH 500 0
DWIDTH 8 0
BBX 7 11 0 0
BITMAP
30
30
FE
30
30
FC
30
30
30
32
1C
ENDCHAR
STARTCHAR umacron
ENCODING 363
SWIDTH 500 0
DWIDTH 8 0
BBX 8 12 0 0
BITMAP
7E
00
00
EE
66
66
66
66
66
66
7E
37
ENDCHAR
STARTCHAR longs
ENCODING 383
SWIDTH 500 0
DWIDTH 8 0
BBX 7 14 0 0
BITMAP
1C
26
26
30
30
F0
30
30
30
30
30
30
30
78
ENDCHAR
STARTCHAR uni0180
ENCODING 384
SWIDTH 500 0
DWIDTH 8 0
BBX 7 14 0 0
BITMAP
E0
60
F8
60
60
78
6C
66
66
66
66
66
6C
58
ENDCHAR
STARTCHAR uni0186
ENCODING 390
SWIDTH 500 0
DWIDTH 8 0
BBX 7 13 0 0
BITMAP
78
4C
C4
86
06
06
06
06
86
86
C4
CC
B8
ENDCHAR
STARTCHAR uni0189
ENCODING 393
SWIDTH 500 0
DWIDTH 8 0
BBX 7 13 0 0
BITMAP
F8
6C
64
66
66
66
F6
66
66
66
64
6C
F8
ENDCHAR
STARTCHAR uni018E
ENCODING 398
SWIDTH 500 0
DWIDTH 8 0
BBX 7 13 0 0
BITMAP
FE
8C
8C
0C
0C
4C
7C
4C
0C
0C
8C
8C
FE
ENDCHAR
STARTCHAR florin
ENCODING 402
SWIDTH 500 0
DWIDTH 8 0
BBX 7 16 0 -2
BITMAP
1C
26
26
30
30
FC
30
30
30
30
30
30
30
30
30
E0
ENDCHAR
STARTCHAR uni0197
ENCODING 407
SWIDTH 500 0
DWIDTH 8 0
BBX 6 13 1 0
BITMAP
FC
30
30
30
30
FC
30
30
30
30
30
30
FC
ENDCHAR
STARTCHAR uni019A
ENCODING 410
SWIDTH 500 0
DWIDTH 8 0
BBX 6 14 1 0
BITMAP
70
30
30
30
30
30
FC
30
30
30
30
30
30
78
ENDCHAR
STARTCHAR uni019C
ENCODING 412
SWIDTH 500 0
DWIDTH 8 0
BBX 8 13 0 0
BITMAP
DB
DB
DB
DB
DB
DB
DB
DB
DB
DB
DB
FF
5B
ENDCHAR
STARTCHAR uni019E
ENCODING 414
SWIDTH 500 0
DWIDTH 8 0
BBX 8 11 0 -2
BITMAP
EC
7E
66
66
66
66
66
66
F6
06
0F
ENDCHAR
STARTCHAR uni019F
ENCODING 415
SWIDTH 500 0
DWIDTH 8 0
BBX 7 13 0 0
BITMAP
38
6C
44
C6
C6
C6
FE
C6
C6
C6
44
6C
38
ENDCHAR
STARTCHAR uni01A7
ENCODING 423
SWIDTH 500 0
DWIDTH 8 0
BBX 7 13 0 0
BITMAP
B8
CC
86
86
0C
1C
70
60
C0
C2
C2
66
3A
ENDCHAR
STARTCHAR uni01A8
ENCODING 424
SWIDTH 500 0
DWIDTH 8 0
BBX 7 9 0 0
BITMAP
FC
C2
02
1E
7C
E0
80
86
7E
ENDCHAR
STARTCHAR uni01B5
ENCODING 437
SWIDTH 500 0
DWIDTH 8 0
BBX 7 13 0 0
BITMAP
FE
8E
8C
0C
18
18
FE
30
60
62
C2
C6
FE
ENDCHAR
STARTCHAR uni01B6
ENCODING 438
SWIDTH 500 0
DWIDTH 8 0
BBX 7 9 0 0
BITMAP
FE
8C
8C
18
FE
30
62
62
FE
ENDCHAR
STARTCHAR uni01BB
ENCODING 443
SWIDTH 500 0
DWIDTH 8 0
BBX 7 13 0 0
BITMAP
38
6C
86
06
06
0C
FE
10
20
40
40
FE
FC
ENDCHAR
STARTCHAR uni01CE
ENCODING 462
SWIDTH 500 0
DWIDTH 8 0
BBX 8 13 0 0
BITMAP
44
38
10
00
3C
C4
C6
1E
66
C6
C6
EF
76
ENDCHAR
STARTCHAR uni01D0
ENCODING 464
SWIDTH 500 0
DWIDTH 8 0
BBX 5 13 1 0
BITMAP
88
70
20
00
70
30
30
30
30
30
30
30
78
ENDCHAR
STARTCHAR uni01D2
ENCODING 466
SWIDTH 500 0
DWIDTH 8 0
BBX 7 13 0 0
BITMAP
44
38
10
00
38
6C
C6
C6
C6
C6
C6
6C
38
ENDCHAR
STARTCHAR uni01D4
ENCODING 468
SWIDTH 500 0
DWIDTH 8 0
BBX 8 13 0 0
BITMAP
44
38
10
00
EE
66
66
66
66
66
66
7E
37
ENDCHAR
STARTCHAR uni01D6
ENCODING 470
SWIDTH 500 0
DWIDTH 8 0
BBX 8 14 0 0
BITMAP
7E
00
66
66
00
EE
66
66
66
66
66
66
7E
37
ENDCHAR
STARTCHAR uni01D8
ENCODING 472
SWIDTH 500 0
DWIDTH 8 0
BBX 8 14 0 0
BITMAP
0C
18
66
66
00
EE
66
66
66
66
66
66
7E
37
ENDCHAR
STARTCHAR uni01DA
ENCODING 474
SWIDTH 500 0
DWIDTH 8 0
BBX 8 14 0 0
BITMAP
2C
18
66
66
00
EE
66
66
66
66
66
66
7E
37
ENDCHAR
STARTCHAR uni01DC
ENCODING 476
SWIDTH 500 0
DWIDTH 8 0
BBX 8 14 0 0
BITMAP
30
18
66
66
00
EE
66
66
66
66
66
66
7E
37
ENDCHAR
STARTCHAR uni01DD
ENCODING 477
SWIDTH 500 0
DWIDTH 8 0
BBX 7 9 0 0
BITMAP
78
8C
06
06
FE
86
C6
4C
38
ENDCHAR
STARTCHAR uni01E4
ENCODING 484
SWIDTH 500 0
DWIDTH 8 0
BBX 8 13 0 0
BITMAP
3A
6E
46
C2
C2
C0
DF
C6
CF
C6
46
6E
36
ENDCHAR
STARTCHAR uni01E5
ENCODING 485
SWIDTH 500 0
DWIDTH 8 0
BBX 8 11 0 -2
BITMAP
7B
CD
CC
CC
78
40
FC
8E
FF
C2
7C
ENDCHAR
STARTCHAR uni0237
ENCODING 567
SWIDTH 500 0
DWIDTH 8 0
BBX 6 11 0 -2
BITMAP
1C
0C
0C
0C
0C
0C
0C
0C
CC
C8
70
ENDCHAR
STARTCHAR uni023A
ENCODING 570
SWIDTH 500 0
DWIDTH 8 0
BBX 8 13 0 0
BITMAP
19
1A
1A
1C
2C
2C
2C
3C
56
7E
66
46
EF
ENDCHAR
STARTCHAR uni023B
ENCODING 571
SWIDTH 500 0
DWIDTH 8 0
BBX 7 13 0 0
BITMAP
3A
66
46
C6
CA
C8
D0
D0
E0
E2
46
64
BC
ENDCHAR
STARTCHAR uni023C
ENCODING 572
SWIDTH 500 0
DWIDTH 8 0
BBX 7 9 0 0
BITMAP
3A
46
C6
C8
D0
E0
E2
64
B8
ENDCHAR
STARTCHAR uni023D
ENCODING 573
SWIDTH 500 0
DWIDTH 8 0
BBX 7 13 0 0
BITMAP
F8
60
60
60
60
60
FC
60
60
62
62
66
FE
ENDCHAR
STARTCHAR uni023E
ENCODING 574
SWIDTH 500 0
DWIDTH 8 0
BBX 8 13 0 0
BITMAP
FF
DB
9B
9D
18
18
18
18
38
58
58
98
7E
ENDCHAR
STARTCHAR uni0243
ENCODING 579
SWIDTH 500 0
DWIDTH 8 0
BBX 7 13 0 0
BITMAP
F8
64
66
66
66
64
7C
66
66
F6
66
64
F8
ENDCHAR
STARTCHAR uni0244
ENCODING 580
SWIDTH 500 0
DWIDTH 8 0
BBX 8 13 0 0
BITMAP
F7
62
62
62
62
FF
62
62
62
62
62
66
3C
ENDCHAR
STARTCHAR uni0245
ENCODING 581
SWIDTH 500 0
DWIDTH 8 0
BBX 8 13 0 0
BITMAP
18
18
18
18
2C
2C
2C
2C
46
46
46
46
EF
ENDCHAR
STARTCHAR uni0246
ENCODING 582
SWIDTH 500 0
DWIDTH 8 0
BBX 7 13 0 0
BITMAP
FE
66
66
64
68
6C
7C
6C
68
70
72
72
FE
ENDCHAR
STARTCHAR uni0247
ENCODING 583
SWIDTH 500 0
DWIDTH 8 0
BBX 7 9 0 0
BITMAP
3A
64
C6
CA
FE
E0
E0
62
BC
ENDCHAR
STARTCHAR uni0248
ENCODING 584
SWIDTH 500 0
DWIDTH 8 0
BBX 8 15 0 -2
BITMAP
3F
0C
0C
0C
0C
0C
3F
0C
0C
0C
0C
0C
CC
C8
70
ENDCHAR
STARTCHAR uni0249
ENCODING 585
SWIDTH 500 0
DWIDTH 8 0
BBX 8 16 0 -2
BITMAP
08
1C
08
00
00
1C
0C
0C
3F
0C
0C
0C
0C
CC
C8
70
ENDCHAR
STARTCHAR uni024C
ENCODING 588
SWIDTH 500 0
DWIDTH 8 0
BBX 8 13 0 0
BITMAP
F8
64
66
66
66
64
F8
68
6C
6C
66
66
F7
ENDCHAR
STARTCHAR uni024D
ENCODING 589
SWIDTH 500 0
DWIDTH 8 0
BBX 7 9 0 0
BITMAP
FC
66
66
60
F8
60
60
60
F0
ENDCHAR
STARTCHAR uni024E
ENCODING 590
SWIDTH 500 0
DWIDTH 8 0
BBX 8 13 0 0
BITMAP
F7
62
62
62
FF
34
34
18
18
18
18
18
3C
ENDCHAR
STARTCHAR uni024F
ENCODING 591
SWIDTH 500 0
DWIDTH 8 0
BBX 8 11 0 -2
BITMAP
E7
C2
62
FF
34
38
18
10
10
60
60
ENDCHAR
STARTCHAR uni0250
ENCODING 592
SWIDTH 500 0
DWIDTH 8 0
BBX 8 9 0 0
BITMAP
6E
F7
63
63
66
78
63
23
3C
ENDCHAR
STARTCHAR uni0252
ENCODING 594
SWIDTH 500 0
DWIDTH 8 0
BBX 8 9 0 0
BITMAP
6E
F7
63
63
63
63
63
F6
9C
ENDCHAR
STARTCHAR uni0254
ENCODING 596
SWIDTH 500 0
DWIDTH 8 0
BBX 7 9 0 0
BITMAP
38
4C
86
06
06
06
C6
C4
38
ENDCHAR
STARTCHAR uni0258
ENCODING 600
SWIDTH 500 0
DWIDTH 8 0
BBX 7 9 0 0
BITMAP
38
4C
C6
86
FE
06
06
8C
78
ENDCHAR
STARTCHAR uni0259
ENCODING 601
SWIDTH 500 0
DWIDTH 8 0
BBX 7 9 0 0
BITMAP
78
8C
06
06
FE
86
C6
4C
38
ENDCHAR
STARTCHAR uni025B
ENCODING 603
SWIDTH 500 0
DWIDTH 8 0
BBX 7 9 0 0
BITMAP
3A
4E
C6
60
38
60
C6
C6
7C
ENDCHAR
STARTCHAR uni025C
ENCODING 604
SWIDTH 500 0
DWIDTH 8 0
BBX 7 9 0 0
BITMAP
B8
E4
C6
0C
38
0C
C6
C6
7C
ENDCHAR
STARTCHAR uni025F
ENCODING 607
SWIDTH 500 0
DWIDTH 8 0
BBX 7 11 0 -2
BITMAP
1C
0C
0C
0C
3E
0C
0C
0C
CC
C8
70
ENDCHAR
STARTCHAR uni0261
ENCODING 609
SWIDTH 500 0
DWIDTH 8 0
BBX 8 11 0 -2
BITMAP
3B
4D
CC
CC
CC
6C
3C
0C
CC
C8
70
ENDCHAR
STARTCHAR uni0262
ENCODING 610
SWIDTH 500 0
DWIDTH 8 0
BBX 8 9 0 0
BITMAP
3A
6E
C6
C0
DF
C6
C6
6E
36
ENDCHAR
STARTCHAR uni0265
ENCODING 613
SWIDTH 500 0
DWIDTH 8 0
BBX 8 11 0 -2
BITMAP
EF
66
66
66
66
66
66
66
3E
06
07
ENDCHAR
STARTCHAR uni0266
ENCODING 614
SWIDTH 500 0
DWIDTH 8 0
BBX 8 14 0 0
BITMAP
1C
26
66
60
60
7C
66
66
66
66
66
66
66
F7
ENDCHAR
STARTCHAR uni0267
ENCODING 615
SWIDTH 500 0
DWIDTH 8 0
BBX 7 16 0 -2
BITMAP
1C
26
66
60
60
7C
66
66
66
66
66
66
66
F6
06
3C
ENDCHAR
STARTCHAR uni0268
ENCODING 616
SWIDTH 500 0
DWIDTH 8 0
BBX 6 14 1 0
BITMAP
20
70
20
00
00
70
30
30
FC
30
30
30
30
78
ENDCHAR
STARTCHAR uni026A
ENCODING 618
SWIDTH 500 0
DWIDTH 8 0
BBX 6 9 1 0
BITMAP
FC
30
30
30
30
30
30
30
FC
ENDCHAR
STARTCHAR uni026F
ENCODING 623
SWIDTH 500 0
DWIDTH 8 0
BBX 8 9 0 0
BITMAP
DB
DB
DB
DB
DB
DB
DB
FF
5B
ENDCHAR
STARTCHAR uni0274
ENCODING 628
SWIDTH 500 0
DWIDTH 8 0
BBX 8 9 0 0
BITMAP
C7
62
72
52
5A
4A
4E
46
E2
ENDCHAR
STARTCHAR uni0279
ENCODING 633
SWIDTH 500 0
DWIDTH 8 0
BBX 7 9 0 0
BITMAP
1E
0C
0C
0C
0C
0C
CC
CC
7E
ENDCHAR
STARTCHAR uni027C
ENCODING 636
SWIDTH 500 0
DWIDTH 8 0
BBX 7 11 0 -2
BITMAP
FC
66
66
60
60
60
60
60
60
60
F0
ENDCHAR
STARTCHAR uni027E
ENCODING 638
SWIDTH 500 0
DWIDTH 8 0
BBX 7 9 0 0
BITMAP
3C
66
66
60
60
60
60
60
F0
ENDCHAR
STARTCHAR uni0280
ENCODING 640
SWIDTH 500 0
DWIDTH 8 0
BBX 8 9 0 0
BITMAP
F8
64
66
64
78
68
6C
66
F7
ENDCHAR
STARTCHAR uni0281
ENCODING 641
SWIDTH 500 0
DWIDTH 8 0
BBX 8 9 0 0
BITMAP
F7
66
6C
68
78
64
66
64
F8
ENDCHAR
STARTCHAR uni0283
ENCODING 643
SWIDTH 500 0
DWIDTH 8 0
BBX 8 16 0 -2
BITMAP
0E
1B
1B
18
18
18
18
18
18
18
18
18
18
D8
D0
60
ENDCHAR
STARTCHAR uni0287
ENCODING 647
SWIDTH 500 0
DWIDTH 8 0
BBX 7 11 0 -2
BITMAP
70
98
18
18
18
18
18
18
FE
18
18
ENDCHAR
STARTCHAR uni0289
ENCODING 649
SWIDTH 500 0
DWIDTH 8 0
BBX 8 9 0 0
BITMAP
EE
66
66
FF
66
66
66
7E
37
ENDCHAR
STARTCHAR uni028B
ENCODING 651
SWIDTH 500 0
DWIDTH 8 0
BBX 7 9 0 0
BITMAP
EC
6E
6A
62
66
66
6E
6C
38
ENDCHAR
STARTCHAR uni028C
ENCODING 652
SWIDTH 500 0
DWIDTH 8 0
BBX 8 9 0 0
BITMAP
18
18
18
2C
2C
2C
46
46
EF
ENDCHAR
STARTCHAR uni028D
ENCODING 653
SWIDTH 500 0
DWIDTH 8 0
BBX 8 9 0 0
BITMAP
36
36
36
36
5B
5B
5B
5B
DB
ENDCHAR
STARTCHAR uni028E
ENCODING 654
SWIDTH 500 0
DWIDTH 8 0
BBX 8 11 0 0
BITMAP
06
06
08
08
18
1C
2C
26
46
43
E7
ENDCHAR
STARTCHAR uni028F
ENCODING 655
SWIDTH 500 0
DWIDTH 8 0
BBX 8 9 0 0
BITMAP
F7
62
62
34
34
18
18
18
3C
ENDCHAR
STARTCHAR uni0292
ENCODING 658
SWIDTH 500 0
DWIDTH 8 0
BBX 7 11 0 -2
BITMAP
7E
4C
18
30
0C
06
06
06
C6
CC
78
ENDCHAR
STARTCHAR uni0299
ENCODING 665
SWIDTH 500 0
DWIDTH 8 0
BBX 7 9 0 0
BITMAP
F8
64
66
66
7C
66
66
64
F8
ENDCHAR
STARTCHAR uni029C
ENCODING 668
SWIDTH 500 0
DWIDTH 8 0
BBX 8 9 0 0
BITMAP
F7
66
66
66
7E
66
66
66
F7
ENDCHAR
STARTCHAR uni029E
ENCODING 670
SWIDTH 500 0
DWIDTH 8 0
BBX 8 11 0 -2
BITMAP
EF
66
36
36
1E
16
26
46
E6
06
07
ENDCHAR
STARTCHAR uni029F
ENCODING 671
SWIDTH 500 0
DWIDTH 8 0
BBX 7 9 0 0
BITMAP
F8
60
60
60
60
62
62
66
FE
ENDCHAR
STARTCHAR caron
ENCODING 711
SWIDTH 1000 0
DWIDTH 16 0
BBX 5 3 5 11
BITMAP
88
70
20
ENDCHAR
STARTCHAR uni02C9
ENCODING 713
SWIDTH 1000 0
DWIDTH 16 0
BBX 5 1 5 12
BITMAP
F8
ENDCHAR
STARTCHAR uni02CA
ENCODING 714
SWIDTH 1000 0
DWIDTH 16 0
BBX 5 3 5 11
BITMAP
08
30
C0
ENDCHAR
STARTCHAR uni02CB
ENCODING 715
SWIDTH 1000 0
DWIDTH 16 0
BBX 5 3 5 11
BITMAP
80
60
18
ENDCHAR
STARTCHAR dotaccent
ENCODING 729
SWIDTH 1000 0
DWIDTH 16 0
BBX 2 2 7 12
BITMAP
C0
C0
ENDCHAR
STARTCHAR Alpha
ENCODING 913
SWIDTH 1000 0
DWIDTH 16 0
BBX 13 13 1 0
BITMAP
0200
0200
0700
0500
0980
0980
0980
10C0
1FC0
10C0
2060
2060
F0F8
ENDCHAR
STARTCHAR Beta
ENCODING 914
SWIDTH 1000 0
DWIDTH 16 0
BBX 10 13 2 0
BITMAP
FF00
3180
30C0
30C0
30C0
3180
3F00
3180
30C0
30C0
30C0
3180
FF00
ENDCHAR
STARTCHAR Gamma
ENCODING 915
SWIDTH 1000 0
DWIDTH 16 0
BBX 10 13 2 0
BITMAP
FFC0
30C0
3040
3040
3000
3000
3000
3000
3000
3000
3000
3000
FE00
ENDCHAR
STARTCHAR uni0394
ENCODING 916
SWIDTH 1000 0
DWIDTH 16 0
BBX 13 13 1 0
BITMAP
0200
0200
0700
0500
0980
0980
10C0
10C0
2060
2060
4030
7FF0
FFF8
ENDCHAR
STARTCHAR Epsilon
ENCODING 917
SWIDTH 1000 0
DWIDTH 16 0
BBX 11 13 2 0
BITMAP
FFE0
3060
3020
3020
3100
3300
3F00
3300
3100
3020
3020
3060
FFE0
ENDCHAR
STARTCHAR Zeta
ENCODING 918
SWIDTH 1000 0
DWIDTH 16 0
BBX 10 13 3 0
BITMAP
FFC0
C180
8300
8300
0600
0600
0C00
1800
1800
3040
3040
60C0
FFC0
ENDCHAR
STARTCHAR Eta
ENCODING 919
SWIDTH 1000 0
DWIDTH 16 0
BBX 13 13 1 0
BITMAP
FDF8
3060
3060
3060
3060
3060
3FE0
3060
3060
3060
3060
3060
FDF8
ENDCHAR
STARTCHAR Theta
ENCODING 920
SWIDTH 1000 0
DWIDTH 16 0
BBX 12 13 2 0
BITMAP
0F00
30C0
6060
6060
C930
CF30
CF30
C930
C030
6060
6060
30C0
0F00
ENDCHAR
STARTCHAR Iota
ENCODING 921
SWIDTH 1000 0
DWIDTH 16 0
BBX 6 13 5 0
BITMAP
FC
30
30
30
30
30
30
30
30
30
30
30
FC
ENDCHAR
STARTCHAR Kappa
ENCODING 922
SWIDTH 1000 0
DWIDTH 16 0
BBX 13 13 1 0
BITMAP
F8F0
3040
3080
3100
3200
3700
3B00
3180
3180
30C0
30C0
3060
F8F8
ENDCHAR
STARTCHAR Lambda
ENCODING 923
SWIDTH 1000 0
DWIDTH 16 0
BBX 13 13 1 0
BITMAP
0200
0200
0700
0500
0980
0980
0980
10C0
10C0
10C0
2060
2060
F9F8
ENDCHAR
STARTCHAR Mu
ENCODING 924
SWIDTH 1000 0
DWIDTH 16 0
BBX 15 13 0 0
BITMAP
701C
3018
3838
3838
2838
2C58
2C58
2698
2698
2698
2318
2318
F87E
ENDCHAR
STARTCHAR Nu
ENCODING 925
SWIDTH 1000 0
DWIDTH 16 0
BBX 13 13 1 0
BITMAP
F0F8
3020
3820
2C20
2C20
2620
2620
2320
21A0
21A0
20E0
2060
F860
ENDCHAR
STARTCHAR Xi
ENCODING 926
SWIDTH 1000 0
DWIDTH 16 0
BBX 12 13 2 0
BITMAP
3FF0
7FE0
4020
0000
1040
1FC0
3F80
2080
0000
0000
4020
7FE0
FFC0
ENDCHAR
STARTCHAR Omicron
ENCODING 927
SWIDTH 1000 0
DWIDTH 16 0
BBX 12 13 2 0
BITMAP
0F00
30C0
6060
6060
C030
C030
C030
C030
C030
6060
6060
30C0
0F00
ENDCHAR
STARTCHAR Pi
ENCODING 928
SWIDTH 1000 0
DWIDTH 16 0
BBX 12 13 2 0
BITMAP
FFF0
30C0
30C0
30C0
30C0
30C0
30C0
30C0
30C0
30C0
30C0
30C0
F9F0
ENDCHAR
STARTCHAR Rho
ENCODING 929
SWIDTH 1000 0
DWIDTH 16 0
BBX 11 13 2 0
BITMAP
FF80
30C0
3060
3060
3060
30C0
3F80
3000
3000
3000
3000
3000
FE00
ENDCHAR
STARTCHAR Sigma
ENCODING 931
SWIDTH 1000 0
DWIDTH 16 0
BBX 11 13 2 0
BITMAP
FFE0
6060
3020
3020
1800
0C00
0E00
0C00
1800
3020
3020
6060
FFE0
ENDCHAR
STARTCHAR Tau
ENCODING 932
SWIDTH 1000 0
DWIDTH 16 0
BBX 12 13 2 0
BITMAP
FFF0
C630
8610
8610
0600
0600
0600
0600
0600
0600
0600
0600
1F80
ENDCHAR
STARTCHAR Upsilon
ENCODING 933
SWIDTH 1000 0
DWIDTH 16 0
BBX 12 13 2 0
BITMAP
70E0
9990
8F10
0600
0600
0600
0600
0600
0600
0600
0600
0600
1F80
ENDCHAR
STARTCHAR Phi
ENCODING 934
SWIDTH 1000 0
DWIDTH 16 0
BBX 12 13 2 0
BITMAP
1F80
0600
1F80
6660
6660
C630
C630
C630
6660
6660
1F80
0600
1F80
ENDCHAR
STARTCHAR Chi
ENCODING 935
SWIDTH 1000 0
DWIDTH 16 0
BBX 13 13 1 0
BITMAP
FCF8
3020
1840
1880
0D00
0600
0700
0700
0980
08C0
10C0
2060
F9F8
ENDCHAR
STARTCHAR Psi
ENCODING 936
SWIDTH 1000 0
DWIDTH 16 0
BBX 14 13 1 0
BITMAP
0FC0
0300
6318
B334
3330
3330
3330
1B60
0FC0
0300
0300
0300
0FC0
ENDCHAR
STARTCHAR uni03A9
ENCODING 937
SWIDTH 1000 0
DWIDTH 16 0
BBX 12 13 2 0
BITMAP
0F00
30C0
6060
4020
C030
C030
C030
4020
6060
30C0
9090
D930
F9F0
ENDCHAR
STARTCHAR alpha
ENCODING 945
SWIDTH 1000 0
DWIDTH 16 0
BBX 11 9 2 0
BITMAP
0E60
1160
31C0
6180
4180
C300
C300
CD40
7180
ENDCHAR
STARTCHAR beta
ENCODING 946
SWIDTH 1000 0
DWIDTH 16 0
BBX 10 15 3 -2
BITMAP
0780
0CC0
08C0
18C0
1980
1700
3100
3180
2180
6180
7B00
6E00
C000
C000
C000
ENDCHAR
STARTCHAR gamma
ENCODING 947
SWIDTH 1000 0
DWIDTH 16 0
BBX 10 11 3 -2
BITMAP
70C0
99C0
0E00
0C00
0800
1800
1800
1000
3000
3000
3000
ENDCHAR
STARTCHAR delta
ENCODING 948
SWIDTH 1000 0
DWIDTH 16 0
BBX 9 13 4 0
BITMAP
1C00
2700
2380
1080
0800
3C00
6600
4600
C600
C600
C600
CC00
7800
ENDCHAR
STARTCHAR epsilon
ENCODING 949
SWIDTH 1000 0
DWIDTH 16 0
BBX 8 9 4 0
BITMAP
3C
66
61
30
38
40
C1
E6
7C
ENDCHAR
STARTCHAR zeta
ENCODING 950
SWIDTH 1000 0
DWIDTH 16 0
BBX 8 15 3 -2
BITMAP
18
20
23
1F
08
30
60
40
C0
80
F0
7C
06
22
3C
ENDCHAR
STARTCHAR eta
ENCODING 951
SWIDTH 1000 0
DWIDTH 16 0
BBX 9 10 3 -1
BITMAP
7700
9880
1880
3180
2100
6300
C200
C600
0C00
0C00
ENDCHAR
STARTCHAR theta
ENCODING 952
SWIDTH 1000 0
DWIDTH 16 0
BBX 9 13 3 0
BITMAP
0F00
1980
3080
2080
6180
7F80
6100
C100
C300
C200
C600
CC00
7800
ENDCHAR
STARTCHAR iota
ENCODING 953
SWIDTH 1000 0
DWIDTH 16 0
BBX 7 9 5 0
BITMAP
30
30
60
60
40
C0
82
CC
78
ENDCHAR
STARTCHAR kappa
ENCODING 954
SWIDTH 1000 0
DWIDTH 16 0
BBX 10 9 2 0
BITMAP
3180
33C0
3240
3C00
6400
6600
6640
C640
C380
ENDCHAR
STARTCHAR lambda
ENCODING 955
SWIDTH 1000 0
DWIDTH 16 0
BBX 10 13 3 0
BITMAP
1800
1C00
0600
0200
0200
0600
0A00
1200
3200
6300
4100
C1C0
C0C0
ENDCHAR
STARTCHAR uni03BC
ENCODING 956
SWIDTH 1000 0
DWIDTH 16 0
BBX 10 11 2 -2
BITMAP
18C0
18C0
18C0
1980
3180
3100
3380
6EC0
6000
C000
C000
ENDCHAR
STARTCHAR nu
ENCODING 957
SWIDTH 1000 0
DWIDTH 16 0
BBX 8 9 4 0
BITMAP
81
C1
C1
42
46
4C
58
F0
C0
ENDCHAR
STARTCHAR xi
ENCODING 958
SWIDTH 1000 0
DWIDTH 16 0
BBX 9 15 3 -2
BITMAP
0F00
1000
0F80
1F80
3000
2000
1F00
7F00
4000
8000
F000
7C00
0E00
2200
3C00
ENDCHAR
STARTCHAR omicron
ENCODING 959
SWIDTH 1000 0
DWIDTH 16 0
BBX 8 9 4 0
BITMAP
1E
33
63
63
C3
C2
C6
CC
70
ENDCHAR
STARTCHAR pi
ENCODING 960
SWIDTH 1000 0
DWIDTH 16 0
BBX 10 10 3 0
BITMAP
0040
7FC0
FF80
9300
3600
2600
6400
6C80
CF00
C600
ENDCHAR
STARTCHAR rho
ENCODING 961
SWIDTH 1000 0
DWIDTH 16 0
BBX 9 11 3 -2
BITMAP
0F00
1980
1080
3180
2180
6300
7300
6E00
C000
C000
C000
ENDCHAR
STARTCHAR sigma1
ENCODING 962
SWIDTH 1000 0
DWIDTH 16 0
BBX 8 11 3 -2
BITMAP
1D
37
62
40
C0
80
F0
7C
06
22
3C
ENDCHAR
STARTCHAR sigma
ENCODING 963
SWIDTH 1000 0
DWIDTH 16 0
BBX 10 11 3 0
BITMAP
0080
0040
0FC0
3F80
6200
4300
C300
C600
C600
CC00
7800
ENDCHAR
STARTCHAR tau
ENCODING 964
SWIDTH 1000 0
DWIDTH 16 0
BBX 10 10 2 0
BITMAP
0040
7FC0
FF80
8C00
1800
1800
3000
3080
3300
1E00
ENDCHAR
STARTCHAR upsilon
ENCODING 965
SWIDTH 1000 0
DWIDTH 16 0
BBX 8 9 3 0
BITMAP
62
63
63
61
C3
C2
C6
CC
70
ENDCHAR
STARTCHAR phi
ENCODING 966
SWIDTH 1000 0
DWIDTH 16 0
BBX 9 15 3 -2
BITMAP
0600
0600
0600
0400
1E00
7500
4D80
CD80
C980
C900
7F00
3C00
1000
3000
3000
ENDCHAR
STARTCHAR chi
ENCODING 967
SWIDTH 1000 0
DWIDTH 16 0
BBX 9 11 3 -2
BITMAP
7180
D980
9B00
1A00
1C00
1C00
1800
3800
6C80
CD80
C700
ENDCHAR
STARTCHAR psi
ENCODING 968
SWIDTH 1000 0
DWIDTH 16 0
BBX 11 15 2 -2
BITMAP
0180
0180
0100
0300
6340
B360
3220
6660
6660
64C0
3D80
1E00
0C00
1800
1800
ENDCHAR
STARTCHAR omega
ENCODING 969
SWIDTH 1000 0
DWIDTH 16 0
BBX 11 9 2 0
BITMAP
1880
2040
6040
4060
C660
C460
8C60
DFC0
7380
ENDCHAR
STARTCHAR uni0401
ENCODING 1025
SWIDTH 1000 0
DWIDTH 16 0
BBX 10 14 3 0
BITMAP
3300
3300
0000
FFC0
6040
6140
6100
7F00
6100
6100
6040
6040
60C0
FFC0
ENDCHAR
STARTCHAR uni0410
ENCODING 1040
SWIDTH 1000 0
DWIDTH 16 0
BBX 11 13 2 0
BITMAP
0400
0400
0E00
0A00
1300
1300
1300
2180
3F80
2080
40C0
40C0
E1E0
ENDCHAR
STARTCHAR uni0411
ENCODING 1041
SWIDTH 1000 0
DWIDTH 16 0
BBX 9 13 3 0
BITMAP
FF80
6180
6080
6000
6000
6000
7E00
6300
6180
6180
6180
6300
FE00
ENDCHAR
STARTCHAR uni0412
ENCODING 1042
SWIDTH 1000 0
DWIDTH 16 0
BBX 9 13 3 0
BITMAP
FE00
6300
6180
6180
6180
6300
7E00
6300
6180
6180
6180
6300
FE00
ENDCHAR
STARTCHAR uni0413
ENCODING 1043
SWIDTH 1000 0
DWIDTH 16 0
BBX 9 13 3 0
BITMAP
FF80
6180
6080
6080
6000
6000
6000
6000
6000
6000
6000
6000
F800
ENDCHAR
STARTCHAR uni0414
ENCODING 1044
SWIDTH 1000 0
DWIDTH 16 0
BBX 11 15 2 -2
BITMAP
3FC0
1180
1180
1180
1180
1180
1180
1180
1180
1180
2180
2180
FFE0
8060
8020
ENDCHAR
STARTCHAR uni0415
ENCODING 1045
SWIDTH 1000 0
DWIDTH 16 0
BBX 10 13 3 0
BITMAP
FFC0
60C0
6040
6100
6100
7F00
6100
6100
6000
6040
6040
60C0
FFC0
ENDCHAR
STARTCHAR uni0416
ENCODING 1046
SWIDTH 1000 0
DWIDTH 16 0
BBX 14 13 1 0
BITMAP
4788
E31C
6318
2310
2310
1320
0FC0
1320
3330
2310
6318
4308
E7BC
ENDCHAR
STARTCHAR uni0417
ENCODING 1047
SWIDTH 1000 0
DWIDTH 16 0
BBX 9 13 3 0
BITMAP
3E00
6300
C180
0180
0180
0300
0E00
0300
0180
8180
C180
6300
3E00
ENDCHAR
STARTCHAR uni0418
ENCODING 1048
SWIDTH 1000 0
DWIDTH 16 0
BBX 12 13 2 0
BITMAP
F0F0
6060
60E0
6160
6260
6260
6460
6860
6860
7060
6060
6060
F0F0
ENDCHAR
STARTCHAR uni0419
ENCODING 1049
SWIDTH 1000 0
DWIDTH 16 0
BBX 12 14 2 0
BITMAP
1980
1980
0F00
F0F0
6060
60E0
6160
6260
6460
6460
6860
7060
6060
F0F0
ENDCHAR
STARTCHAR uni041A
ENCODING 1050
SWIDTH 1000 0
DWIDTH 16 0
BBX 11 13 2 0
BITMAP
F0C0
6120
6100
6200
6400
7C00
6600
6600
6300
6300
6180
60C0
F1E0
ENDCHAR
STARTCHAR uni041B
ENCODING 1051
SWIDTH 1000 0
DWIDTH 16 0
BBX 12 13 1 0
BITMAP
0FF0
0460
0460
0460
0460
0460
0460
0460
0460
0860
4860
D060
60F0
ENDCHAR
STARTCHAR uni041C
ENCODING 1052
SWIDTH 1000 0
DWIDTH 16 0
BBX 13 13 1 0
BITMAP
7070
3860
38A0
28A0
2CA0
2D20
2D20
4710
4610
4610
4210
4210
E038
ENDCHAR
STARTCHAR uni041D
ENCODING 1053
SWIDTH 1000 0
DWIDTH 16 0
BBX 12 13 2 0
BITMAP
F0F0
6060
6060
6060
6060
7FE0
6060
6060
6060
6060
6060
6060
F0F0
ENDCHAR
STARTCHAR uni041E
ENCODING 1054
SWIDTH 1000 0
DWIDTH 16 0
BBX 12 13 2 0
BITMAP
0F00
30C0
6060
6060
C030
C030
C030
C030
C030
6060
6060
30C0
0F00
ENDCHAR
STARTCHAR uni041F
ENCODING 1055
SWIDTH 1000 0
DWIDTH 16 0
BBX 12 13 2 0
BITMAP
FFF0
6060
6060
6060
6060
6060
6060
6060
6060
6060
6060
6060
F0F0
ENDCHAR
STARTCHAR uni0420
ENCODING 1056
SWIDTH 1000 0
DWIDTH 16 0
BBX 9 13 3 0
BITMAP
FE00
6300
6180
6180
6180
6180
6300
7E00
6000
6000
6000
6000
F800
ENDCHAR
STARTCHAR uni0421
ENCODING 1057
SWIDTH 1000 0
DWIDTH 16 0
BBX 10 13 2 0
BITMAP
1F40
31C0
60C0
6000
C000
C000
C000
C000
C000
6040
60C0
31C0
1F00
ENDCHAR
STARTCHAR uni0422
ENCODING 1058
SWIDTH 1000 0
DWIDTH 16 0
BBX 12 13 2 0
BITMAP
FFF0
C630
8610
8610
0600
0600
0600
0600
0600
0600
0600
0600
1F80
ENDCHAR
STARTCHAR uni0423
ENCODING 1059
SWIDTH 1000 0
DWIDTH 16 0
BBX 11 13 2 0
BITMAP
F0E0
6040
6040
3080
3080
1900
1900
0A00
0E00
0400
2400
6800
3000
ENDCHAR
STARTCHAR uni0424
ENCODING 1060
SWIDTH 1000 0
DWIDTH 16 0
BBX 12 13 2 0
BITMAP
0F00
0600
1F80
6660
4620
C630
C630
C630
4620
6660
1F80
0600
0F00
ENDCHAR
STARTCHAR uni0425
ENCODING 1061
SWIDTH 1000 0
DWIDTH 16 0
BBX 11 13 2 0
BITMAP
F0E0
6040
3080
3100
1A00
0C00
0C00
0E00
1300
1300
2180
40C0
E1E0
ENDCHAR
STARTCHAR uni0426
ENCODING 1062
SWIDTH 1000 0
DWIDTH 16 0
BBX 12 15 2 -2
BITMAP
F1E0
60C0
60C0
60C0
60C0
60C0
60C0
60C0
60C0
60C0
60C0
60C0
FFF0
0030
0010
ENDCHAR
STARTCHAR uni0427
ENCODING 1063
SWIDTH 1000 0
DWIDTH 16 0
BBX 11 13 2 0
BITMAP
F1E0
60C0
60C0
60C0
60C0
60C0
60C0
31C0
1EC0
00C0
00C0
00C0
03E0
ENDCHAR
STARTCHAR uni0428
ENCODING 1064
SWIDTH 1000 0
DWIDTH 16 0
BBX 14 13 0 0
BITMAP
E7BC
6318
6318
6318
6318
6318
6318
6318
6318
6318
6318
6318
FFFC
ENDCHAR
STARTCHAR uni0429
ENCODING 1065
SWIDTH 1000 0
DWIDTH 16 0
BBX 15 15 0 -2
BITMAP
F7BC
6318
6318
6318
6318
6318
6318
6318
6318
6318
6318
6318
FFFE
0006
0002
ENDCHAR
STARTCHAR uni042A
ENCODING 1066
SWIDTH 1000 0
DWIDTH 16 0
BBX 12 13 1 0
BITMAP
FE00
CC00
8C00
8C00
0C00
0FC0
0C60
0C30
0C30
0C30
0C30
0C60
1FC0
ENDCHAR
STARTCHAR uni042B
ENCODING 1067
SWIDTH 1000 0
DWIDTH 16 0
BBX 13 13 1 0
BITMAP
F078
6030
6030
6030
6030
7C30
6630
6330
6330
6330
6330
6630
FC78
ENDCHAR
STARTCHAR uni042C
ENCODING 1068
SWIDTH 1000 0
DWIDTH 16 0
BBX 9 13 3 0
BITMAP
F000
6000
6000
6000
6000
7E00
6300
6180
6180
6180
6180
6300
FE00
ENDCHAR
STARTCHAR uni042D
ENCODING 1069
SWIDTH 1000 0
DWIDTH 16 0
BBX 10 13 3 0
BITMAP
3E00
E300
C180
0180
00C0
30C0
5BC0
0EC0
00C0
8180
C180
E300
3E00
ENDCHAR
STARTCHAR uni042E
ENCODING 1070
SWIDTH 1000 0
DWIDTH 16 0
BBX 13 13 1 0
BITMAP
F1E0
6330
6210
6618
6618
7E18
6618
6618
6618
6618
6210
6330
F1E0
ENDCHAR
STARTCHAR uni042F
ENCODING 1071
SWIDTH 1000 0
DWIDTH 16 0
BBX 11 13 2 0
BITMAP
1FE0
30C0
60C0
60C0
60C0
30C0
1FC0
0CC0
0CC0
18C0
18C0
30C0
C1E0
ENDCHAR
STARTCHAR uni0430
ENCODING 1072
SWIDTH 1000 0
DWIDTH 16 0
BBX 10 9 3 0
BITMAP
3E00
6300
0300
1F00
6300
C300
C300
C740
7980
ENDCHAR
STARTCHAR uni0431
ENCODING 1073
SWIDTH 1000 0
DWIDTH 16 0
BBX 8 14 3 0
BITMAP
01
1F
7E
40
80
98
A6
C2
C3
C3
C3
42
66
18
ENDCHAR
STARTCHAR uni0432
ENCODING 1074
SWIDTH 1000 0
DWIDTH 16 0
BBX 8 9 3 0
BITMAP
FE
63
63
63
7E
63
63
63
FE
ENDCHAR
STARTCHAR uni0433
ENCODING 1075
SWIDTH 1000 0
DWIDTH 16 0
BBX 8 9 3 0
BITMAP
FF
63
61
60
60
60
60
60
F0
ENDCHAR
STARTCHAR uni0434
ENCODING 1076
SWIDTH 1000 0
DWIDTH 16 0
BBX 10 11 2 -2
BITMAP
3FC0
1180
1180
1180
1180
1180
2180
2180
FFC0
80C0
8040
ENDCHAR
STARTCHAR uni0435
ENCODING 1077
SWIDTH 1000 0
DWIDTH 16 0
BBX 8 9 3 0
BITMAP
3C
66
C3
C3
FF
C0
C0
63
3E
ENDCHAR
STARTCHAR uni0436
ENCODING 1078
SWIDTH 1000 0
DWIDTH 16 0
BBX 12 9 2 0
BITMAP
4F20
E670
2640
2640
1F80
2640
6660
4720
EF70
ENDCHAR
STARTCHAR uni0437
ENCODING 1079
SWIDTH 1000 0
DWIDTH 16 0
BBX 8 9 3 0
BITMAP
3E
63
C3
02
1C
02
C3
63
3E
ENDCHAR
STARTCHAR uni0438
ENCODING 1080
SWIDTH 1000 0
DWIDTH 16 0
BBX 10 9 3 0
BITMAP
F3C0
6180
6380
6580
6980
7180
6180
6180
F3C0
ENDCHAR
STARTCHAR uni0439
ENCODING 1081
SWIDTH 1000 0
DWIDTH 16 0
BBX 10 13 3 0
BITMAP
3300
3300
1E00
0000
F3C0
6180
6380
6580
6980
7180
6180
6180
F3C0
ENDCHAR
STARTCHAR uni043A
ENCODING 1082
SWIDTH 1000 0
DWIDTH 16 0
BBX 9 9 3 0
BITMAP
F100
6380
6400
6800
7C00
6600
6600
6300
F380
ENDCHAR
STARTCHAR uni043B
ENCODING 1083
SWIDTH 1000 0
DWIDTH 16 0
BBX 11 9 1 0
BITMAP
1FE0
08C0
08C0
08C0
08C0
08C0
48C0
D0C0
61E0
ENDCHAR
STARTCHAR uni043C
ENCODING 1084
SWIDTH 1000 0
DWIDTH 16 0
BBX 11 9 2 0
BITMAP
E060
70C0
70C0
5940
5940
4E40
4E40
4440
E0E0
ENDCHAR
STARTCHAR uni043D
ENCODING 1085
SWIDTH 1000 0
DWIDTH 16 0
BBX 10 9 3 0
BITMAP
F3C0
6180
6180
7F80
6180
6180
6180
6180
F3C0
ENDCHAR
STARTCHAR uni043E
ENCODING 1086
SWIDTH 1000 0
DWIDTH 16 0
BBX 9 9 3 0
BITMAP
1C00
6300
4100
C180
C180
C180
4100
6300
1C00
ENDCHAR
STARTCHAR uni043F
ENCODING 1087
SWIDTH 1000 0
DWIDTH 16 0
BBX 10 9 3 0
BITMAP
FFC0
6180
6180
6180
6180
6180
6180
6180
F3C0
ENDCHAR
STARTCHAR uni0440
ENCODING 1088
SWIDTH 1000 0
DWIDTH 16 0
BBX 9 11 3 -2
BITMAP
6E00
F300
6180
6180
6180
6180
7300
6E00
6000
6000
F000
ENDCHAR
STARTCHAR uni0441
ENCODING 1089
SWIDTH 1000 0
DWIDTH 16 0
BBX 8 9 3 0
BITMAP
3E
63
C1
C0
C0
C0
C1
63
3E
ENDCHAR
STARTCHAR uni0442
ENCODING 1090
SWIDTH 1000 0
DWIDTH 16 0
BBX 10 9 3 0
BITMAP
FFC0
CCC0
8C40
0C00
0C00
0C00
0C00
0C00
1E00
ENDCHAR
STARTCHAR uni0443
ENCODING 1091
SWIDTH 1000 0
DWIDTH 16 0
BBX 9 11 3 -2
BITMAP
F380
6100
6100
3200
3200
1400
1C00
0800
4800
D000
6000
ENDCHAR
STARTCHAR uni0444
ENCODING 1092
SWIDTH 1000 0
DWIDTH 16 0
BBX 12 15 2 -2
BITMAP
0600
0E00
0600
0600
36C0
4F20
CF30
C630
C630
CE30
4F20
36C0
0600
0600
0F00
ENDCHAR
STARTCHAR uni0445
ENCODING 1093
SWIDTH 1000 0
DWIDTH 16 0
BBX 9 9 3 0
BITMAP
F380
6100
3200
1400
0C00
1C00
2600
4300
E780
ENDCHAR
STARTCHAR uni0446
ENCODING 1094
SWIDTH 1000 0
DWIDTH 16 0
BBX 11 11 2 -2
BITMAP
F3C0
6180
6180
6180
6180
6180
6180
6180
FFE0
0060
0020
ENDCHAR
STARTCHAR uni0447
ENCODING 1095
SWIDTH 1000 0
DWIDTH 16 0
BBX 10 9 2 0
BITMAP
F3C0
6180
6180
6180
6380
3D80
0180
0180
03C0
ENDCHAR
STARTCHAR uni0448
ENCODING 1096
SWIDTH 1000 0
DWIDTH 16 0
BBX 12 9 2 0
BITMAP
EEF0
6660
6660
6660
6660
6660
6660
6660
FFF0
ENDCHAR
STARTCHAR uni0449
ENCODING 1097
SWIDTH 1000 0
DWIDTH 16 0
BBX 13 11 1 -2
BITMAP
EEF0
6660
6660
6660
6660
6660
6660
6660
FFF8
0018
0008
ENDCHAR
STARTCHAR uni044A
ENCODING 1098
SWIDTH 1000 0
DWIDTH 16 0
BBX 10 9 2 0
BITMAP
F800
D800
9800
1F80
18C0
18C0
18C0
18C0
3F80
ENDCHAR
STARTCHAR uni044B
ENCODING 1099
SWIDTH 1000 0
DWIDTH 16 0
BBX 12 9 2 0
BITMAP
F0F0
6060
6060
7C60
6660
6660
6660
6660
FCF0
ENDCHAR
STARTCHAR uni044C
ENCODING 1100
SWIDTH 1000 0
DWIDTH 16 0
BBX 8 9 4 0
BITMAP
F0
60
60
7C
66
63
63
66
FC
ENDCHAR
STARTCHAR uni044D
ENCODING 1101
SWIDTH 1000 0
DWIDTH 16 0
BBX 8 9 3 0
BITMAP
7C
C6
03
3B
5F
03
03
C6
7C
ENDCHAR
STARTCHAR uni044E
ENCODING 1102
SWIDTH 1000 0
DWIDTH 16 0
BBX 12 9 1 0
BITMAP
F1C0
6360
6630
7E30
6630
6630
6630
6360
F1C0
ENDCHAR
STARTCHAR uni044F
ENCODING 1103
SWIDTH 1000 0
DWIDTH 16 0
BBX 9 9 3 0
BITMAP
3F80
6300
6300
6300
3F00
3300
3300
6300
C780
ENDCHAR
STARTCHAR uni0451
ENCODING 1105
SWIDTH 1000 0
DWIDTH 16 0
BBX 8 12 3 0
BITMAP
66
66
00
3C
66
C3
C3
FF
C0
C0
63
3E
ENDCHAR
STARTCHAR uni2000
ENCODING 8192
SWIDTH 1000 0
DWIDTH 16 0
BBX 1 1 0 0
BITMAP
00
ENDCHAR
STARTCHAR uni2001
ENCODING 8193
SWIDTH 1000 0
DWIDTH 16 0
BBX 1 1 0 0
BITMAP
00
ENDCHAR
STARTCHAR uni2002
ENCODING 8194
SWIDTH 1000 0
DWIDTH 16 0
BBX 1 1 0 0
BITMAP
00
ENDCHAR
STARTCHAR uni2003
ENCODING 8195
SWIDTH 1000 0
DWIDTH 16 0
BBX 1 1 0 0
BITMAP
00
ENDCHAR
STARTCHAR uni2004
ENCODING 8196
SWIDTH 1000 0
DWIDTH 16 0
BBX 1 1 0 0
BITMAP
00
ENDCHAR
STARTCHAR uni2005
ENCODING 8197
SWIDTH 1000 0
DWIDTH 16 0
BBX 1 1 0 0
BITMAP
00
ENDCHAR
STARTCHAR uni2006
ENCODING 8198
SWIDTH 1000 0
DWIDTH 16 0
BBX 1 1 0 0
BITMAP
00
ENDCHAR
STARTCHAR uni2007
ENCODING 8199
SWIDTH 1000 0
DWIDTH 16 0
BBX 1 1 0 0
BITMAP
00
ENDCHAR
STARTCHAR uni2008
ENCODING 8200
SWIDTH 1000 0
DWIDTH 16 0
BBX 1 1 0 0
BITMAP
00
ENDCHAR
STARTCHAR uni2009
ENCODING 8201
SWIDTH 1000 0
DWIDTH 16 0
BBX 1 1 0 0
BITMAP
00
ENDCHAR
STARTCHAR uni200A
ENCODING 8202
SWIDTH 1000 0
DWIDTH 16 0
BBX 1 1 0 0
BITMAP
00
ENDCHAR
STARTCHAR uni200B
ENCODING 8203
SWIDTH 500 0
DWIDTH 8 0
BBX 1 1 0 0
BITMAP
00
ENDCHAR
STARTCHAR uni200C
ENCODING 8204
SWIDTH 500 0
DWIDTH 8 0
BBX 1 1 0 0
BITMAP
00
ENDCHAR
STARTCHAR uni200D
ENCODING 8205
SWIDTH 500 0
DWIDTH 8 0
BBX 1 1 0 0
BITMAP
00
ENDCHAR
STARTCHAR uni200E
ENCODING 8206
SWIDTH 500 0
DWIDTH 8 0
BBX 1 1 0 0
BITMAP
00
ENDCHAR
STARTCHAR uni200F
ENCODING 8207
SWIDTH 500 0
DWIDTH 8 0
BBX 1 1 0 0
BITMAP
00
ENDCHAR
STARTCHAR endash
ENCODING 8211
SWIDTH 500 0
DWIDTH 8 0
BBX 7 1 0 5
BITMAP
FE
ENDCHAR
STARTCHAR emdash
ENCODING 8212
SWIDTH 1000 0
DWIDTH 16 0
BBX 15 1 0 6
BITMAP
FFFE
ENDCHAR
STARTCHAR uni2015
ENCODING 8213
SWIDTH 1000 0
DWIDTH 16 0
BBX 15 1 0 6
BITMAP
FFFE
ENDCHAR
STARTCHAR uni2016
ENCODING 8214
SWIDTH 1000 0
DWIDTH 16 0
BBX 5 16 5 -2
BITMAP
88
88
88
88
88
88
88
88
88
88
88
88
88
88
88
88
ENDCHAR
STARTCHAR quoteleft
ENCODING 8216
SWIDTH 1000 0
DWIDTH 16 0
BBX 3 5 12 9
BITMAP
20
40
C0
E0
40
ENDCHAR
STARTCHAR quoteright
ENCODING 8217
SWIDTH 1000 0
DWIDTH 16 0
BBX 3 5 0 9
BITMAP
40
E0
60
40
80
ENDCHAR
STARTCHAR quotedblleft
ENCODING 8220
SWIDTH 1000 0
DWIDTH 16 0
BBX 7 5 8 9
BITMAP
22
44
CC
EE
44
ENDCHAR
STARTCHAR quotedblright
ENCODING 8221
SWIDTH 1000 0
DWIDTH 16 0
BBX 7 5 0 9
BITMAP
44
EE
66
44
88
ENDCHAR
STARTCHAR dagger
ENCODING 8224
SWIDTH 1000 0
DWIDTH 16 0
BBX 9 16 3 -2
BITMAP
0800
1C00
1C00
0800
6B00
FF80
6B00
0800
1C00
3E00
1C00
1C00
0800
0800
0800
0800
ENDCHAR
STARTCHAR daggerdbl
ENCODING 8225
SWIDTH 1000 0
DWIDTH 16 0
BBX 9 16 3 -2
BITMAP
0800
1C00
6B00
FF80
6B00
1C00
1C00
0800
0800
1C00
1C00
6B00
FF80
6B00
1C00
0800
ENDCHAR
STARTCHAR bullet
ENCODING 8226
SWIDTH 1000 0
DWIDTH 16 0
BBX 3 3 6 5
BITMAP
40
E0
40
ENDCHAR
STARTCHAR onedotenleader
ENCODING 8228
SWIDTH 1000 0
DWIDTH 16 0
BBX 3 3 6 5
BITMAP
40
E0
40
ENDCHAR
STARTCHAR twodotenleader
ENCODING 8229
SWIDTH 1000 0
DWIDTH 16 0
BBX 13 3 1 5
BITMAP
4010
E038
4010
ENDCHAR
STARTCHAR ellipsis
ENCODING 8230
SWIDTH 1000 0
DWIDTH 16 0
BBX 15 3 0 5
BITMAP
4104
E38E
4104
ENDCHAR
STARTCHAR perthousand
ENCODING 8240
SWIDTH 1000 0
DWIDTH 16 0
BBX 15 15 0 -1
BITMAP
7080
5080
D900
D900
DA00
5400
7400
0800
171C
1514
2DB6
4DB6
4DB6
8514
071C
ENDCHAR
STARTCHAR minute
ENCODING 8242
SWIDTH 1000 0
DWIDTH 16 0
BBX 4 5 0 9
BITMAP
20
30
60
40
80
ENDCHAR
STARTCHAR second
ENCODING 8243
SWIDTH 1000 0
DWIDTH 16 0
BBX 7 5 0 9
BITMAP
24
36
6C
48
90
ENDCHAR
STARTCHAR uni203B
ENCODING 8251
SWIDTH 1000 0
DWIDTH 16 0
BBX 13 13 1 0
BITMAP
8708
4710
2720
1040
0880
E538
E238
E538
0880
1040
2720
4710
8708
ENDCHAR
STARTCHAR exclamdbl
ENCODING 8252
SWIDTH 1000 0
DWIDTH 16 0
BBX 9 13 3 0
BITMAP
4100
E380
E380
E380
4100
4100
4100
4100
0000
0000
4100
E380
4100
ENDCHAR
STARTCHAR uni203D
ENCODING 8253
SWIDTH 1000 0
DWIDTH 16 0
BBX 9 13 3 0
BITMAP
7E00
CB00
9D80
1D80
1D80
0B00
0E00
0C00
0000
0000
0800
1C00
0800
ENDCHAR
STARTCHAR uni203E
ENCODING 8254
SWIDTH 500 0
DWIDTH 8 0
BBX 7 1 0 12
BITMAP
FE
ENDCHAR
STARTCHAR uni2047
ENCODING 8263
SWIDTH 1000 0
DWIDTH 16 0
BBX 15 13 0 0
BITMAP
7878
E4E4
4242
0202
0202
0606
1C1C
1818
1010
0000
1010
3838
1010
ENDCHAR
STARTCHAR uni2048
ENCODING 8264
SWIDTH 1000 0
DWIDTH 16 0
BBX 11 13 2 0
BITMAP
7840
E4E0
42E0
02E0
0240
0640
1C40
1840
1000
0000
1040
38E0
1040
ENDCHAR
STARTCHAR uni2049
ENCODING 8265
SWIDTH 1000 0
DWIDTH 16 0
BBX 11 13 2 0
BITMAP
4780
EE40
E420
E020
4020
4060
41C0
4180
0100
0000
4100
E380
4100
ENDCHAR
STARTCHAR uni207F
ENCODING 8319
SWIDTH 500 0
DWIDTH 8 0
BBX 5 5 1 9
BITMAP
F0
D8
D8
D8
D8
ENDCHAR
STARTCHAR peseta
ENCODING 8359
SWIDTH 937 0
DWIDTH 15 0
BBX 14 13 0 0
BITMAP
F000
6800
6D80
6D80
6FDC
6DAC
69A0
71B0
6198
618C
6184
61B4
F0F8
ENDCHAR
STARTCHAR uni2103
ENCODING 8451
SWIDTH 1000 0
DWIDTH 16 0
BBX 13 13 1 0
BITMAP
6000
91C8
9638
6C08
0C08
1800
1800
1800
1800
0C08
0C08
0610
01E0
ENDCHAR
STARTCHAR uni2116
ENCODING 8470
SWIDTH 1000 0
DWIDTH 16 0
BBX 15 13 0 -1
BITMAP
C700
4200
6200
5200
5238
5244
4A44
4A44
4A44
4644
4244
E33A
0002
ENDCHAR
STARTCHAR uni2121
ENCODING 8481
SWIDTH 1000 0
DWIDTH 16 0
BBX 15 12 0 0
BITMAP
FE00
9200
9200
1000
1000
13D8
1250
1290
1390
1290
1252
3BDE
ENDCHAR
STARTCHAR uni212B
ENCODING 8491
SWIDTH 1000 0
DWIDTH 16 0
BBX 13 14 1 0
BITMAP
0700
0880
0880
0700
0200
0700
0500
0980
0980
10C0
1FC0
2060
2060
F0F8
ENDCHAR
STARTCHAR uni2160
ENCODING 8544
SWIDTH 1000 0
DWIDTH 16 0
BBX 6 13 4 0
BITMAP
FC
30
30
30
30
30
30
30
30
30
30
30
FC
ENDCHAR
STARTCHAR uni2161
ENCODING 8545
SWIDTH 1000 0
DWIDTH 16 0
BBX 10 13 3 0
BITMAP
FFC0
3300
3300
3300
3300
3300
3300
3300
3300
3300
3300
3300
FFC0
ENDCHAR
STARTCHAR uni2162
ENCODING 8546
SWIDTH 1000 0
DWIDTH 16 0
BBX 14 13 1 0
BITMAP
FFFC
3330
3330
3330
3330
3330
3330
3330
3330
3330
3330
3330
FFFC
ENDCHAR
STARTCHAR uni2163
ENCODING 8547
SWIDTH 1000 0
DWIDTH 16 0
BBX 14 13 1 0
BITMAP
FF3C
3608
3608
3608
3310
3310
3310
31A0
31A0
31A0
30C0
30C0
FCC0
ENDCHAR
STARTCHAR uni2164
ENCODING 8548
SWIDTH 1000 0
DWIDTH 16 0
BBX 12 13 2 0
BITMAP
F9F0
3040
3040
3040
1880
1880
1880
0D00
0D00
0D00
0600
0600
0600
ENDCHAR
STARTCHAR uni2165
ENCODING 8549
SWIDTH 1000 0
DWIDTH 16 0
BBX 14 13 1 0
BITMAP
F3FC
60B0
60B0
60B0
3130
3130
3130
1A30
1A30
1A30
0C30
0C30
0CFC
ENDCHAR
STARTCHAR uni2166
ENCODING 8550
SWIDTH 1000 0
DWIDTH 16 0
BBX 15 13 0 0
BITMAP
F7FE
62CC
62CC
62CC
34CC
34CC
34CC
34CC
34CC
18CC
18CC
18CC
19FE
ENDCHAR
STARTCHAR uni2167
ENCODING 8551
SWIDTH 1000 0
DWIDTH 16 0
BBX 15 13 0 0
BITMAP
EFFE
C76C
C76C
C76C
6B6C
6B6C
6B6C
6B6C
6B6C
336C
336C
336C
37FE
ENDCHAR
STARTCHAR uni2168
ENCODING 8552
SWIDTH 1000 0
DWIDTH 16 0
BBX 14 13 1 0
BITMAP
FF3C
3608
3310
3310
31A0
31C0
30C0
30E0
3160
3230
3230
3418
FF3C
ENDCHAR
STARTCHAR uni2169
ENCODING 8553
SWIDTH 1000 0
DWIDTH 16 0
BBX 12 13 2 0
BITMAP
F9F0
3040
1880
1880
0D00
0E00
0600
0700
0B00
1180
1180
20C0
F9F0
ENDCHAR
STARTCHAR uni216A
ENCODING 8554
SWIDTH 1000 0
DWIDTH 16 0
BBX 14 13 1 0
BITMAP
F3FC
60B0
3130
3130
1A30
1C30
0C30
0E30
1630
2330
2330
41B0
F3FC
ENDCHAR
STARTCHAR uni216B
ENCODING 8555
SWIDTH 1000 0
DWIDTH 16 0
BBX 15 13 0 0
BITMAP
F7FE
62CC
34CC
34CC
34CC
18CC
18CC
18CC
2CCC
2CCC
2CCC
46CC
EFFE
ENDCHAR
STARTCHAR uni216C
ENCODING 8556
SWIDTH 1000 0
DWIDTH 16 0
BBX 10 13 2 0
BITMAP
FC00
3000
3000
3000
3000
3000
3000
3000
3000
3040
3040
30C0
FFC0
ENDCHAR
STARTCHAR uni216D
ENCODING 8557
SWIDTH 1000 0
DWIDTH 16 0
BBX 10 13 3 0
BITMAP
1E40
31C0
60C0
6040
C040
C000
C000
C000
C040
6040
6080
3180
1F00
ENDCHAR
STARTCHAR uni216E
ENCODING 8558
SWIDTH 1000 0
DWIDTH 16 0
BBX 12 13 2 0
BITMAP
FF00
30C0
3060
3060
3030
3030
3030
3030
3030
3060
3060
30C0
FF00
ENDCHAR
STARTCHAR uni216F
ENCODING 8559
SWIDTH 1000 0
DWIDTH 16 0
BBX 15 13 0 0
BITMAP
F01E
3818
3838
3838
2C38
2C58
2C58
2658
2698
2698
2398
2318
FB7E
ENDCHAR
STARTCHAR uni2170
ENCODING 8560
SWIDTH 1000 0
DWIDTH 16 0
BBX 6 13 5 0
BITMAP
30
30
00
00
F0
30
30
30
30
30
30
30
FC
ENDCHAR
STARTCHAR uni2171
ENCODING 8561
SWIDTH 1000 0
DWIDTH 16 0
BBX 12 13 2 0
BITMAP
30C0
30C0
0000
0000
F3C0
30C0
30C0
30C0
30C0
30C0
30C0
30C0
FFF0
ENDCHAR
STARTCHAR uni2172
ENCODING 8562
SWIDTH 1000 0
DWIDTH 16 0
BBX 15 13 0 0
BITMAP
318C
318C
0000
0000
F7BC
318C
318C
318C
318C
318C
318C
318C
FFFE
ENDCHAR
STARTCHAR uni2173
ENCODING 8563
SWIDTH 1000 0
DWIDTH 16 0
BBX 15 13 0 0
BITMAP
3000
3000
0000
0000
FFDE
3308
3308
3190
3190
30A0
30E0
3040
FC40
ENDCHAR
STARTCHAR uni2174
ENCODING 8564
SWIDTH 1000 0
DWIDTH 16 0
BBX 11 9 2 0
BITMAP
FDE0
3080
3080
1900
1900
0A00
0E00
0400
0400
ENDCHAR
STARTCHAR uni2175
ENCODING 8565
SWIDTH 1000 0
DWIDTH 16 0
BBX 15 13 0 0
BITMAP
0018
0018
0000
0000
FDF8
3098
3098
1918
1918
0A18
0E18
0418
047E
ENDCHAR
STARTCHAR uni2176
ENCODING 8566
SWIDTH 1000 0
DWIDTH 16 0
BBX 15 13 0 0
BITMAP
00CC
00CC
0000
0000
F7DC
62CC
62CC
36CC
34CC
1CCC
18CC
08CC
09FE
ENDCHAR
STARTCHAR uni2177
ENCODING 8567
SWIDTH 1000 0
DWIDTH 16 0
BBX 15 13 0 0
BITMAP
036C
036C
0000
0000
EFFC
476C
476C
6B6C
2B6C
2B6C
336C
136C
17FE
ENDCHAR
STARTCHAR uni2178
ENCODING 8568
SWIDTH 1000 0
DWIDTH 16 0
BBX 15 13 0 0
BITMAP
3000
3000
0000
0000
FF9E
3308
3190
30E0
3040
30E0
3130
3218
FF3E
ENDCHAR
STARTCHAR uni2179
ENCODING 8569
SWIDTH 1000 0
DWIDTH 16 0
BBX 11 9 2 0
BITMAP
F9E0
3080
1900
0E00
0400
0E00
1300
2180
F3E0
ENDCHAR
STARTCHAR uni217A
ENCODING 8570
SWIDTH 1000 0
DWIDTH 16 0
BBX 15 13 0 0
BITMAP
0018
0018
0000
0000
F9F8
3098
1918
0E18
0418
0E18
1318
2198
F3FE
ENDCHAR
STARTCHAR uni217B
ENCODING 8571
SWIDTH 1000 0
DWIDTH 16 0
BBX 15 13 0 0
BITMAP
006C
006C
0000
0000
F3FC
616C
326C
1C6C
086C
1C6C
266C
436C
E7FE
ENDCHAR
STARTCHAR uni217C
ENCODING 8572
SWIDTH 1000 0
DWIDTH 16 0
BBX 6 13 5 0
BITMAP
F0
30
30
30
30
30
30
30
30
30
30
30
FC
ENDCHAR
STARTCHAR uni217D
ENCODING 8573
SWIDTH 1000 0
DWIDTH 16 0
BBX 7 9 4 0
BITMAP
38
66
C6
C0
C0
C0
C2
64
38
ENDCHAR
STARTCHAR uni217E
ENCODING 8574
SWIDTH 1000 0
DWIDTH 16 0
BBX 10 13 3 0
BITMAP
0F00
0300
0300
0300
3B00
6700
C300
C300
C300
C300
C300
6700
3BC0
ENDCHAR
STARTCHAR uni217F
ENCODING 8575
SWIDTH 1000 0
DWIDTH 16 0
BBX 14 9 1 0
BITMAP
EEE0
7730
6318
6318
6318
6318
6318
6318
F7BC
ENDCHAR
STARTCHAR uni218A
ENCODING 8586
SWIDTH 500 0
DWIDTH 8 0
BBX 7 13 0 0
BITMAP
7E
FE
04
04
08
10
20
60
C0
C0
C2
6C
38
ENDCHAR
STARTCHAR uni218B
ENCODING 8587
SWIDTH 500 0
DWIDTH 8 0
BBX 7 13 0 0
BITMAP
3C
66
C6
C0
C0
C0
60
78
C0
C0
C0
64
3C
ENDCHAR
STARTCHAR arrowleft
ENCODING 8592
SWIDTH 1000 0
DWIDTH 16 0
BBX 15 7 0 3
BITMAP
1000
2000
4000
FFFE
4000
2000
1000
ENDCHAR
STARTCHAR arrowup
ENCODING 8593
SWIDTH 1000 0
DWIDTH 16 0
BBX 7 16 4 -2
BITMAP
10
38
54
92
10
10
10
10
10
10
10
10
10
10
10
10
ENDCHAR
STARTCHAR arrowright
ENCODING 8594
SWIDTH 1000 0
DWIDTH 16 0
BBX 15 7 0 3
BITMAP
0010
0008
0004
FFFE
0004
0008
0010
ENDCHAR
STARTCHAR arrowdown
ENCODING 8595
SWIDTH 1000 0
DWIDTH 16 0
BBX 7 16 4 -2
BITMAP
10
10
10
10
10
10
10
10
10
10
10
10
92
54
38
10
ENDCHAR
STARTCHAR arrowboth
ENCODING 8596
SWIDTH 1000 0
DWIDTH 16 0
BBX 15 7 0 3
BITMAP
1010
2008
4004
FFFE
4004
2008
1010
ENDCHAR
STARTCHAR arrowupdn
ENCODING 8597
SWIDTH 1000 0
DWIDTH 16 0
BBX 7 16 4 -2
BITMAP
10
38
54
92
10
10
10
10
10
10
10
10
92
54
38
10
ENDCHAR
STARTCHAR uni2196
ENCODING 8598
SWIDTH 1000 0
DWIDTH 16 0
BBX 14 14 1 -1
BITMAP
F800
C000
A000
9000
8800
0400
0200
0100
0080
0040
0020
0010
0008
0004
ENDCHAR
STARTCHAR uni2197
ENCODING 8599
SWIDTH 1000 0
DWIDTH 16 0
BBX 14 14 1 -1
BITMAP
007C
000C
0014
0024
0044
0080
0100
0200
0400
0800
1000
2000
4000
8000
ENDCHAR
STARTCHAR uni2198
ENCODING 8600
SWIDTH 1000 0
DWIDTH 16 0
BBX 14 14 1 -1
BITMAP
8000
4000
2000
1000
0800
0400
0200
0100
0080
0044
0024
0014
000C
007C
ENDCHAR
STARTCHAR uni2199
ENCODING 8601
SWIDTH 1000 0
DWIDTH 16 0
BBX 14 14 1 -1
BITMAP
0004
0008
0010
0020
0040
0080
0100
0200
0400
8800
9000
A000
C000
F800
ENDCHAR
STARTCHAR arrowupdnbse
ENCODING 8616
SWIDTH 1000 0
DWIDTH 16 0
BBX 7 16 4 -2
BITMAP
10
38
54
92
10
10
10
10
10
10
10
92
54
38
10
FE
ENDCHAR
STARTCHAR arrowdblright
ENCODING 8658
SWIDTH 1000 0
DWIDTH 16 0
BBX 13 9 1 2
BITMAP
0080
0040
FFE0
0010
0008
0010
FFE0
0040
0080
ENDCHAR
STARTCHAR arrowdblboth
ENCODING 8660
SWIDTH 1000 0
DWIDTH 16 0
BBX 14 9 0 2
BITMAP
0840
1020
3FF0
4008
8004
4008
3FF0
1020
0840
ENDCHAR
STARTCHAR universal
ENCODING 8704
SWIDTH 1000 0
DWIDTH 16 0
BBX 11 14 2 -1
BITMAP
8020
8020
4040
4040
7FC0
2080
2080
1100
1100
1100
0A00
0A00
0400
0400
ENDCHAR
STARTCHAR partialdiff
ENCODING 8706
SWIDTH 1000 0
DWIDTH 16 0
BBX 9 14 2 -1
BITMAP
0600
0F00
1180
0080
0080
0180
1D80
2300
6300
C300
C600
C600
4C00
3800
ENDCHAR
STARTCHAR existential
ENCODING 8707
SWIDTH 1000 0
DWIDTH 16 0
BBX 11 11 2 1
BITMAP
FFE0
0020
0020
0020
0020
FFE0
0020
0020
0020
0020
FFE0
ENDCHAR
STARTCHAR gradient
ENCODING 8711
SWIDTH 1000 0
DWIDTH 16 0
BBX 11 11 2 0
BITMAP
FFE0
7FC0
6040
2080
3080
1100
1900
0A00
0E00
0400
0400
ENDCHAR
STARTCHAR element
ENCODING 8712
SWIDTH 1000 0
DWIDTH 16 0
BBX 11 9 2 2
BITMAP
3FE0
4000
8000
8000
FFE0
8000
8000
4000
3FE0
ENDCHAR
STARTCHAR suchthat
ENCODING 8715
SWIDTH 1000 0
DWIDTH 16 0
BBX 11 9 2 2
BITMAP
FF80
0040
0020
0020
FFE0
0020
0020
0040
FF80
ENDCHAR
STARTCHAR product
ENCODING 8719
SWIDTH 1000 0
DWIDTH 16 0
BBX 10 12 2 0
BITMAP
FFC0
6180
6180
6180
6180
6180
6180
6180
6180
6180
6180
F3C0
ENDCHAR
STARTCHAR summation
ENCODING 8721
SWIDTH 1000 0
DWIDTH 16 0
BBX 11 12 2 0
BITMAP
FFC0
6040
3020
1800
0C00
0600
0C00
1800
3000
6020
C040
FFC0
ENDCHAR
STARTCHAR minus
ENCODING 8722
SWIDTH 1000 0
DWIDTH 16 0
BBX 11 1 2 6
BITMAP
FFE0
ENDCHAR
STARTCHAR uni2219
ENCODING 8729
SWIDTH 500 0
DWIDTH 8 0
BBX 3 3 2 4
BITMAP
40
E0
40
ENDCHAR
STARTCHAR radical
ENCODING 8730
SWIDTH 1000 0
DWIDTH 16 0
BBX 13 15 0 -1
BITMAP
00F8
0080
0080
0100
0100
0100
0100
4200
4200
6200
A400
1400
1400
0800
0800
ENDCHAR
STARTCHAR proportional
ENCODING 8733
SWIDTH 1000 0
DWIDTH 16 0
BBX 12 7 1 3
BITMAP
38E0
4510
8500
8200
8500
4510
38E0
ENDCHAR
STARTCHAR infinity
ENCODING 8734
SWIDTH 1000 0
DWIDTH 16 0
BBX 13 7 1 3
BITMAP
38E0
4510
8208
8208
8208
4510
38E0
ENDCHAR
STARTCHAR orthogonal
ENCODING 8735
SWIDTH 1000 0
DWIDTH 16 0
BBX 12 12 2 1
BITMAP
8000
8000
8000
8000
8000
8000
8000
8000
8000
8000
8000
FFF0
ENDCHAR
STARTCHAR angle
ENCODING 8736
SWIDTH 1000 0
DWIDTH 16 0
BBX 12 11 2 1
BITMAP
0020
0040
0080
0100
0200
0400
0800
1000
2000
4000
FFF0
ENDCHAR
STARTCHAR uni2225
ENCODING 8741
SWIDTH 1000 0
DWIDTH 16 0
BBX 5 12 5 1
BITMAP
88
88
88
88
88
88
88
88
88
88
88
88
ENDCHAR
STARTCHAR logicaland
ENCODING 8743
SWIDTH 1000 0
DWIDTH 16 0
BBX 13 14 1 -2
BITMAP
0200
0200
0500
0500
0880
0880
1040
1040
2020
2020
4010
4010
8008
8008
ENDCHAR
STARTCHAR logicalor
ENCODING 8744
SWIDTH 1000 0
DWIDTH 16 0
BBX 13 14 1 0
BITMAP
8008
8008
4010
4010
2020
2020
1040
1040
0880
0880
0500
0500
0200
0200
ENDCHAR
STARTCHAR intersection
ENCODING 8745
SWIDTH 1000 0
DWIDTH 16 0
BBX 9 14 3 -1
BITMAP
1C00
2200
4100
8080
8080
8080
8080
8080
8080
8080
8080
8080
8080
8080
ENDCHAR
STARTCHAR union
ENCODING 8746
SWIDTH 1000 0
DWIDTH 16 0
BBX 9 14 3 -1
BITMAP
8080
8080
8080
8080
8080
8080
8080
8080
8080
8080
8080
4100
2200
1C00
ENDCHAR
STARTCHAR integral
ENCODING 8747
SWIDTH 1000 0
DWIDTH 16 0
BBX 4 16 6 -2
BITMAP
60
90
B0
80
80
40
40
40
20
20
20
10
10
D0
90
60
ENDCHAR
STARTCHAR uni222C
ENCODING 8748
SWIDTH 1000 0
DWIDTH 16 0
BBX 9 16 3 -2
BITMAP
6300
B580
B580
8400
C600
C600
4200
6300
6300
2100
3180
3180
1080
D680
D680
6300
ENDCHAR
STARTCHAR uni222E
ENCODING 8750
SWIDTH 1000 0
DWIDTH 16 0
BBX 6 16 5 -2
BITMAP
30
48
58
40
40
78
A4
A4
94
78
10
08
08
68
48
30
ENDCHAR
STARTCHAR therefore
ENCODING 8756
SWIDTH 1000 0
DWIDTH 16 0
BBX 11 10 2 1
BITMAP
0400
0E00
0400
0000
0000
0000
0000
4040
E0E0
4040
ENDCHAR
STARTCHAR uni2235
ENCODING 8757
SWIDTH 1000 0
DWIDTH 16 0
BBX 11 10 2 1
BITMAP
4040
E0E0
4040
0000
0000
0000
0000
0400
0E00
0400
ENDCHAR
STARTCHAR uni2236
ENCODING 8758
SWIDTH 1000 0
DWIDTH 16 0
BBX 3 11 6 1
BITMAP
40
E0
40
00
00
00
00
00
40
E0
40
ENDCHAR
STARTCHAR uni2237
ENCODING 8759
SWIDTH 1000 0
DWIDTH 16 0
BBX 11 11 2 1
BITMAP
4040
E0E0
4040
0000
0000
0000
0000
0000
4040
E0E0
4040
ENDCHAR
STARTCHAR uni223D
ENCODING 8765
SWIDTH 1000 0
DWIDTH 16 0
BBX 13 7 1 3
BITMAP
38E0
4510
8108
8208
8408
4510
38E0
ENDCHAR
STARTCHAR approxequal
ENCODING 8776
SWIDTH 1000 0
DWIDTH 16 0
BBX 11 7 2 3
BITMAP
3820
4440
8380
0000
3820
4440
8380
ENDCHAR
STARTCHAR uni224C
ENCODING 8780
SWIDTH 1000 0
DWIDTH 16 0
BBX 11 8 2 3
BITMAP
8380
4440
3820
0000
FFE0
0000
0000
FFE0
ENDCHAR
STARTCHAR uni2252
ENCODING 8786
SWIDTH 1000 0
DWIDTH 16 0
BBX 11 14 2 -1
BITMAP
2000
7000
2000
0000
0000
FFE0
0000
0000
FFE0
0000
0000
0080
01C0
0080
ENDCHAR
STARTCHAR notequal
ENCODING 8800
SWIDTH 1000 0
DWIDTH 16 0
BBX 11 12 2 0
BITMAP
0100
0100
0200
0200
FFE0
0400
0400
FFE0
0800
0800
1000
1000
ENDCHAR
STARTCHAR equivalence
ENCODING 8801
SWIDTH 1000 0
DWIDTH 16 0
BBX 11 7 2 3
BITMAP
FFE0
0000
0000
FFE0
0000
0000
FFE0
ENDCHAR
STARTCHAR lessequal
ENCODING 8804
SWIDTH 1000 0
DWIDTH 16 0
BBX 12 13 1 0
BITMAP
0030
00C0
0300
0C00
3000
C000
3000
0C00
0300
00C0
0030
0000
FFF0
ENDCHAR
STARTCHAR greaterequal
ENCODING 8805
SWIDTH 1000 0
DWIDTH 16 0
BBX 12 13 2 0
BITMAP
C000
3000
0C00
0300
00C0
0030
00C0
0300
0C00
3000
C000
0000
FFF0
ENDCHAR
STARTCHAR uni2266
ENCODING 8806
SWIDTH 1000 0
DWIDTH 16 0
BBX 11 13 2 0
BITMAP
0060
0380
0C00
3000
C000
3000
0C00
0380
0060
0000
FFE0
0000
FFE0
ENDCHAR
STARTCHAR uni2267
ENCODING 8807
SWIDTH 1000 0
DWIDTH 16 0
BBX 11 13 2 0
BITMAP
C000
3800
0600
0180
0060
0180
0600
3800
C000
0000
FFE0
0000
FFE0
ENDCHAR
STARTCHAR uni226A
ENCODING 8810
SWIDTH 1000 0
DWIDTH 16 0
BBX 14 15 1 -1
BITMAP
0060
008C
0110
0660
0880
1100
6600
8800
6600
1100
0880
0660
0110
008C
0060
ENDCHAR
STARTCHAR uni226B
ENCODING 8811
SWIDTH 1000 0
DWIDTH 16 0
BBX 14 15 1 -1
BITMAP
1800
C400
2200
1980
0440
0220
0198
0044
0198
0220
0440
1980
2200
C400
1800
ENDCHAR
STARTCHAR uni226E
ENCODING 8814
SWIDTH 1000 0
DWIDTH 16 0
BBX 12 11 1 1
BITMAP
0130
01C0
0300
0E00
3200
C200
3400
0C00
0700
08C0
0830
ENDCHAR
STARTCHAR uni226F
ENCODING 8815
SWIDTH 1000 0
DWIDTH 16 0
BBX 12 11 2 1
BITMAP
C800
3800
0C00
0700
04C0
0430
02C0
0300
0E00
3100
C100
ENDCHAR
STARTCHAR propersubset
ENCODING 8834
SWIDTH 1000 0
DWIDTH 16 0
BBX 11 9 2 2
BITMAP
3FE0
4000
8000
8000
8000
8000
8000
4000
3FE0
ENDCHAR
STARTCHAR propersuperset
ENCODING 8835
SWIDTH 1000 0
DWIDTH 16 0
BBX 11 9 2 2
BITMAP
FF80
0040
0020
0020
0020
0020
0020
0040
FF80
ENDCHAR
STARTCHAR reflexsubset
ENCODING 8838
SWIDTH 1000 0
DWIDTH 16 0
BBX 11 11 2 1
BITMAP
3FE0
4000
8000
8000
8000
8000
4000
3FE0
0000
0000
FFE0
ENDCHAR
STARTCHAR reflexsuperset
ENCODING 8839
SWIDTH 1000 0
DWIDTH 16 0
BBX 11 11 2 1
BITMAP
FF80
0040
0020
0020
0020
0020
0040
FF80
0000
0000
FFE0
ENDCHAR
STARTCHAR uni2299
ENCODING 8857
SWIDTH 1000 0
DWIDTH 16 0
BBX 9 9 3 2
BITMAP
1C00
6300
4100
8080
8880
8080
4100
6300
1C00
ENDCHAR
STARTCHAR perpendicular
ENCODING 8869
SWIDTH 1000 0
DWIDTH 16 0
BBX 13 12 1 1
BITMAP
0200
0200
0200
0200
0200
0200
0200
0200
0200
0200
0200
FFF8
ENDCHAR
STARTCHAR uni22BF
ENCODING 8895
SWIDTH 1000 0
DWIDTH 16 0
BBX 11 11 2 1
BITMAP
0020
0060
00A0
0120
0220
0420
0820
1020
2020
4020
FFE0
ENDCHAR
STARTCHAR house
ENCODING 8962
SWIDTH 1000 0
DWIDTH 16 0
BBX 11 11 2 1
BITMAP
0400
0A00
1100
2080
4040
8020
8020
8020
8020
8020
FFE0
ENDCHAR
STARTCHAR revlogicalnot
ENCODING 8976
SWIDTH 1000 0
DWIDTH 16 0
BBX 11 5 2 3
BITMAP
FFE0
8000
8000
8000
8000
ENDCHAR
STARTCHAR uni2312
ENCODING 8978
SWIDTH 1000 0
DWIDTH 16 0
BBX 13 4 1 8
BITMAP
0F80
3FE0
6030
8008
ENDCHAR
STARTCHAR integraltp
ENCODING 8992
SWIDTH 1000 0
DWIDTH 16 0
BBX 5 16 7 -2
BITMAP
30
58
D8
C0
C0
C0
C0
C0
C0
C0
C0
C0
C0
C0
C0
C0
ENDCHAR
STARTCHAR integralbt
ENCODING 8993
SWIDTH 1000 0
DWIDTH 16 0
BBX 5 16 4 -2
BITMAP
18
18
18
18
18
18
18
18
18
18
18
18
18
D8
D0
60
ENDCHAR
STARTCHAR uni2460
ENCODING 9312
SWIDTH 1000 0
DWIDTH 16 0
BBX 15 16 0 -2
BITMAP
07C0
1830
2108
4104
4704
8102
8102
8102
8102
8102
8102
4104
47C4
2008
1830
07C0
ENDCHAR
STARTCHAR uni2461
ENCODING 9313
SWIDTH 1000 0
DWIDTH 16 0
BBX 15 16 0 -2
BITMAP
07C0
1830
2008
4784
4844
8842
8042
8082
8102
8202
8442
4844
4FC4
2008
1830
07C0
ENDCHAR
STARTCHAR uni2462
ENCODING 9314
SWIDTH 1000 0
DWIDTH 16 0
BBX 15 16 0 -2
BITMAP
07C0
1830
2008
4784
4844
8842
8042
8382
8042
8042
8842
4844
4784
2008
1830
07C0
ENDCHAR
STARTCHAR uni2463
ENCODING 9315
SWIDTH 1000 0
DWIDTH 16 0
BBX 15 16 0 -2
BITMAP
07C0
1830
2008
4084
4184
8282
8282
8482
8882
9FE2
8082
4084
43C4
2008
1830
07C0
ENDCHAR
STARTCHAR uni2464
ENCODING 9316
SWIDTH 1000 0
DWIDTH 16 0
BBX 15 16 0 -2
BITMAP
07C0
1830
2008
4FC4
4804
8802
8802
8F82
8842
8042
8842
4844
4784
2008
1830
07C0
ENDCHAR
STARTCHAR uni2465
ENCODING 9317
SWIDTH 1000 0
DWIDTH 16 0
BBX 15 16 0 -2
BITMAP
07C0
1830
2008
4784
4844
8842
8802
8F82
8842
8842
8842
4844
4784
2008
1830
07C0
ENDCHAR
STARTCHAR uni2466
ENCODING 9318
SWIDTH 1000 0
DWIDTH 16 0
BBX 15 16 0 -2
BITMAP
07C0
1830
2008
4FC4
4844
8842
8082
8082
8102
8102
8202
4204
4204
2008
1830
07C0
ENDCHAR
STARTCHAR uni2467
ENCODING 9319
SWIDTH 1000 0
DWIDTH 16 0
BBX 15 16 0 -2
BITMAP
07C0
1830
2008
4784
4844
8842
8842
8782
8842
8842
8842
4844
4784
2008
1830
07C0
ENDCHAR
STARTCHAR uni2468
ENCODING 9320
SWIDTH 1000 0
DWIDTH 16 0
BBX 15 16 0 -2
BITMAP
07C0
1830
2008
4784
4844
8842
8842
8842
87C2
8042
8842
4844
4784
2008
1830
07C0
ENDCHAR
STARTCHAR uni2469
ENCODING 9321
SWIDTH 1000 0
DWIDTH 16 0
BBX 15 16 0 -2
BITMAP
07C0
1830
2008
48E4
5914
8912
8912
8912
8912
8912
8912
4914
5CE4
2008
1830
07C0
ENDCHAR
STARTCHAR uni246A
ENCODING 9322
SWIDTH 1000 0
DWIDTH 16 0
BBX 15 16 0 -2
BITMAP
07C0
1830
2008
4444
4CC4
8442
8442
8442
8442
8442
8442
4444
4EE4
2008
1830
07C0
ENDCHAR
STARTCHAR uni246B
ENCODING 9323
SWIDTH 1000 0
DWIDTH 16 0
BBX 15 16 0 -2
BITMAP
07C0
1830
2008
48E4
5914
8912
8812
8822
8842
8882
8902
4914
5DF4
2008
1830
07C0
ENDCHAR
STARTCHAR uni246C
ENCODING 9324
SWIDTH 1000 0
DWIDTH 16 0
BBX 15 16 0 -2
BITMAP
07C0
1830
2008
48E4
5914
8912
8812
8862
8812
8812
8912
4914
5CE4
2008
1830
07C0
ENDCHAR
STARTCHAR uni246D
ENCODING 9325
SWIDTH 1000 0
DWIDTH 16 0
BBX 15 16 0 -2
BITMAP
07C0
1830
2008
4824
5864
88A2
88A2
8922
8A22
8BF2
8822
4824
5CF4
2008
1830
07C0
ENDCHAR
STARTCHAR uni246E
ENCODING 9326
SWIDTH 1000 0
DWIDTH 16 0
BBX 15 16 0 -2
BITMAP
07C0
1830
2008
49E4
5904
8902
8902
89E2
8912
8812
8912
4914
5CE4
2008
1830
07C0
ENDCHAR
STARTCHAR uni246F
ENCODING 9327
SWIDTH 1000 0
DWIDTH 16 0
BBX 15 16 0 -2
BITMAP
07C0
1830
2008
48E4
5914
8912
8902
89E2
8912
8912
8912
4914
5CE4
2008
1830
07C0
ENDCHAR
STARTCHAR uni2470
ENCODING 9328
SWIDTH 1000 0
DWIDTH 16 0
BBX 15 16 0 -2
BITMAP
07C0
1830
2008
49F4
5914
8912
8822
8822
8842
8842
8882
4884
5C84
2008
1830
07C0
ENDCHAR
STARTCHAR uni2471
ENCODING 9329
SWIDTH 1000 0
DWIDTH 16 0
BBX 15 16 0 -2
BITMAP
07C0
1830
2008
48E4
5914
8912
8912
88E2
8912
8912
8912
4914
5CE4
2008
1830
07C0
ENDCHAR
STARTCHAR uni2472
ENCODING 9330
SWIDTH 1000 0
DWIDTH 16 0
BBX 15 16 0 -2
BITMAP
07C0
1830
2008
48E4
5914
8912
8912
8912
88F2
8812
8912
4914
5CE4
2008
1830
07C0
ENDCHAR
STARTCHAR uni2473
ENCODING 9331
SWIDTH 1000 0
DWIDTH 16 0
BBX 15 16 0 -2
BITMAP
07C0
1830
2008
4C64
5294
9292
8292
8292
8492
8892
9092
5294
5E64
2008
1830
07C0
ENDCHAR
STARTCHAR uni2474
ENCODING 9332
SWIDTH 937 0
DWIDTH 15 0
BBX 15 15 0 -1
BITMAP
1010
2088
4184
4784
8182
8182
8182
8182
8182
8182
8182
4184
4184
27E8
1010
ENDCHAR
STARTCHAR uni2475
ENCODING 9333
SWIDTH 937 0
DWIDTH 15 0
BBX 15 15 0 -1
BITMAP
1010
2388
46C4
4864
8062
8062
80C2
8082
8102
8202
8402
4404
4FE4
2FC8
1010
ENDCHAR
STARTCHAR uni2476
ENCODING 9334
SWIDTH 937 0
DWIDTH 15 0
BBX 15 15 0 -1
BITMAP
1010
2788
44C4
4064
8062
8062
83C2
80C2
8062
8062
8062
4C64
4CC4
2788
1010
ENDCHAR
STARTCHAR uni2477
ENCODING 9335
SWIDTH 937 0
DWIDTH 15 0
BBX 15 15 0 -1
BITMAP
1010
20C8
40C4
41C4
81C2
82C2
82C2
84C2
84C2
8FE2
8FE2
40C4
40C4
20C8
1010
ENDCHAR
STARTCHAR uni2478
ENCODING 9336
SWIDTH 937 0
DWIDTH 15 0
BBX 15 15 0 -1
BITMAP
1010
27C8
47C4
4404
8402
8802
8F82
89C2
8062
8062
8022
4864
4C44
2788
1010
ENDCHAR
STARTCHAR uni2479
ENCODING 9337
SWIDTH 937 0
DWIDTH 15 0
BBX 15 15 0 -1
BITMAP
1010
2188
4304
4604
8602
8C02
8F82
8C42
8C62
8C62
8C62
4C64
4444
2388
1010
ENDCHAR
STARTCHAR uni247A
ENCODING 9338
SWIDTH 937 0
DWIDTH 15 0
BBX 15 15 0 -1
BITMAP
1010
27E8
4FE4
4824
8022
8042
8042
80C2
8082
8182
8182
4304
4304
2308
1010
ENDCHAR
STARTCHAR uni247B
ENCODING 9339
SWIDTH 937 0
DWIDTH 15 0
BBX 15 15 0 -1
BITMAP
1010
2388
4444
4C64
8C62
8C62
86C2
87C2
8C62
8C62
8C62
4C64
4444
2388
1010
ENDCHAR
STARTCHAR uni247C
ENCODING 9340
SWIDTH 937 0
DWIDTH 15 0
BBX 15 15 0 -1
BITMAP
1010
2388
4444
4C64
8C62
8C62
8C62
8462
83E2
8062
80C2
40C4
4184
2308
1010
ENDCHAR
STARTCHAR uni247D
ENCODING 9341
SWIDTH 937 0
DWIDTH 15 0
BBX 15 15 0 -1
BITMAP
1010
2868
5894
7894
999A
999A
999A
999A
999A
999A
999A
5894
5894
3E68
1010
ENDCHAR
STARTCHAR uni247E
ENCODING 9342
SWIDTH 937 0
DWIDTH 15 0
BBX 15 15 0 -1
BITMAP
1010
2828
5864
79E4
9862
9862
9862
9862
9862
9862
9862
5864
5864
3DF8
1010
ENDCHAR
STARTCHAR uni247F
ENCODING 9343
SWIDTH 937 0
DWIDTH 15 0
BBX 15 15 0 -1
BITMAP
1010
28E8
58B4
791C
991A
981A
9832
9822
9862
9842
9882
5884
59FC
3DF8
1010
ENDCHAR
STARTCHAR uni2480
ENCODING 9344
SWIDTH 937 0
DWIDTH 15 0
BBX 15 15 0 -1
BITMAP
1010
29E8
5934
781C
981A
981A
98F2
9832
981A
981A
981A
599C
59B4
3EE8
1010
ENDCHAR
STARTCHAR uni2481
ENCODING 9345
SWIDTH 937 0
DWIDTH 15 0
BBX 15 15 0 -1
BITMAP
1010
2838
5834
7874
9872
98B2
98B2
9932
9932
9BFA
9BFA
5834
5834
3E38
1010
ENDCHAR
STARTCHAR uni2482
ENCODING 9346
SWIDTH 937 0
DWIDTH 15 0
BBX 15 15 0 -1
BITMAP
1010
28F8
58F4
7884
9882
9902
99E2
9972
981A
981A
980A
591C
5994
3EE8
1010
ENDCHAR
STARTCHAR uni2483
ENCODING 9347
SWIDTH 937 0
DWIDTH 15 0
BBX 15 15 0 -1
BITMAP
1010
2838
5864
78C4
98C2
9982
99E2
9992
999A
999A
999A
599C
5894
3E68
1010
ENDCHAR
STARTCHAR uni2484
ENCODING 9348
SWIDTH 937 0
DWIDTH 15 0
BBX 15 15 0 -1
BITMAP
1010
29F8
5BFC
7A0C
980A
9812
9812
9832
9822
9862
9862
58C4
58C4
3EC8
1010
ENDCHAR
STARTCHAR uni2485
ENCODING 9349
SWIDTH 937 0
DWIDTH 15 0
BBX 15 15 0 -1
BITMAP
1010
28E8
5914
7B1C
9B1A
9B1A
99B2
99F2
9B1A
9B1A
9B1A
5B1C
5914
3EE8
1010
ENDCHAR
STARTCHAR uni2486
ENCODING 9350
SWIDTH 937 0
DWIDTH 15 0
BBX 15 15 0 -1
BITMAP
1010
28E8
5914
7B1C
9B1A
9B1A
9B1A
991A
98FA
981A
9832
5834
5864
3EC8
1010
ENDCHAR
STARTCHAR uni2487
ENCODING 9351
SWIDTH 937 0
DWIDTH 15 0
BBX 15 15 0 -1
BITMAP
1010
3868
6C94
4694
C79A
879A
8D9A
899A
999A
919A
A19A
6094
7E94
3C68
1010
ENDCHAR
STARTCHAR uni2488
ENCODING 9352
SWIDTH 937 0
DWIDTH 15 0
BBX 10 13 4 0
BITMAP
1000
3000
F000
3000
3000
3000
3000
3000
3000
3000
3000
30C0
FCC0
ENDCHAR
STARTCHAR uni2489
ENCODING 9353
SWIDTH 937 0
DWIDTH 15 0
BBX 11 13 3 0
BITMAP
3800
6C00
8600
0600
0600
0C00
0800
1000
2000
4000
4000
FE60
FC60
ENDCHAR
STARTCHAR uni248A
ENCODING 9354
SWIDTH 937 0
DWIDTH 15 0
BBX 11 13 3 0
BITMAP
7800
4C00
0600
0600
0600
3C00
0C00
0600
0600
0600
C600
CC60
7860
ENDCHAR
STARTCHAR uni248B
ENCODING 9355
SWIDTH 937 0
DWIDTH 15 0
BBX 11 13 3 0
BITMAP
0C00
0C00
1C00
1C00
2C00
2C00
4C00
4C00
FE00
FE00
0C00
0C60
0C60
ENDCHAR
STARTCHAR uni248C
ENCODING 9356
SWIDTH 937 0
DWIDTH 15 0
BBX 11 13 3 0
BITMAP
7C00
7C00
4000
4000
8000
F800
9C00
0600
0600
0200
8600
C460
7860
ENDCHAR
STARTCHAR uni248D
ENCODING 9357
SWIDTH 937 0
DWIDTH 15 0
BBX 11 13 3 0
BITMAP
1800
3000
6000
6000
C000
F800
C400
C600
C600
C600
C600
4460
3860
ENDCHAR
STARTCHAR uni248E
ENCODING 9358
SWIDTH 937 0
DWIDTH 15 0
BBX 11 13 3 0
BITMAP
7E00
FE00
8200
0200
0400
0400
0C00
0800
1800
1800
3000
3060
3060
ENDCHAR
STARTCHAR uni248F
ENCODING 9359
SWIDTH 937 0
DWIDTH 15 0
BBX 11 13 3 0
BITMAP
3800
4400
C600
C600
C600
6C00
7C00
C600
C600
C600
C600
4460
3860
ENDCHAR
STARTCHAR uni2490
ENCODING 9360
SWIDTH 937 0
DWIDTH 15 0
BBX 11 13 3 0
BITMAP
3800
4400
C600
C600
C600
C600
4600
3E00
0600
0C00
0C00
1860
3060
ENDCHAR
STARTCHAR uni2491
ENCODING 9361
SWIDTH 937 0
DWIDTH 15 0
BBX 14 13 0 0
BITMAP
10C0
3120
F120
3330
3330
3330
3330
3330
3330
3330
3120
312C
FCCC
ENDCHAR
STARTCHAR uni2492
ENCODING 9362
SWIDTH 937 0
DWIDTH 15 0
BBX 14 13 0 0
BITMAP
1040
30C0
F3C0
30C0
30C0
30C0
30C0
30C0
30C0
30C0
30C0
30CC
FBEC
ENDCHAR
STARTCHAR uni2493
ENCODING 9363
SWIDTH 937 0
DWIDTH 15 0
BBX 14 13 0 0
BITMAP
11C0
3160
F230
3230
3030
3060
3040
30C0
3080
3100
3100
33FC
FBEC
ENDCHAR
STARTCHAR uni2494
ENCODING 9364
SWIDTH 937 0
DWIDTH 15 0
BBX 14 13 0 0
BITMAP
13C0
3260
F030
3030
3030
31E0
3060
3030
3030
3030
3330
336C
FDCC
ENDCHAR
STARTCHAR uni2495
ENCODING 9365
SWIDTH 937 0
DWIDTH 15 0
BBX 14 13 0 0
BITMAP
1060
3060
F0E0
30E0
3160
3160
3260
3260
37F0
37F0
3060
306C
FC6C
ENDCHAR
STARTCHAR uni2496
ENCODING 9366
SWIDTH 937 0
DWIDTH 15 0
BBX 14 13 0 0
BITMAP
11E0
31E0
F100
3100
3200
33C0
32E0
3030
3030
3010
3230
332C
FDCC
ENDCHAR
STARTCHAR uni2497
ENCODING 9367
SWIDTH 937 0
DWIDTH 15 0
BBX 14 13 0 0
BITMAP
1060
30C0
F180
3180
3300
33C0
3320
3330
3330
3330
3330
312C
FCCC
ENDCHAR
STARTCHAR uni2498
ENCODING 9368
SWIDTH 937 0
DWIDTH 15 0
BBX 14 13 0 0
BITMAP
13F0
37F0
F410
3010
3020
3020
3060
3040
30C0
30C0
3180
318C
FD8C
ENDCHAR
STARTCHAR uni2499
ENCODING 9369
SWIDTH 937 0
DWIDTH 15 0
BBX 14 13 0 0
BITMAP
11C0
3220
F630
3630
3630
3360
33E0
3630
3630
3630
3630
322C
FDCC
ENDCHAR
STARTCHAR uni249A
ENCODING 9370
SWIDTH 937 0
DWIDTH 15 0
BBX 14 13 0 0
BITMAP
11C0
3220
F630
3630
3630
3630
3230
31F0
3030
3060
3060
30CC
FD8C
ENDCHAR
STARTCHAR uni249B
ENCODING 9371
SWIDTH 937 0
DWIDTH 15 0
BBX 14 13 0 0
BITMAP
70C0
5920
8D20
8F30
0F30
1B30
1330
3330
2330
4330
4120
FD2C
F8CC
ENDCHAR
STARTCHAR SF100000
ENCODING 9472
SWIDTH 1000 0
DWIDTH 16 0
BBX 16 1 0 6
BITMAP
FFFF
ENDCHAR
STARTCHAR uni2501
ENCODING 9473
SWIDTH 1000 0
DWIDTH 16 0
BBX 16 2 0 5
BITMAP
FFFF
FFFF
ENDCHAR
STARTCHAR SF110000
ENCODING 9474
SWIDTH 1000 0
DWIDTH 16 0
BBX 1 16 7 -2
BITMAP
80
80
80
80
80
80
80
80
80
80
80
80
80
80
80
80
ENDCHAR
STARTCHAR uni2503
ENCODING 9475
SWIDTH 1000 0
DWIDTH 16 0
BBX 2 16 7 -2
BITMAP
C0
C0
C0
C0
C0
C0
C0
C0
C0
C0
C0
C0
C0
C0
C0
C0
ENDCHAR
STARTCHAR uni2504
ENCODING 9476
SWIDTH 1000 0
DWIDTH 16 0
BBX 13 1 1 6
BITMAP
E738
ENDCHAR
STARTCHAR uni2505
ENCODING 9477
SWIDTH 1000 0
DWIDTH 16 0
BBX 13 2 1 5
BITMAP
E738
E738
ENDCHAR
STARTCHAR uni2506
ENCODING 9478
SWIDTH 1000 0
DWIDTH 16 0
BBX 1 13 7 0
BITMAP
80
80
80
00
00
80
80
80
00
00
80
80
80
ENDCHAR
STARTCHAR uni2507
ENCODING 9479
SWIDTH 1000 0
DWIDTH 16 0
BBX 2 13 7 0
BITMAP
C0
C0
C0
00
00
C0
C0
C0
00
00
C0
C0
C0
ENDCHAR
STARTCHAR uni2508
ENCODING 9480
SWIDTH 1000 0
DWIDTH 16 0
BBX 15 1 0 6
BITMAP
EEEE
ENDCHAR
STARTCHAR uni2509
ENCODING 9481
SWIDTH 1000 0
DWIDTH 16 0
BBX 15 2 0 5
BITMAP
EEEE
EEEE
ENDCHAR
STARTCHAR uni250A
ENCODING 9482
SWIDTH 1000 0
DWIDTH 16 0
BBX 1 15 7 -1
BITMAP
80
80
80
00
80
80
80
00
80
80
80
00
80
80
80
ENDCHAR
STARTCHAR uni250B
ENCODING 9483
SWIDTH 1000 0
DWIDTH 16 0
BBX 2 15 7 -1
BITMAP
C0
C0
C0
00
C0
C0
C0
00
C0
C0
C0
00
C0
C0
C0
ENDCHAR
STARTCHAR SF010000
ENCODING 9484
SWIDTH 1000 0
DWIDTH 16 0
BBX 9 9 7 -2
BITMAP
FF80
8000
8000
8000
8000
8000
8000
8000
8000
ENDCHAR
STARTCHAR uni250D
ENCODING 9485
SWIDTH 1000 0
DWIDTH 16 0
BBX 9 9 7 -2
BITMAP
FF80
FF80
8000
8000
8000
8000
8000
8000
8000
ENDCHAR
STARTCHAR uni250E
ENCODING 9486
SWIDTH 1000 0
DWIDTH 16 0
BBX 9 9 7 -2
BITMAP
FF80
C000
C000
C000
C000
C000
C000
C000
C000
ENDCHAR
STARTCHAR uni250F
ENCODING 9487
SWIDTH 1000 0
DWIDTH 16 0
BBX 9 9 7 -2
BITMAP
FF80
FF80
C000
C000
C000
C000
C000
C000
C000
ENDCHAR
STARTCHAR SF030000
ENCODING 9488
SWIDTH 1000 0
DWIDTH 16 0
BBX 8 9 0 -2
BITMAP
FF
01
01
01
01
01
01
01
01
ENDCHAR
STARTCHAR uni2511
ENCODING 9489
SWIDTH 1000 0
DWIDTH 16 0
BBX 8 9 0 -2
BITMAP
FF
FF
01
01
01
01
01
01
01
ENDCHAR
STARTCHAR uni2512
ENCODING 9490
SWIDTH 1000 0
DWIDTH 16 0
BBX 9 9 0 -2
BITMAP
FF80
0180
0180
0180
0180
0180
0180
0180
0180
ENDCHAR
STARTCHAR uni2513
ENCODING 9491
SWIDTH 1000 0
DWIDTH 16 0
BBX 9 9 0 -2
BITMAP
FF80
FF80
0180
0180
0180
0180
0180
0180
0180
ENDCHAR
STARTCHAR SF020000
ENCODING 9492
SWIDTH 1000 0
DWIDTH 16 0
BBX 9 8 7 6
BITMAP
8000
8000
8000
8000
8000
8000
8000
FF80
ENDCHAR
STARTCHAR uni2515
ENCODING 9493
SWIDTH 1000 0
DWIDTH 16 0
BBX 9 9 7 5
BITMAP
8000
8000
8000
8000
8000
8000
8000
FF80
FF80
ENDCHAR
STARTCHAR uni2516
ENCODING 9494
SWIDTH 1000 0
DWIDTH 16 0
BBX 10 8 6 6
BITMAP
C000
C000
C000
C000
C000
C000
C000
FFC0
ENDCHAR
STARTCHAR uni2517
ENCODING 9495
SWIDTH 1000 0
DWIDTH 16 0
BBX 9 9 7 5
BITMAP
C000
C000
C000
C000
C000
C000
C000
FF80
FF80
ENDCHAR
STARTCHAR SF040000
ENCODING 9496
SWIDTH 1000 0
DWIDTH 16 0
BBX 8 8 0 6
BITMAP
01
01
01
01
01
01
01
FF
ENDCHAR
STARTCHAR uni2519
ENCODING 9497
SWIDTH 1000 0
DWIDTH 16 0
BBX 8 9 0 5
BITMAP
01
01
01
01
01
01
01
FF
FF
ENDCHAR
STARTCHAR uni251A
ENCODING 9498
SWIDTH 1000 0
DWIDTH 16 0
BBX 9 8 0 6
BITMAP
0180
0180
0180
0180
0180
0180
0180
FF80
ENDCHAR
STARTCHAR uni251B
ENCODING 9499
SWIDTH 1000 0
DWIDTH 16 0
BBX 9 9 0 5
BITMAP
0180
0180
0180
0180
0180
0180
0180
FF80
FF80
ENDCHAR
STARTCHAR SF080000
ENCODING 9500
SWIDTH 1000 0
DWIDTH 16 0
BBX 9 16 7 -2
BITMAP
8000
8000
8000
8000
8000
8000
8000
FF80
8000
8000
8000
8000
8000
8000
8000
8000
ENDCHAR
STARTCHAR uni251D
ENCODING 9501
SWIDTH 1000 0
DWIDTH 16 0
BBX 9 16 7 -2
BITMAP
8000
8000
8000
8000
8000
8000
8000
FF80
FF80
8000
8000
8000
8000
8000
8000
8000
ENDCHAR
STARTCHAR uni251E
ENCODING 9502
SWIDTH 1000 0
DWIDTH 16 0
BBX 9 16 7 -2
BITMAP
C000
C000
C000
C000
C000
C000
C000
FF80
8000
8000
8000
8000
8000
8000
8000
8000
ENDCHAR
STARTCHAR uni251F
ENCODING 9503
SWIDTH 1000 0
DWIDTH 16 0
BBX 9 16 7 -2
BITMAP
8000
8000
8000
8000
8000
8000
8000
FF80
C000
C000
C000
C000
C000
C000
C000
C000
ENDCHAR
STARTCHAR uni2520
ENCODING 9504
SWIDTH 1000 0
DWIDTH 16 0
BBX 9 16 7 -2
BITMAP
C000
C000
C000
C000
C000
C000
C000
FF80
C000
C000
C000
C000
C000
C000
C000
C000
ENDCHAR
STARTCHAR uni2521
ENCODING 9505
SWIDTH 1000 0
DWIDTH 16 0
BBX 9 16 7 -2
BITMAP
C000
C000
C000
C000
C000
C000
C000
FF80
FF80
8000
8000
8000
8000
8000
8000
8000
ENDCHAR
STARTCHAR uni2522
ENCODING 9506
SWIDTH 1000 0
DWIDTH 16 0
BBX 9 16 7 -2
BITMAP
8000
8000
8000
8000
8000
8000
8000
FF80
FF80
C000
C000
C000
C000
C000
C000
C000
ENDCHAR
STARTCHAR uni2523
ENCODING 9507
SWIDTH 1000 0
DWIDTH 16 0
BBX 9 16 7 -2
BITMAP
C000
C000
C000
C000
C000
C000
C000
FF80
FF80
C000
C000
C000
C000
C000
C000
C000
ENDCHAR
STARTCHAR SF090000
ENCODING 9508
SWIDTH 1000 0
DWIDTH 16 0
BBX 8 16 0 -2
BITMAP
01
01
01
01
01
01
01
FF
01
01
01
01
01
01
01
01
ENDCHAR
STARTCHAR uni2525
ENCODING 9509
SWIDTH 1000 0
DWIDTH 16 0
BBX 8 16 0 -2
BITMAP
01
01
01
01
01
01
01
FF
FF
01
01
01
01
01
01
01
ENDCHAR
STARTCHAR uni2526
ENCODING 9510
SWIDTH 1000 0
DWIDTH 16 0
BBX 9 16 0 -2
BITMAP
0180
0180
0180
0180
0180
0180
0180
FF80
0100
0100
0100
0100
0100
0100
0100
0100
ENDCHAR
STARTCHAR uni2527
ENCODING 9511
SWIDTH 1000 0
DWIDTH 16 0
BBX 9 16 0 -2
BITMAP
0100
0100
0100
0100
0100
0100
0100
FF80
0180
0180
0180
0180
0180
0180
0180
0180
ENDCHAR
STARTCHAR uni2528
ENCODING 9512
SWIDTH 1000 0
DWIDTH 16 0
BBX 9 16 0 -2
BITMAP
0180
0180
0180
0180
0180
0180
0180
FF80
0180
0180
0180
0180
0180
0180
0180
0180
ENDCHAR
STARTCHAR uni2529
ENCODING 9513
SWIDTH 1000 0
DWIDTH 16 0
BBX 9 16 0 -2
BITMAP
0180
0180
0180
0180
0180
0180
0180
FF80
FF80
0100
0100
0100
0100
0100
0100
0100
ENDCHAR
STARTCHAR uni252A
ENCODING 9514
SWIDTH 1000 0
DWIDTH 16 0
BBX 9 16 0 -2
BITMAP
0100
0100
0100
0100
0100
0100
0100
FF80
FF80
0180
0180
0180
0180
0180
0180
0180
ENDCHAR
STARTCHAR uni252B
ENCODING 9515
SWIDTH 1000 0
DWIDTH 16 0
BBX 9 16 0 -2
BITMAP
0180
0180
0180
0180
0180
0180
0180
FF80
FF80
0180
0180
0180
0180
0180
0180
0180
ENDCHAR
STARTCHAR SF060000
ENCODING 9516
SWIDTH 1000 0
DWIDTH 16 0
BBX 16 9 0 -2
BITMAP
FFFF
0100
0100
0100
0100
0100
0100
0100
0100
ENDCHAR
STARTCHAR uni252D
ENCODING 9517
SWIDTH 1000 0
DWIDTH 16 0
BBX 16 9 0 -2
BITMAP
FFFF
FF00
0100
0100
0100
0100
0100
0100
0100
ENDCHAR
STARTCHAR uni252E
ENCODING 9518
SWIDTH 1000 0
DWIDTH 16 0
BBX 16 9 0 -2
BITMAP
FFFF
01FF
0100
0100
0100
0100
0100
0100
0100
ENDCHAR
STARTCHAR uni252F
ENCODING 9519
SWIDTH 1000 0
DWIDTH 16 0
BBX 16 9 0 -2
BITMAP
FFFF
FFFF
0100
0100
0100
0100
0100
0100
0100
ENDCHAR
STARTCHAR uni2530
ENCODING 9520
SWIDTH 1000 0
DWIDTH 16 0
BBX 16 9 0 -2
BITMAP
FFFF
0300
0300
0300
0300
0300
0300
0300
0300
ENDCHAR
STARTCHAR uni2531
ENCODING 9521
SWIDTH 1000 0
DWIDTH 16 0
BBX 16 9 0 -2
BITMAP
FFFF
FF00
0300
0300
0300
0300
0300
0300
0300
ENDCHAR
STARTCHAR uni2532
ENCODING 9522
SWIDTH 1000 0
DWIDTH 16 0
BBX 16 9 0 -2
BITMAP
FFFF
01FF
0180
0180
0180
0180
0180
0180
0180
ENDCHAR
STARTCHAR uni2533
ENCODING 9523
SWIDTH 1000 0
DWIDTH 16 0
BBX 16 9 0 -2
BITMAP
FFFF
FFFF
0180
0180
0180
0180
0180
0180
0180
ENDCHAR
STARTCHAR SF070000
ENCODING 9524
SWIDTH 1000 0
DWIDTH 16 0
BBX 16 8 0 6
BITMAP
0100
0100
0100
0100
0100
0100
0100
FFFF
ENDCHAR
STARTCHAR uni2535
ENCODING 9525
SWIDTH 1000 0
DWIDTH 16 0
BBX 16 9 0 5
BITMAP
0100
0100
0100
0100
0100
0100
0100
FFFF
FF00
ENDCHAR
STARTCHAR uni2536
ENCODING 9526
SWIDTH 1000 0
DWIDTH 16 0
BBX 16 9 0 5
BITMAP
0100
0100
0100
0100
0100
0100
0100
FFFF
01FF
ENDCHAR
STARTCHAR uni2537
ENCODING 9527
SWIDTH 1000 0
DWIDTH 16 0
BBX 16 9 0 5
BITMAP
0100
0100
0100
0100
0100
0100
0100
FFFF
FFFF
ENDCHAR
STARTCHAR uni2538
ENCODING 9528
SWIDTH 1000 0
DWIDTH 16 0
BBX 16 8 0 6
BITMAP
0180
0180
0180
0180
0180
0180
0180
FFFF
ENDCHAR
STARTCHAR uni2539
ENCODING 9529
SWIDTH 1000 0
DWIDTH 16 0
BBX 16 9 0 5
BITMAP
0180
0180
0180
0180
0180
0180
0180
FFFF
FF80
ENDCHAR
STARTCHAR uni253A
ENCODING 9530
SWIDTH 1000 0
DWIDTH 16 0
BBX 16 9 0 5
BITMAP
0180
0180
0180
0180
0180
0180
0180
FFFF
01FF
ENDCHAR
STARTCHAR uni253B
ENCODING 9531
SWIDTH 1000 0
DWIDTH 16 0
BBX 16 9 0 5
BITMAP
0180
0180
0180
0180
0180
0180
0180
FFFF
FFFF
ENDCHAR
STARTCHAR SF050000
ENCODING 9532
SWIDTH 1000 0
DWIDTH 16 0
BBX 16 16 0 -2
BITMAP
0100
0100
0100
0100
0100
0100
0100
FFFF
0100
0100
0100
0100
0100
0100
0100
0100
ENDCHAR
STARTCHAR uni253D
ENCODING 9533
SWIDTH 1000 0
DWIDTH 16 0
BBX 16 16 0 -2
BITMAP
0100
0100
0100
0100
0100
0100
0100
FFFF
FF00
0100
0100
0100
0100
0100
0100
0100
ENDCHAR
STARTCHAR uni253E
ENCODING 9534
SWIDTH 1000 0
DWIDTH 16 0
BBX 16 16 0 -2
BITMAP
0100
0100
0100
0100
0100
0100
0100
FFFF
01FF
0100
0100
0100
0100
0100
0100
0100
ENDCHAR
STARTCHAR uni253F
ENCODING 9535
SWIDTH 1000 0
DWIDTH 16 0
BBX 16 16 0 -2
BITMAP
0100
0100
0100
0100
0100
0100
0100
FFFF
FFFF
0100
0100
0100
0100
0100
0100
0100
ENDCHAR
STARTCHAR uni2540
ENCODING 9536
SWIDTH 1000 0
DWIDTH 16 0
BBX 16 16 0 -2
BITMAP
0180
0180
0180
0180
0180
0180
0180
FFFF
0100
0100
0100
0100
0100
0100
0100
0100
ENDCHAR
STARTCHAR uni2541
ENCODING 9537
SWIDTH 1000 0
DWIDTH 16 0
BBX 16 16 0 -2
BITMAP
0100
0100
0100
0100
0100
0100
0100
FFFF
0180
0180
0180
0180
0180
0180
0180
0180
ENDCHAR
STARTCHAR uni2542
ENCODING 9538
SWIDTH 1000 0
DWIDTH 16 0
BBX 16 16 0 -2
BITMAP
0180
0180
0180
0180
0180
0180
0180
FFFF
0180
0180
0180
0180
0180
0180
0180
0180
ENDCHAR
STARTCHAR uni2543
ENCODING 9539
SWIDTH 1000 0
DWIDTH 16 0
BBX 16 16 0 -2
BITMAP
0180
0180
0180
0180
0180
0180
0180
FFFF
FF00
0100
0100
0100
0100
0100
0100
0100
ENDCHAR
STARTCHAR uni2544
ENCODING 9540
SWIDTH 1000 0
DWIDTH 16 0
BBX 16 16 0 -2
BITMAP
0180
0180
0180
0180
0180
0180
0180
FFFF
01FF
0100
0100
0100
0100
0100
0100
0100
ENDCHAR
STARTCHAR uni2545
ENCODING 9541
SWIDTH 1000 0
DWIDTH 16 0
BBX 16 16 0 -2
BITMAP
0100
0100
0100
0100
0100
0100
0100
FFFF
FF80
0180
0180
0180
0180
0180
0180
0180
ENDCHAR
STARTCHAR uni2546
ENCODING 9542
SWIDTH 1000 0
DWIDTH 16 0
BBX 16 16 0 -2
BITMAP
0100
0100
0100
0100
0100
0100
0100
FFFF
01FF
0180
0180
0180
0180
0180
0180
0180
ENDCHAR
STARTCHAR uni2547
ENCODING 9543
SWIDTH 1000 0
DWIDTH 16 0
BBX 16 16 0 -2
BITMAP
0180
0180
0180
0180
0180
0180
0180
FFFF
FFFF
0100
0100
0100
0100
0100
0100
0100
ENDCHAR
STARTCHAR uni2548
ENCODING 9544
SWIDTH 1000 0
DWIDTH 16 0
BBX 16 16 0 -2
BITMAP
0100
0100
0100
0100
0100
0100
0100
FFFF
FFFF
0180
0180
0180
0180
0180
0180
0180
ENDCHAR
STARTCHAR uni2549
ENCODING 9545
SWIDTH 1000 0
DWIDTH 16 0
BBX 16 16 0 -2
BITMAP
0180
0180
0180
0180
0180
0180
0180
FFFF
FF80
0180
0180
0180
0180
0180
0180
0180
ENDCHAR
STARTCHAR uni254A
ENCODING 9546
SWIDTH 1000 0
DWIDTH 16 0
BBX 16 16 0 -2
BITMAP
0180
0180
0180
0180
0180
0180
0180
FFFF
01FF
0180
0180
0180
0180
0180
0180
0180
ENDCHAR
STARTCHAR uni254B
ENCODING 9547
SWIDTH 1000 0
DWIDTH 16 0
BBX 16 16 0 -2
BITMAP
0180
0180
0180
0180
0180
0180
0180
FFFF
FFFF
0180
0180
0180
0180
0180
0180
0180
ENDCHAR
STARTCHAR SF430000
ENCODING 9552
SWIDTH 1000 0
DWIDTH 16 0
BBX 16 3 0 5
BITMAP
FFFF
0000
FFFF
ENDCHAR
STARTCHAR SF240000
ENCODING 9553
SWIDTH 1000 0
DWIDTH 16 0
BBX 3 16 6 -2
BITMAP
A0
A0
A0
A0
A0
A0
A0
A0
A0
A0
A0
A0
A0
A0
A0
A0
ENDCHAR
STARTCHAR SF510000
ENCODING 9554
SWIDTH 1000 0
DWIDTH 16 0
BBX 9 10 7 -2
BITMAP
FF80
8000
FF80
8000
8000
8000
8000
8000
8000
8000
ENDCHAR
STARTCHAR SF520000
ENCODING 9555
SWIDTH 1000 0
DWIDTH 16 0
BBX 10 9 6 -2
BITMAP
FFC0
A000
A000
A000
A000
A000
A000
A000
A000
ENDCHAR
STARTCHAR SF390000
ENCODING 9556
SWIDTH 1000 0
DWIDTH 16 0
BBX 10 10 6 -2
BITMAP
FFC0
8000
BFC0
A000
A000
A000
A000
A000
A000
A000
ENDCHAR
STARTCHAR SF220000
ENCODING 9557
SWIDTH 1000 0
DWIDTH 16 0
BBX 8 10 0 -2
BITMAP
FF
01
FF
01
01
01
01
01
01
01
ENDCHAR
STARTCHAR SF210000
ENCODING 9558
SWIDTH 1000 0
DWIDTH 16 0
BBX 9 9 0 -2
BITMAP
FF80
0280
0280
0280
0280
0280
0280
0280
0280
ENDCHAR
STARTCHAR SF250000
ENCODING 9559
SWIDTH 1000 0
DWIDTH 16 0
BBX 9 10 0 -2
BITMAP
FF80
0080
FE80
0280
0280
0280
0280
0280
0280
0280
ENDCHAR
STARTCHAR SF500000
ENCODING 9560
SWIDTH 1000 0
DWIDTH 16 0
BBX 9 9 7 5
BITMAP
8000
8000
8000
8000
8000
8000
FF80
8000
FF80
ENDCHAR
STARTCHAR SF490000
ENCODING 9561
SWIDTH 1000 0
DWIDTH 16 0
BBX 10 8 6 6
BITMAP
A000
A000
A000
A000
A000
A000
A000
FFC0
ENDCHAR
STARTCHAR SF380000
ENCODING 9562
SWIDTH 1000 0
DWIDTH 16 0
BBX 10 9 6 5
BITMAP
A000
A000
A000
A000
A000
A000
BFC0
8000
FFC0
ENDCHAR
STARTCHAR SF280000
ENCODING 9563
SWIDTH 1000 0
DWIDTH 16 0
BBX 8 9 0 5
BITMAP
01
01
01
01
01
01
FF
01
FF
ENDCHAR
STARTCHAR SF270000
ENCODING 9564
SWIDTH 1000 0
DWIDTH 16 0
BBX 9 8 0 6
BITMAP
0280
0280
0280
0280
0280
0280
0280
FF80
ENDCHAR
STARTCHAR SF260000
ENCODING 9565
SWIDTH 1000 0
DWIDTH 16 0
BBX 9 9 0 5
BITMAP
0280
0280
0280
0280
0280
0280
FE80
0080
FF80
ENDCHAR
STARTCHAR SF360000
ENCODING 9566
SWIDTH 1000 0
DWIDTH 16 0
BBX 9 16 7 -2
BITMAP
8000
8000
8000
8000
8000
8000
FF80
8000
FF80
8000
8000
8000
8000
8000
8000
8000
ENDCHAR
STARTCHAR SF370000
ENCODING 9567
SWIDTH 1000 0
DWIDTH 16 0
BBX 10 16 6 -2
BITMAP
A000
A000
A000
A000
A000
A000
A000
BFC0
A000
A000
A000
A000
A000
A000
A000
A000
ENDCHAR
STARTCHAR SF420000
ENCODING 9568
SWIDTH 1000 0
DWIDTH 16 0
BBX 10 16 6 -2
BITMAP
A000
A000
A000
A000
A000
A000
BFC0
8000
BFC0
A000
A000
A000
A000
A000
A000
A000
ENDCHAR
STARTCHAR SF190000
ENCODING 9569
SWIDTH 1000 0
DWIDTH 16 0
BBX 8 16 0 -2
BITMAP
01
01
01
01
01
01
FF
01
FF
01
01
01
01
01
01
01
ENDCHAR
STARTCHAR SF200000
ENCODING 9570
SWIDTH 1000 0
DWIDTH 16 0
BBX 9 16 0 -2
BITMAP
0280
0280
0280
0280
0280
0280
0280
FE80
0280
0280
0280
0280
0280
0280
0280
0280
ENDCHAR
STARTCHAR SF230000
ENCODING 9571
SWIDTH 1000 0
DWIDTH 16 0
BBX 9 16 0 -2
BITMAP
0280
0280
0280
0280
0280
0280
FE80
0080
FE80
0280
0280
0280
0280
0280
0280
0280
ENDCHAR
STARTCHAR SF470000
ENCODING 9572
SWIDTH 1000 0
DWIDTH 16 0
BBX 16 10 0 -2
BITMAP
FFFF
0000
FFFF
0100
0100
0100
0100
0100
0100
0100
ENDCHAR
STARTCHAR SF480000
ENCODING 9573
SWIDTH 1000 0
DWIDTH 16 0
BBX 16 9 0 -2
BITMAP
FFFF
0280
0280
0280
0280
0280
0280
0280
0280
ENDCHAR
STARTCHAR SF410000
ENCODING 9574
SWIDTH 1000 0
DWIDTH 16 0
BBX 16 10 0 -2
BITMAP
FFFF
0000
FEFF
0280
0280
0280
0280
0280
0280
0280
ENDCHAR
STARTCHAR SF450000
ENCODING 9575
SWIDTH 1000 0
DWIDTH 16 0
BBX 16 9 0 5
BITMAP
0100
0100
0100
0100
0100
0100
FFFF
0000
FFFF
ENDCHAR
STARTCHAR SF460000
ENCODING 9576
SWIDTH 1000 0
DWIDTH 16 0
BBX 16 8 0 6
BITMAP
0280
0280
0280
0280
0280
0280
0280
FFFF
ENDCHAR
STARTCHAR SF400000
ENCODING 9577
SWIDTH 1000 0
DWIDTH 16 0
BBX 16 9 0 5
BITMAP
0280
0280
0280
0280
0280
0280
FEFF
0000
FFFF
ENDCHAR
STARTCHAR SF540000
ENCODING 9578
SWIDTH 1000 0
DWIDTH 16 0
BBX 16 16 0 -2
BITMAP
0100
0100
0100
0100
0100
0100
FFFF
0100
FFFF
0100
0100
0100
0100
0100
0100
0100
ENDCHAR
STARTCHAR SF530000
ENCODING 9579
SWIDTH 1000 0
DWIDTH 16 0
BBX 16 16 0 -2
BITMAP
0280
0280
0280
0280
0280
0280
0280
FFFF
0280
0280
0280
0280
0280
0280
0280
0280
ENDCHAR
STARTCHAR SF440000
ENCODING 9580
SWIDTH 1000 0
DWIDTH 16 0
BBX 16 16 0 -2
BITMAP
0280
0280
0280
0280
0280
0280
FEFF
0000
FEFF
0280
0280
0280
0280
0280
0280
0280
ENDCHAR
STARTCHAR upblock
ENCODING 9600
SWIDTH 1000 0
DWIDTH 16 0
BBX 16 8 0 6
BITMAP
FFFF
FFFF
FFFF
FFFF
FFFF
FFFF
FFFF
FFFF
ENDCHAR
STARTCHAR uni2581
ENCODING 9601
SWIDTH 1000 0
DWIDTH 16 0
BBX 16 2 0 -2
BITMAP
FFFF
FFFF
ENDCHAR
STARTCHAR uni2582
ENCODING 9602
SWIDTH 1000 0
DWIDTH 16 0
BBX 16 4 0 -2
BITMAP
FFFF
FFFF
FFFF
FFFF
ENDCHAR
STARTCHAR uni2583
ENCODING 9603
SWIDTH 1000 0
DWIDTH 16 0
BBX 16 6 0 -2
BITMAP
FFFF
FFFF
FFFF
FFFF
FFFF
FFFF
ENDCHAR
STARTCHAR dnblock
ENCODING 9604
SWIDTH 1000 0
DWIDTH 16 0
BBX 16 8 0 -2
BITMAP
FFFF
FFFF
FFFF
FFFF
FFFF
FFFF
FFFF
FFFF
ENDCHAR
STARTCHAR uni2585
ENCODING 9605
SWIDTH 1000 0
DWIDTH 16 0
BBX 16 10 0 -2
BITMAP
FFFF
FFFF
FFFF
FFFF
FFFF
FFFF
FFFF
FFFF
FFFF
FFFF
ENDCHAR
STARTCHAR uni2586
ENCODING 9606
SWIDTH 1000 0
DWIDTH 16 0
BBX 16 12 0 -2
BITMAP
FFFF
FFFF
FFFF
FFFF
FFFF
FFFF
FFFF
FFFF
FFFF
FFFF
FFFF
FFFF
ENDCHAR
STARTCHAR uni2587
ENCODING 9607
SWIDTH 1000 0
DWIDTH 16 0
BBX 16 14 0 -2
BITMAP
FFFF
FFFF
FFFF
FFFF
FFFF
FFFF
FFFF
FFFF
FFFF
FFFF
FFFF
FFFF
FFFF
FFFF
ENDCHAR
STARTCHAR block
ENCODING 9608
SWIDTH 1000 0
DWIDTH 16 0
BBX 16 16 0 -2
BITMAP
FFFF
FFFF
FFFF
FFFF
FFFF
FFFF
FFFF
FFFF
FFFF
FFFF
FFFF
FFFF
FFFF
FFFF
FFFF
FFFF
ENDCHAR
STARTCHAR uni2589
ENCODING 9609
SWIDTH 1000 0
DWIDTH 16 0
BBX 14 16 0 -2
BITMAP
FFFC
FFFC
FFFC
FFFC
FFFC
FFFC
FFFC
FFFC
FFFC
FFFC
FFFC
FFFC
FFFC
FFFC
FFFC
FFFC
ENDCHAR
STARTCHAR uni258A
ENCODING 9610
SWIDTH 1000 0
DWIDTH 16 0
BBX 12 16 0 -2
BITMAP
FFF0
FFF0
FFF0
FFF0
FFF0
FFF0
FFF0
FFF0
FFF0
FFF0
FFF0
FFF0
FFF0
FFF0
FFF0
FFF0
ENDCHAR
STARTCHAR uni258B
ENCODING 9611
SWIDTH 1000 0
DWIDTH 16 0
BBX 10 16 0 -2
BITMAP
FFC0
FFC0
FFC0
FFC0
FFC0
FFC0
FFC0
FFC0
FFC0
FFC0
FFC0
FFC0
FFC0
FFC0
FFC0
FFC0
ENDCHAR
STARTCHAR lfblock
ENCODING 9612
SWIDTH 1000 0
DWIDTH 16 0
BBX 8 16 0 -2
BITMAP
FF
FF
FF
FF
FF
FF
FF
FF
FF
FF
FF
FF
FF
FF
FF
FF
ENDCHAR
STARTCHAR uni258D
ENCODING 9613
SWIDTH 1000 0
DWIDTH 16 0
BBX 6 16 0 -2
BITMAP
FC
FC
FC
FC
FC
FC
FC
FC
FC
FC
FC
FC
FC
FC
FC
FC
ENDCHAR
STARTCHAR uni258E
ENCODING 9614
SWIDTH 1000 0
DWIDTH 16 0
BBX 4 16 0 -2
BITMAP
F0
F0
F0
F0
F0
F0
F0
F0
F0
F0
F0
F0
F0
F0
F0
F0
ENDCHAR
STARTCHAR uni258F
ENCODING 9615
SWIDTH 1000 0
DWIDTH 16 0
BBX 2 16 0 -2
BITMAP
C0
C0
C0
C0
C0
C0
C0
C0
C0
C0
C0
C0
C0
C0
C0
C0
ENDCHAR
STARTCHAR rtblock
ENCODING 9616
SWIDTH 1000 0
DWIDTH 16 0
BBX 8 16 8 -2
BITMAP
FF
FF
FF
FF
FF
FF
FF
FF
FF
FF
FF
FF
FF
FF
FF
FF
ENDCHAR
STARTCHAR ltshade
ENCODING 9617
SWIDTH 1000 0
DWIDTH 16 0
BBX 15 15 0 -1
BITMAP
8888
0000
2222
0000
8888
0000
2222
0000
8888
0000
2222
0000
8888
0000
2222
ENDCHAR
STARTCHAR shade
ENCODING 9618
SWIDTH 1000 0
DWIDTH 16 0
BBX 14 14 0 0
BITMAP
CCCC
CCCC
0000
0000
CCCC
CCCC
0000
0000
CCCC
CCCC
0000
0000
CCCC
CCCC
ENDCHAR
STARTCHAR dkshade
ENCODING 9619
SWIDTH 1000 0
DWIDTH 16 0
BBX 15 15 0 -1
BITMAP
EEEE
EEEE
EEEE
0000
EEEE
EEEE
EEEE
0000
EEEE
EEEE
EEEE
0000
EEEE
EEEE
EEEE
ENDCHAR
STARTCHAR filledbox
ENCODING 9632
SWIDTH 1000 0
DWIDTH 16 0
BBX 15 16 0 -2
BITMAP
FFFE
FFFE
FFFE
FFFE
FFFE
FFFE
FFFE
FFFE
FFFE
FFFE
FFFE
FFFE
FFFE
FFFE
FFFE
FFFE
ENDCHAR
STARTCHAR H22073
ENCODING 9633
SWIDTH 1000 0
DWIDTH 16 0
BBX 15 16 0 -2
BITMAP
FFFE
8002
8002
8002
8002
8002
8002
8002
8002
8002
8002
8002
8002
8002
8002
FFFE
ENDCHAR
STARTCHAR filledrect
ENCODING 9644
SWIDTH 1000 0
DWIDTH 16 0
BBX 15 8 0 2
BITMAP
FFFE
FFFE
FFFE
FFFE
FFFE
FFFE
FFFE
FFFE
ENDCHAR
STARTCHAR triagup
ENCODING 9650
SWIDTH 1000 0
DWIDTH 16 0
BBX 15 15 0 -1
BITMAP
0100
0100
0380
0380
07C0
07C0
0FE0
0FE0
1FF0
1FF0
3FF8
3FF8
7FFC
7FFC
FFFE
ENDCHAR
STARTCHAR uni25B3
ENCODING 9651
SWIDTH 1000 0
DWIDTH 16 0
BBX 15 15 0 -1
BITMAP
0100
0100
0280
0280
0440
0440
0820
0820
1010
1010
2008
2008
4004
4004
FFFE
ENDCHAR
STARTCHAR triagrt
ENCODING 9658
SWIDTH 1000 0
DWIDTH 16 0
BBX 9 6 3 3
BITMAP
8000
F800
FF80
FF80
F800
8000
ENDCHAR
STARTCHAR triagdn
ENCODING 9660
SWIDTH 1000 0
DWIDTH 16 0
BBX 15 15 0 -2
BITMAP
FFFE
7FFC
7FFC
3FF8
3FF8
1FF0
1FF0
0FE0
0FE0
07C0
07C0
0380
0380
0100
0100
ENDCHAR
STARTCHAR uni25BD
ENCODING 9661
SWIDTH 1000 0
DWIDTH 16 0
BBX 15 15 0 -2
BITMAP
FFFE
4004
4004
2008
2008
1010
1010
0820
0820
0440
0440
0280
0280
0100
0100
ENDCHAR
STARTCHAR triaglf
ENCODING 9668
SWIDTH 1000 0
DWIDTH 16 0
BBX 9 6 3 3
BITMAP
0080
0F80
FF80
FF80
0F80
0080
ENDCHAR
STARTCHAR uni25C6
ENCODING 9670
SWIDTH 1000 0
DWIDTH 16 0
BBX 15 16 0 -2
BITMAP
0100
0380
07C0
0FE0
1FF0
3FF8
7FFC
FFFE
FFFE
7FFC
3FF8
1FF0
0FE0
07C0
0380
0100
ENDCHAR
STARTCHAR uni25C7
ENCODING 9671
SWIDTH 1000 0
DWIDTH 16 0
BBX 15 15 0 -1
BITMAP
0100
0280
0440
0820
1010
2008
4004
8002
4004
2008
1010
0820
0440
0280
0100
ENDCHAR
STARTCHAR circle
ENCODING 9675
SWIDTH 1000 0
DWIDTH 16 0
BBX 15 16 0 -2
BITMAP
07C0
1830
2008
4004
4004
8002
8002
8002
8002
8002
8002
4004
4004
2008
1830
07C0
ENDCHAR
STARTCHAR uni25CE
ENCODING 9678
SWIDTH 1000 0
DWIDTH 16 0
BBX 15 16 0 -2
BITMAP
07C0
1830
2008
4004
47C4
8822
9012
9012
9012
9012
8822
47C4
4004
2008
1830
07C0
ENDCHAR
STARTCHAR H18533
ENCODING 9679
SWIDTH 1000 0
DWIDTH 16 0
BBX 15 16 0 -2
BITMAP
07C0
1FF0
3FF8
7FFC
7FFC
FFFE
FFFE
FFFE
FFFE
FFFE
FFFE
7FFC
7FFC
3FF8
1FF0
07C0
ENDCHAR
STARTCHAR invbullet
ENCODING 9688
SWIDTH 1000 0
DWIDTH 16 0
BBX 12 12 2 0
BITMAP
FFF0
FFF0
FFF0
FFF0
F9F0
F0F0
F0F0
F9F0
FFF0
FFF0
FFF0
FFF0
ENDCHAR
STARTCHAR invcircle
ENCODING 9689
SWIDTH 1000 0
DWIDTH 16 0
BBX 12 12 2 0
BITMAP
FFF0
F0F0
CF30
DFB0
BFD0
BFD0
BFD0
BFD0
DFB0
CF30
F0F0
FFF0
ENDCHAR
STARTCHAR uni25EF
ENCODING 9711
SWIDTH 1000 0
DWIDTH 16 0
BBX 15 16 0 -2
BITMAP
07C0
1830
2008
4004
4004
8002
8002
8002
8002
8002
8002
4004
4004
2008
1830
07C0
ENDCHAR
STARTCHAR uni2603
ENCODING 9731
SWIDTH 1000 0
DWIDTH 16 0
BBX 15 16 0 -2
BITMAP
A7CA
07C0
3FF8
8FE2
1BB0
1EF0
5BB4
CC66
3FF8
7EFC
FFFE
FEFE
FFFE
7FFC
3FF8
07C0
ENDCHAR
STARTCHAR uni2605
ENCODING 9733
SWIDTH 1000 0
DWIDTH 16 0
BBX 15 16 0 -2
BITMAP
0100
0100
0380
0380
07C0
07C0
FFFE
7FFC
3FF8
1FF0
0FE0
1FF0
1EF0
1C70
3838
3018
ENDCHAR
STARTCHAR uni2606
ENCODING 9734
SWIDTH 1000 0
DWIDTH 16 0
BBX 15 16 0 -2
BITMAP
0100
0100
0280
0280
0440
0440
FC7E
4004
2008
1010
0820
1110
1290
1450
2828
3018
ENDCHAR
STARTCHAR uni262F
ENCODING 9775
SWIDTH 1000 0
DWIDTH 16 0
BBX 15 15 0 -1
BITMAP
07C0
1830
2008
4044
40E4
9C42
BE02
FF06
F78E
E3FE
77FC
7FFC
3FF8
1FF0
07C0
ENDCHAR
STARTCHAR smileface
ENCODING 9786
SWIDTH 1000 0
DWIDTH 16 0
BBX 15 16 0 -2
BITMAP
07C0
1830
2008
4004
4004
8C62
8C62
8002
8002
9012
8822
47C4
4004
2008
1830
07C0
ENDCHAR
STARTCHAR invsmileface
ENCODING 9787
SWIDTH 1000 0
DWIDTH 16 0
BBX 15 16 0 -2
BITMAP
07C0
1FF0
3FF8
7FFC
7FFC
F39E
F39E
FFFE
FFFE
EFEE
F7DE
783C
7FFC
3FF8
1FF0
07C0
ENDCHAR
STARTCHAR sun
ENCODING 9788
SWIDTH 1000 0
DWIDTH 16 0
BBX 13 13 1 0
BITMAP
0200
0200
2220
1740
0880
1040
F078
1040
0880
1740
2220
0200
0200
ENDCHAR
STARTCHAR female
ENCODING 9792
SWIDTH 1000 0
DWIDTH 16 0
BBX 11 15 2 -1
BITMAP
0E00
1100
2080
2080
2080
1100
0E00
0400
0400
FFE0
0400
0400
0400
0400
0400
ENDCHAR
STARTCHAR male
ENCODING 9794
SWIDTH 1000 0
DWIDTH 16 0
BBX 14 14 0 -1
BITMAP
00FC
000C
0014
0024
0044
0084
0100
3A00
4400
8200
8200
8200
4400
3800
ENDCHAR
STARTCHAR spade
ENCODING 9824
SWIDTH 1000 0
DWIDTH 16 0
BBX 9 11 3 0
BITMAP
0800
0800
1C00
3E00
7F00
FF80
FF80
FF80
6B00
0800
1C00
ENDCHAR
STARTCHAR uni2661
ENCODING 9825
SWIDTH 1000 0
DWIDTH 16 0
BBX 9 11 3 0
BITMAP
6300
9480
8880
8080
8080
4100
4100
2200
1400
0800
0800
ENDCHAR
STARTCHAR uni2662
ENCODING 9826
SWIDTH 1000 0
DWIDTH 16 0
BBX 9 11 3 0
BITMAP
0800
0800
1400
2200
4100
8080
4100
2200
1400
0800
0800
ENDCHAR
STARTCHAR club
ENCODING 9827
SWIDTH 1000 0
DWIDTH 16 0
BBX 9 11 3 0
BITMAP
1C00
3E00
3E00
1C00
0800
7F00
FF80
FF80
6B00
0800
1C00
ENDCHAR
STARTCHAR uni2664
ENCODING 9828
SWIDTH 1000 0
DWIDTH 16 0
BBX 9 11 3 0
BITMAP
0800
0800
1400
2200
4100
8080
8080
9480
6B00
0800
1C00
ENDCHAR
STARTCHAR heart
ENCODING 9829
SWIDTH 1000 0
DWIDTH 16 0
BBX 9 11 3 0
BITMAP
6300
F780
FF80
FF80
FF80
7F00
7F00
3E00
1C00
0800
0800
ENDCHAR
STARTCHAR diamond
ENCODING 9830
SWIDTH 1000 0
DWIDTH 16 0
BBX 9 11 3 0
BITMAP
0800
0800
1C00
3E00
7F00
FF80
7F00
3E00
1C00
0800
0800
ENDCHAR
STARTCHAR uni2667
ENCODING 9831
SWIDTH 1000 0
DWIDTH 16 0
BBX 9 11 3 0
BITMAP
1C00
2200
2200
1400
0800
7700
8080
9480
6B00
0800
1C00
ENDCHAR
STARTCHAR uni2668
ENCODING 9832
SWIDTH 1000 0
DWIDTH 16 0
BBX 9 11 3 0
BITMAP
2480
4900
4900
4900
2480
2480
2480
4900
0000
8080
7F00
ENDCHAR
STARTCHAR uni2669
ENCODING 9833
SWIDTH 1000 0
DWIDTH 16 0
BBX 6 14 2 -1
BITMAP
04
04
04
04
04
04
04
04
04
04
3C
78
F8
60
ENDCHAR
STARTCHAR musicalnote
ENCODING 9834
SWIDTH 1000 0
DWIDTH 16 0
BBX 10 14 2 -1
BITMAP
0400
0400
0600
0700
0580
04C0
0440
0440
0480
0400
3C00
7800
F800
6000
ENDCHAR
STARTCHAR musicalnotedbl
ENCODING 9835
SWIDTH 1000 0
DWIDTH 16 0
BBX 10 11 3 0
BITMAP
03C0
3FC0
3C40
2040
2040
2040
2040
20C0
61C0
E180
C000
ENDCHAR
STARTCHAR uni266C
ENCODING 9836
SWIDTH 1000 0
DWIDTH 16 0
BBX 10 11 3 0
BITMAP
03C0
3FC0
3C40
23C0
3C40
2040
2040
20C0
61C0
E180
C000
ENDCHAR
STARTCHAR uni266D
ENCODING 9837
SWIDTH 1000 0
DWIDTH 16 0
BBX 6 14 4 -1
BITMAP
80
80
80
80
80
B8
EC
84
8C
88
98
B0
C0
80
ENDCHAR
STARTCHAR uni266E
ENCODING 9838
SWIDTH 1000 0
DWIDTH 16 0
BBX 5 12 5 0
BITMAP
80
88
B8
F8
C8
88
88
98
F8
E8
88
08
ENDCHAR
STARTCHAR uni266F
ENCODING 9839
SWIDTH 1000 0
DWIDTH 16 0
BBX 9 14 3 -1
BITMAP
0200
2200
2380
3F80
FE00
E200
2200
2200
2380
3F80
FE00
E200
2200
2000
ENDCHAR
STARTCHAR uni267F
ENCODING 9855
SWIDTH 1000 0
DWIDTH 16 0
BBX 15 16 0 -2
BITMAP
7FFC
C006
8032
8032
8182
8242
8682
9882
90E2
A012
A052
9092
999A
8602
C006
7FFC
ENDCHAR
STARTCHAR uni26A0
ENCODING 9888
SWIDTH 1000 0
DWIDTH 16 0
BBX 15 15 0 -1
BITMAP
0100
0100
0280
0280
0440
0540
0BA0
0BA0
1110
1110
2008
2108
4384
4104
FFFE
ENDCHAR
STARTCHAR uni26A1
ENCODING 9889
SWIDTH 1000 0
DWIDTH 16 0
BBX 10 16 3 -2
BITMAP
3E00
3E00
3E00
3C00
7C00
7800
F800
FFC0
0FC0
0F80
0F80
0F00
0E00
0C00
0C00
0800
ENDCHAR
STARTCHAR uni26E9
ENCODING 9961
SWIDTH 1000 0
DWIDTH 16 0
BBX 15 16 0 -2
BITMAP
C006
7FFC
2388
2388
2388
3FF8
2008
2008
2008
2008
2008
2008
2008
701C
701C
701C
ENDCHAR
STARTCHAR uni2BE8
ENCODING 11240
SWIDTH 1000 0
DWIDTH 16 0
BBX 8 16 0 -2
BITMAP
01
01
03
03
07
07
FF
7F
3F
1F
0F
1F
1E
1C
38
30
ENDCHAR
STARTCHAR uni2BE9
ENCODING 11241
SWIDTH 1000 0
DWIDTH 16 0
BBX 8 16 7 -2
BITMAP
80
80
C0
C0
E0
E0
FF
FE
FC
F8
F0
F8
78
38
1C
0C
ENDCHAR
STARTCHAR uni2BEA
ENCODING 11242
SWIDTH 1000 0
DWIDTH 16 0
BBX 15 16 0 -2
BITMAP
0100
0100
0280
0280
0640
0640
FE7E
7E04
3E08
1E10
0E20
1F10
1E90
1C50
3828
3018
ENDCHAR
STARTCHAR uni2BEB
ENCODING 11243
SWIDTH 1000 0
DWIDTH 16 0
BBX 15 16 0 -2
BITMAP
0100
0100
0280
0280
04C0
04C0
FCFE
40FC
20F8
10F0
08E0
11F0
12F0
1470
2838
3018
ENDCHAR
STARTCHAR uni2E80
ENCODING 11904
SWIDTH 1000 0
DWIDTH 16 0
BBX 13 13 1 0
BITMAP
3800
0700
01C0
0070
0038
E018
1C00
0700
0180
00C0
0070
0038
0018
ENDCHAR
STARTCHAR uni2E81
ENCODING 11905
SWIDTH 1000 0
DWIDTH 16 0
BBX 14 15 0 -1
BITMAP
0038
21FC
3FC0
3000
3000
3000
3000
3000
3000
3000
3000
2000
6000
4000
8000
ENDCHAR
STARTCHAR uni2E82
ENCODING 11906
SWIDTH 1000 0
DWIDTH 16 0
BBX 15 6 0 4
BITMAP
000C
FFFE
000C
0018
0010
0020
ENDCHAR
STARTCHAR uni2E83
ENCODING 11907
SWIDTH 1000 0
DWIDTH 16 0
BBX 10 14 3 0
BITMAP
E000
C000
C000
C000
C000
C000
C000
C000
C000
C080
C080
C0C0
FFC0
7F80
ENDCHAR
STARTCHAR uni2E84
ENCODING 11908
SWIDTH 1000 0
DWIDTH 16 0
BBX 15 16 0 -2
BITMAP
00C0
FFE0
00C0
00C0
00C0
00C0
00C0
00C0
00C0
00C0
00C0
0062
0064
003C
001E
000E
ENDCHAR
STARTCHAR uni2E85
ENCODING 11909
SWIDTH 1000 0
DWIDTH 16 0
BBX 7 16 4 -2
BITMAP
04
06
0E
0C
1C
18
38
58
98
18
18
18
18
18
18
18
ENDCHAR
STARTCHAR uni2E86
ENCODING 11910
SWIDTH 1000 0
DWIDTH 16 0
BBX 13 16 1 -2
BITMAP
1030
1FF8
1830
1830
1830
1830
1830
1830
1830
1830
1830
1830
1030
3030
21F0
C060
ENDCHAR
STARTCHAR uni2E87
ENCODING 11911
SWIDTH 1000 0
DWIDTH 16 0
BBX 15 16 0 -2
BITMAP
4018
7FFC
6018
6018
6018
6018
6018
6018
6018
6018
601A
601A
600C
400C
400E
8006
ENDCHAR
STARTCHAR uni2E88
ENCODING 11912
SWIDTH 1000 0
DWIDTH 16 0
BBX 14 16 0 -2
BITMAP
0300
0318
07FC
0618
0C18
1830
1030
6060
00E0
00C0
0180
0300
0600
0C00
3000
C000
ENDCHAR
STARTCHAR uni2E89
ENCODING 11913
SWIDTH 1000 0
DWIDTH 16 0
BBX 7 16 5 -2
BITMAP
0E
EC
CC
CC
CC
CC
CC
CC
CC
CC
CC
CC
0C
0C
7C
18
ENDCHAR
STARTCHAR uni2E8A
ENCODING 11914
SWIDTH 1000 0
DWIDTH 16 0
BBX 8 16 6 -2
BITMAP
E0
C0
C0
C0
C0
C6
FF
C0
C0
C0
C0
C0
C0
C0
C0
C0
ENDCHAR
STARTCHAR uni2E8B
ENCODING 11915
SWIDTH 1000 0
DWIDTH 16 0
BBX 11 10 3 -1
BITMAP
8180
FFC0
C180
C180
C780
C340
C040
C060
FFE0
7FC0
ENDCHAR
STARTCHAR uni2E8C
ENCODING 11916
SWIDTH 1000 0
DWIDTH 16 0
BBX 14 5 1 9
BITMAP
0388
C31C
3318
1B30
1B40
ENDCHAR
STARTCHAR uni2E8D
ENCODING 11917
SWIDTH 1000 0
DWIDTH 16 0
BBX 13 7 1 7
BITMAP
0810
8418
4638
6330
3360
3340
0080
ENDCHAR
STARTCHAR uni2E8E
ENCODING 11918
SWIDTH 1000 0
DWIDTH 16 0
BBX 15 15 0 -2
BITMAP
000C
FFFE
0CC0
0CC0
0CC0
0CC0
0CC0
0CC0
0CC0
0CC0
18C4
18C4
30C6
20FE
C07C
ENDCHAR
STARTCHAR uni2E8F
ENCODING 11919
SWIDTH 1000 0
DWIDTH 16 0
BBX 15 16 0 -2
BITMAP
0480
0660
0E30
0C18
180C
2776
C666
0660
0660
0660
0660
0C64
0C64
1866
307E
C03C
ENDCHAR
STARTCHAR uni2E90
ENCODING 11920
SWIDTH 1000 0
DWIDTH 16 0
BBX 15 16 0 -2
BITMAP
0380
0300
0300
030C
FFFE
0300
03E0
03C0
06C0
06C0
06C0
0CC4
0CC4
18C6
30FE
C07C
ENDCHAR
STARTCHAR uni2E91
ENCODING 11921
SWIDTH 1000 0
DWIDTH 16 0
BBX 15 16 0 -2
BITMAP
0480
0660
0E30
0C18
180C
2866
CFF6
0C60
0C60
0C60
0C60
0C64
1864
1866
307E
C03C
ENDCHAR
STARTCHAR uni2E92
ENCODING 11922
SWIDTH 1000 0
DWIDTH 16 0
BBX 13 15 2 -1
BITMAP
8060
FFF0
C060
C060
C060
C060
FFE0
C060
C000
C000
C010
C010
C018
FFF8
7FF0
ENDCHAR
STARTCHAR uni2E93
ENCODING 11923
SWIDTH 1000 0
DWIDTH 16 0
BBX 14 15 0 -1
BITMAP
0100
0380
0300
0620
0470
3860
0CC0
0EC0
0780
0120
0310
0218
07F8
FF0C
E00C
ENDCHAR
STARTCHAR uni2E94
ENCODING 11924
SWIDTH 1000 0
DWIDTH 16 0
BBX 15 15 0 -1
BITMAP
0700
0600
0600
0630
0FF8
0C30
0C30
0C30
1860
1FE0
1860
1860
00C0
00CC
FFFE
ENDCHAR
STARTCHAR uni2E95
ENCODING 11925
SWIDTH 937 0
DWIDTH 15 0
BBX 13 14 0 -1
BITMAP
0030
7FF8
0030
0030
0030
0030
3FF0
0030
0030
0030
0030
0030
FFF0
0030
ENDCHAR
STARTCHAR uni2E96
ENCODING 11926
SWIDTH 1000 0
DWIDTH 16 0
BBX 6 16 5 -2
BITMAP
38
30
30
30
78
7C
F4
B0
30
30
30
30
30
30
30
30
ENDCHAR
STARTCHAR uni2E97
ENCODING 11927
SWIDTH 1000 0
DWIDTH 16 0
BBX 13 8 1 -2
BITMAP
0700
0600
1720
36B0
E6D8
C6D8
1E00
0C00
ENDCHAR
STARTCHAR uni2E98
ENCODING 11928
SWIDTH 1000 0
DWIDTH 16 0
BBX 8 16 4 -2
BITMAP
1C
18
1A
FF
18
18
18
1F
F8
D8
18
18
18
18
78
30
ENDCHAR
STARTCHAR uni2E99
ENCODING 11929
SWIDTH 1000 0
DWIDTH 16 0
BBX 15 16 0 -2
BITMAP
0C00
0C00
180C
1FFE
3830
6830
8830
0460
0460
02C0
0380
0380
06C0
0C70
303E
C00C
ENDCHAR
STARTCHAR uni2E9B
ENCODING 11931
SWIDTH 1000 0
DWIDTH 16 0
BBX 14 16 1 -2
BITMAP
0060
7FF0
0300
7300
6300
6330
FFF8
C300
07C0
0780
0780
0D88
0D88
198C
31FC
C0F8
ENDCHAR
STARTCHAR uni2E9C
ENCODING 11932
SWIDTH 1000 0
DWIDTH 16 0
BBX 14 7 1 7
BITMAP
8018
FFFC
C018
DFD8
C018
DFD8
C018
ENDCHAR
STARTCHAR uni2E9D
ENCODING 11933
SWIDTH 1000 0
DWIDTH 16 0
BBX 13 16 1 -2
BITMAP
1030
1FF8
1830
1830
1830
1FF0
1830
1830
1830
1FF0
1830
1830
1030
3030
21F0
C060
ENDCHAR
STARTCHAR uni2E9E
ENCODING 11934
SWIDTH 1000 0
DWIDTH 16 0
BBX 15 16 0 -2
BITMAP
01C0
0180
018C
01FE
1180
19B0
1FF8
1830
3C60
2660
C6C0
0180
0300
0600
1800
E000
ENDCHAR
STARTCHAR uni2E9F
ENCODING 11935
SWIDTH 1000 0
DWIDTH 16 0
BBX 15 16 0 -2
BITMAP
1018
1FFC
1A18
1998
1998
181C
FFFE
1818
1B18
3198
31B0
3034
3FFE
3030
00F0
0060
ENDCHAR
STARTCHAR uni2EA0
ENCODING 11936
SWIDTH 1000 0
DWIDTH 16 0
BBX 15 16 0 -2
BITMAP
2018
3FFC
3018
3018
3FF8
3180
318C
3FFE
3180
30C0
30C0
3064
3064
37B4
FC1E
E00E
ENDCHAR
STARTCHAR uni2EA1
ENCODING 11937
SWIDTH 1000 0
DWIDTH 16 0
BBX 5 16 5 -2
BITMAP
40
30
30
00
80
68
68
10
10
30
20
60
E0
40
60
60
ENDCHAR
STARTCHAR uni2EA2
ENCODING 11938
SWIDTH 1000 0
DWIDTH 16 0
BBX 15 16 0 -2
BITMAP
01C0
0180
0180
4188
318C
199C
19B0
01C0
03A0
0D98
398C
F186
C186
0180
0780
0300
ENDCHAR
STARTCHAR uni2EA3
ENCODING 11939
SWIDTH 1000 0
DWIDTH 16 0
BBX 15 4 0 -2
BITMAP
2288
224C
E666
C666
ENDCHAR
STARTCHAR uni2EA4
ENCODING 11940
SWIDTH 1000 0
DWIDTH 16 0
BBX 13 7 1 7
BITMAP
0070
03F8
FF10
4418
2630
3330
3320
ENDCHAR
STARTCHAR uni2EA5
ENCODING 11941
SWIDTH 1000 0
DWIDTH 16 0
BBX 13 6 1 8
BITMAP
0070
03F8
3F40
3630
6318
8318
ENDCHAR
STARTCHAR uni2EA6
ENCODING 11942
SWIDTH 1000 0
DWIDTH 16 0
BBX 12 16 1 -2
BITMAP
0070
2060
1860
0C60
0E60
0660
0660
0060
0060
01E0
0760
1C60
F860
6060
4060
0060
ENDCHAR
STARTCHAR uni2EA7
ENCODING 11943
SWIDTH 1000 0
DWIDTH 16 0
BBX 15 8 0 6
BITMAP
11C0
1980
1998
3FFC
2180
4180
018C
FFFE
ENDCHAR
STARTCHAR uni2EA8
ENCODING 11944
SWIDTH 1000 0
DWIDTH 16 0
BBX 6 16 5 -2
BITMAP
08
9C
58
70
70
90
18
38
38
58
98
18
18
30
70
20
ENDCHAR
STARTCHAR uni2EA9
ENCODING 11945
SWIDTH 1000 0
DWIDTH 16 0
BBX 7 14 4 0
BITMAP
04
FE
30
30
30
34
FE
30
30
30
30
3E
F0
C0
ENDCHAR
STARTCHAR uni2EAA
ENCODING 11946
SWIDTH 1000 0
DWIDTH 16 0
BBX 9 15 3 -1
BITMAP
0100
7F80
0300
0200
0A00
0C00
2C00
2D00
2F80
2C00
2C00
2C00
2F80
FC00
7000
ENDCHAR
STARTCHAR uni2EAB
ENCODING 11947
SWIDTH 1000 0
DWIDTH 16 0
BBX 14 7 1 7
BITMAP
8008
FFFC
CD98
CD98
CD98
FFF8
C018
ENDCHAR
STARTCHAR uni2EAC
ENCODING 11948
SWIDTH 1000 0
DWIDTH 16 0
BBX 10 16 3 -2
BITMAP
0300
7F80
0000
0180
FFC0
0C00
7DC0
6D80
6D80
6D80
6D80
6D80
4D80
4D80
8C00
0C00
ENDCHAR
STARTCHAR uni2EAD
ENCODING 11949
SWIDTH 1000 0
DWIDTH 16 0
BBX 7 16 4 -2
BITMAP
38
30
34
FE
0C
0C
18
18
3C
76
B6
30
30
30
30
30
ENDCHAR
STARTCHAR uni2EAE
ENCODING 11950
SWIDTH 1000 0
DWIDTH 16 0
BBX 15 7 0 7
BITMAP
1860
1860
32CC
3EFE
68A0
4D18
8C18
ENDCHAR
STARTCHAR uni2EAF
ENCODING 11951
SWIDTH 1000 0
DWIDTH 16 0
BBX 8 16 4 -2
BITMAP
30
30
EC
6C
38
14
36
2E
FA
F8
5C
7A
7B
5A
98
18
ENDCHAR
STARTCHAR uni2EB0
ENCODING 11952
SWIDTH 1000 0
DWIDTH 16 0
BBX 10 15 3 -1
BITMAP
0800
0E00
0C00
1900
1180
7F00
3600
0C00
1000
FFC0
7800
0000
07C0
FC00
3000
ENDCHAR
STARTCHAR uni2EB1
ENCODING 11953
SWIDTH 1000 0
DWIDTH 16 0
BBX 14 7 1 7
BITMAP
8008
FFFC
C198
DDD8
C318
C7D8
D8D8
ENDCHAR
STARTCHAR uni2EB2
ENCODING 11954
SWIDTH 1000 0
DWIDTH 16 0
BBX 14 7 1 7
BITMAP
8008
FFFC
CD98
CD98
CD98
FFF8
C018
ENDCHAR
STARTCHAR uni2EB3
ENCODING 11955
SWIDTH 1000 0
DWIDTH 16 0
BBX 15 6 0 8
BITMAP
4004
7FFE
C6CC
C6C8
0CFC
707C
ENDCHAR
STARTCHAR uni2EB4
ENCODING 11956
SWIDTH 1000 0
DWIDTH 16 0
BBX 15 16 0 -2
BITMAP
4004
7FFE
466C
C668
C660
0660
0660
0660
0660
0660
0660
0C64
0C64
1866
307E
C03C
ENDCHAR
STARTCHAR uni2EB5
ENCODING 11957
SWIDTH 1000 0
DWIDTH 16 0
BBX 14 11 1 1
BITMAP
8018
FFFC
CD98
CD98
CD98
CD98
CD98
CD98
CD98
CD98
C018
ENDCHAR
STARTCHAR uni2EB6
ENCODING 11958
SWIDTH 1000 0
DWIDTH 16 0
BBX 15 11 0 3
BITMAP
0460
0644
FFFE
0180
7FFC
0184
FFFE
0C00
1800
3000
C000
ENDCHAR
STARTCHAR uni2EB7
ENCODING 11959
SWIDTH 1000 0
DWIDTH 16 0
BBX 15 7 0 7
BITMAP
0460
0644
FFFE
0180
7FFC
0184
FFFE
ENDCHAR
STARTCHAR uni2EB8
ENCODING 11960
SWIDTH 1000 0
DWIDTH 16 0
BBX 15 16 0 -2
BITMAP
0E70
0C60
0C68
7C7C
0C60
0C60
000C
FFFE
0180
0180
0198
7FFC
0180
0180
0180
0180
ENDCHAR
STARTCHAR uni2EB9
ENCODING 11961
SWIDTH 1000 0
DWIDTH 16 0
BBX 15 13 0 1
BITMAP
0380
0318
0358
7FF0
0330
036C
FFFE
0180
0300
0600
0C00
3000
C000
ENDCHAR
STARTCHAR uni2EBA
ENCODING 11962
SWIDTH 1000 0
DWIDTH 16 0
BBX 15 16 0 -2
BITMAP
01C0
0198
3FFC
0198
019C
FFFE
0198
0198
3FF8
0198
0180
0180
0180
0180
0180
0180
ENDCHAR
STARTCHAR uni2EBB
ENCODING 11963
SWIDTH 1000 0
DWIDTH 16 0
BBX 15 10 0 4
BITMAP
01C0
0198
3FFC
0198
FFFE
0198
3FF8
0188
018C
FFFE
ENDCHAR
STARTCHAR uni2EBC
ENCODING 11964
SWIDTH 1000 0
DWIDTH 16 0
BBX 13 16 1 -2
BITMAP
1030
1FF8
1830
1C30
1B30
19B0
19B0
1C30
1B30
19B0
19B0
1830
1030
3030
21F0
C060
ENDCHAR
STARTCHAR uni2EBD
ENCODING 11965
SWIDTH 1000 0
DWIDTH 16 0
BBX 14 16 1 -2
BITMAP
0400
9E18
F9FC
C018
C018
C018
C018
C818
FDF8
C018
C018
C018
C018
C818
FDF8
C018
ENDCHAR
STARTCHAR uni2EBE
ENCODING 11966
SWIDTH 1000 0
DWIDTH 16 0
BBX 15 5 0 9
BITMAP
0E70
0C6C
FFFE
0C60
0C60
ENDCHAR
STARTCHAR uni2EBF
ENCODING 11967
SWIDTH 1000 0
DWIDTH 16 0
BBX 15 5 0 9
BITMAP
0E70
0C6C
FEFE
0C60
0C60
ENDCHAR
STARTCHAR uni2EC0
ENCODING 11968
SWIDTH 1000 0
DWIDTH 16 0
BBX 15 5 0 9
BITMAP
0770
066C
FE7E
0660
0660
ENDCHAR
STARTCHAR uni2EC1
ENCODING 11969
SWIDTH 1000 0
DWIDTH 16 0
BBX 15 16 0 -2
BITMAP
0310
03F8
2304
3FFE
334C
33E8
3F10
33F8
31F0
3200
3370
3364
2664
6666
4C7E
B03C
ENDCHAR
STARTCHAR uni2EC2
ENCODING 11970
SWIDTH 1000 0
DWIDTH 16 0
BBX 7 16 5 -2
BITMAP
38
30
34
FE
0C
0C
18
36
34
7C
B6
30
30
30
30
30
ENDCHAR
STARTCHAR uni2EC3
ENCODING 11971
SWIDTH 1000 0
DWIDTH 16 0
BBX 15 8 0 6
BITMAP
000C
FFFE
06C0
7FFC
66CC
66CC
7FFC
600C
ENDCHAR
STARTCHAR uni2EC4
ENCODING 11972
SWIDTH 1000 0
DWIDTH 16 0
BBX 15 16 0 -2
BITMAP
000C
FFFE
06C0
06C0
46CC
7FFE
66CC
66CC
64CC
6CFC
687C
700C
600C
600C
7FFC
600C
ENDCHAR
STARTCHAR uni2EC5
ENCODING 11973
SWIDTH 1000 0
DWIDTH 16 0
BBX 15 16 0 -2
BITMAP
2018
3FFC
3018
3398
3318
3318
3318
3318
3318
33D8
36D8
06C4
0EC4
0CC6
18FE
E07C
ENDCHAR
STARTCHAR uni2EC6
ENCODING 11974
SWIDTH 1000 0
DWIDTH 16 0
BBX 14 16 0 -2
BITMAP
0CC0
0FE0
18C0
3118
7FFC
9998
1998
1FF8
1998
1998
1FF8
1998
1998
3198
3078
C030
ENDCHAR
STARTCHAR uni2EC7
ENCODING 11975
SWIDTH 1000 0
DWIDTH 16 0
BBX 14 16 0 -2
BITMAP
0CC0
0FE0
18C0
3118
7FFC
9998
19D8
1B78
1C78
1998
19D8
1B78
1C78
3018
3078
C030
ENDCHAR
STARTCHAR uni2EC8
ENCODING 11976
SWIDTH 1000 0
DWIDTH 16 0
BBX 8 16 4 -2
BITMAP
40
30
18
18
00
18
FC
18
18
18
18
18
18
1F
7C
30
ENDCHAR
STARTCHAR uni2EC9
ENCODING 11977
SWIDTH 1000 0
DWIDTH 16 0
BBX 14 16 0 -2
BITMAP
2030
3FF8
3030
3030
33B0
3330
3330
3330
3330
3330
3330
37B0
0660
0C38
180C
E00C
ENDCHAR
STARTCHAR uni2ECA
ENCODING 11978
SWIDTH 1000 0
DWIDTH 16 0
BBX 8 15 4 -1
BITMAP
46
7F
66
66
66
7E
18
18
58
5E
58
58
5E
F8
C0
ENDCHAR
STARTCHAR uni2ECB
ENCODING 11979
SWIDTH 1000 0
DWIDTH 16 0
BBX 15 16 0 -2
BITMAP
0700
0600
0618
7FFC
0C00
0DC0
1980
19B0
3FF8
3180
018C
FFFE
0180
0180
0180
0180
ENDCHAR
STARTCHAR uni2ECC
ENCODING 11980
SWIDTH 1000 0
DWIDTH 16 0
BBX 15 16 0 -2
BITMAP
4000
2000
3000
3000
0000
0000
3000
F800
3000
3000
3000
3000
3000
3800
EFFE
C7FC
ENDCHAR
STARTCHAR uni2ECD
ENCODING 11981
SWIDTH 1000 0
DWIDTH 16 0
BBX 15 16 0 -2
BITMAP
4000
3000
3000
8000
6000
6000
0000
3000
F800
3000
3000
3000
3000
3800
EFFE
C7FC
ENDCHAR
STARTCHAR uni2ECE
ENCODING 11982
SWIDTH 1000 0
DWIDTH 16 0
BBX 15 16 0 -2
BITMAP
4000
2000
3000
3000
0000
0000
3000
F800
3000
6000
F800
D800
3000
3800
6FFE
87FC
ENDCHAR
STARTCHAR uni2ECF
ENCODING 11983
SWIDTH 1000 0
DWIDTH 16 0
BBX 6 16 5 -2
BITMAP
88
FC
CC
C8
D8
F0
D0
D8
C8
CC
CC
CC
FC
C8
C0
C0
ENDCHAR
STARTCHAR uni2ED0
ENCODING 11984
SWIDTH 1000 0
DWIDTH 16 0
BBX 8 16 4 -2
BITMAP
38
36
3F
30
66
7F
98
18
1A
FF
18
18
18
1B
3C
30
ENDCHAR
STARTCHAR uni2ED1
ENCODING 11985
SWIDTH 1000 0
DWIDTH 16 0
BBX 15 16 0 -2
BITMAP
0830
0FF8
0C00
0C20
0FF0
0C00
0FF0
0C00
0C0C
FFFE
0C8C
0C58
0C60
0FBE
7C1C
7004
ENDCHAR
STARTCHAR uni2ED2
ENCODING 11986
SWIDTH 1000 0
DWIDTH 16 0
BBX 15 16 0 -2
BITMAP
0830
0FF8
0C00
0C20
0FF0
0C00
0FF0
0C00
0C0C
FFFE
0600
0640
0C20
0FF8
7C1C
380C
ENDCHAR
STARTCHAR uni2ED3
ENCODING 11987
SWIDTH 1000 0
DWIDTH 16 0
BBX 15 16 0 -2
BITMAP
0E10
0C38
0C30
0C60
0CC0
0D00
0C0C
FFFE
0D00
0C80
0CC0
0C60
0C30
0D9E
3E0C
1804
ENDCHAR
STARTCHAR uni2ED4
ENCODING 11988
SWIDTH 1000 0
DWIDTH 16 0
BBX 14 16 1 -2
BITMAP
600C
37FC
300C
000C
E00C
C00C
C00C
C00C
C00C
C00C
C00C
C00C
C00C
C00C
C03C
C018
ENDCHAR
STARTCHAR uni2ED5
ENCODING 11989
SWIDTH 1000 0
DWIDTH 16 0
BBX 12 16 2 -2
BITMAP
9840
FFE0
C0C0
C0C0
FFC0
C020
FFF0
C060
C060
FFE0
C000
FFF0
C060
C060
FFE0
C060
ENDCHAR
STARTCHAR uni2ED6
ENCODING 11990
SWIDTH 1000 0
DWIDTH 16 0
BBX 6 16 5 -2
BITMAP
88
FC
CC
C8
D8
F0
D0
D8
C8
CC
CC
CC
FC
C8
C0
C0
ENDCHAR
STARTCHAR uni2ED7
ENCODING 11991
SWIDTH 1000 0
DWIDTH 16 0
BBX 15 8 0 6
BITMAP
0018
7FFC
0184
7FFE
C18C
DDB8
0180
1DB8
ENDCHAR
STARTCHAR uni2ED8
ENCODING 11992
SWIDTH 1000 0
DWIDTH 16 0
BBX 15 16 0 -2
BITMAP
01C0
0198
7FFC
0190
3FF8
018C
FFFE
0000
1FF8
1830
1FF0
1830
1FF0
1830
18F0
1860
ENDCHAR
STARTCHAR uni2ED9
ENCODING 11993
SWIDTH 1000 0
DWIDTH 16 0
BBX 15 16 0 -2
BITMAP
0380
0300
030C
7FFE
0300
0318
3FFC
0300
030C
FFFE
030C
030C
033C
0318
0300
0300
ENDCHAR
STARTCHAR uni2EDA
ENCODING 11994
SWIDTH 1000 0
DWIDTH 16 0
BBX 15 16 0 -2
BITMAP
000C
FFFE
0180
2330
3FF8
3030
33B0
3330
3330
3330
3330
3730
06E0
0C30
381C
E00C
ENDCHAR
STARTCHAR uni2EDB
ENCODING 11995
SWIDTH 1000 0
DWIDTH 16 0
BBX 15 16 0 -2
BITMAP
4018
7FFC
6018
6058
6878
64D8
66D8
6398
6318
6398
66DA
64DA
686C
506C
400E
8006
ENDCHAR
STARTCHAR uni2EDC
ENCODING 11996
SWIDTH 1000 0
DWIDTH 16 0
BBX 15 16 0 -2
BITMAP
00C0
FFE0
00C8
00CE
00DC
00F0
00C0
00F0
00DC
00CC
00C0
0062
0064
003C
001E
000E
ENDCHAR
STARTCHAR uni2EDD
ENCODING 11997
SWIDTH 1000 0
DWIDTH 16 0
BBX 15 16 0 -2
BITMAP
0180
01C0
0320
07F0
0C1E
3FFC
CC34
0FF0
0C30
0FF0
0E0C
0D98
0CD0
0CFE
7F1C
3804
ENDCHAR
STARTCHAR uni2EDE
ENCODING 11998
SWIDTH 1000 0
DWIDTH 16 0
BBX 7 16 4 -2
BITMAP
18
18
36
26
7E
80
7C
6C
7C
6C
7C
60
7C
60
7C
60
ENDCHAR
STARTCHAR uni2EDF
ENCODING 11999
SWIDTH 1000 0
DWIDTH 16 0
BBX 8 16 4 -2
BITMAP
18
16
3F
23
7E
E6
7E
66
66
7E
64
66
6E
7B
F3
C0
ENDCHAR
STARTCHAR uni2EE0
ENCODING 12000
SWIDTH 1000 0
DWIDTH 16 0
BBX 7 16 5 -2
BITMAP
30
30
34
7E
44
78
B0
30
30
30
30
30
34
38
70
20
ENDCHAR
STARTCHAR uni2EE1
ENCODING 12001
SWIDTH 1000 0
DWIDTH 16 0
BBX 15 16 0 -2
BITMAP
1998
3330
6660
1998
1998
FFFE
0180
1318
1FFC
1818
1FF8
1818
1FF8
1818
1FF8
1818
ENDCHAR
STARTCHAR uni2EE2
ENCODING 12002
SWIDTH 1000 0
DWIDTH 16 0
BBX 15 16 0 -2
BITMAP
0060
3FF0
0060
1860
1860
18C0
30CC
3FFE
300C
00CC
FFEC
000C
0018
0038
01F0
0060
ENDCHAR
STARTCHAR uni2EE3
ENCODING 12003
SWIDTH 1000 0
DWIDTH 16 0
BBX 15 16 0 -2
BITMAP
1030
1FF8
1830
1BF0
5B34
7FFE
D00C
DFF8
1830
1FF0
1830
1FF0
1830
1830
18F0
1860
ENDCHAR
STARTCHAR uni2EE4
ENCODING 12004
SWIDTH 1000 0
DWIDTH 16 0
BBX 15 16 0 -2
BITMAP
0300
2618
3FFC
3318
3318
3FF8
3318
3318
3FF8
29B0
0DA8
0DB8
19EC
198C
31FE
C0FC
ENDCHAR
STARTCHAR uni2EE5
ENCODING 12005
SWIDTH 1000 0
DWIDTH 16 0
BBX 15 15 0 -1
BITMAP
0600
0640
0FE0
18C0
3198
DFFC
1998
1998
1FF8
1998
1998
1FF8
1818
000C
FFFE
ENDCHAR
STARTCHAR uni2EE6
ENCODING 12006
SWIDTH 1000 0
DWIDTH 16 0
BBX 15 16 0 -2
BITMAP
0180
1330
1FF8
1830
1B30
19F0
1960
1804
1FFE
1806
0066
FFF6
0006
000C
007C
0018
ENDCHAR
STARTCHAR uni2EE7
ENCODING 12007
SWIDTH 1000 0
DWIDTH 16 0
BBX 14 16 1 -2
BITMAP
0380
0330
03F8
0300
8318
FFFC
C098
D8D8
CF98
C318
C798
CCD8
F0D8
C018
FFF8
C018
ENDCHAR
STARTCHAR uni2EE8
ENCODING 12008
SWIDTH 1000 0
DWIDTH 16 0
BBX 15 16 0 -2
BITMAP
01C0
0198
7FFC
0190
3FF8
0180
018C
FFFE
0310
07F8
0E30
1960
61C0
037E
0E1C
F004
ENDCHAR
STARTCHAR uni2EE9
ENCODING 12009
SWIDTH 1000 0
DWIDTH 16 0
BBX 15 16 0 -2
BITMAP
0E70
0C68
7FFC
0C60
0C6C
FFFE
0180
1FF8
1998
1FF8
1998
1998
1FF8
0C38
1C0C
700C
ENDCHAR
STARTCHAR uni2EEA
ENCODING 12010
SWIDTH 1000 0
DWIDTH 16 0
BBX 14 16 1 -2
BITMAP
4030
7FF8
6030
6030
7FF0
8618
FFFC
C618
FFF8
C618
C618
FFF8
C608
060C
07FC
03F8
ENDCHAR
STARTCHAR uni2EEB
ENCODING 12011
SWIDTH 1000 0
DWIDTH 16 0
BBX 15 16 0 -2
BITMAP
01C0
018C
FFFE
0860
04C0
07C0
0EFE
F83C
1830
1FF0
1830
1830
1FF0
3030
2030
C030
ENDCHAR
STARTCHAR uni2EEC
ENCODING 12012
SWIDTH 1000 0
DWIDTH 16 0
BBX 15 16 0 -2
BITMAP
01C0
018C
FFFE
0860
0460
06C0
03C0
0EFE
F03C
0E64
0C60
0C60
0C60
1860
1060
6060
ENDCHAR
STARTCHAR uni2EED
ENCODING 12013
SWIDTH 1000 0
DWIDTH 16 0
BBX 15 16 0 -2
BITMAP
0190
1DF8
1980
198C
FFFE
0000
35AE
37EC
318C
3FFC
318C
33EC
3DAC
318C
3FFC
300C
ENDCHAR
STARTCHAR uni2EEE
ENCODING 12014
SWIDTH 1000 0
DWIDTH 16 0
BBX 15 16 0 -2
BITMAP
01C0
1D90
19F8
1984
FFFE
0000
31CE
318C
318C
334C
336C
366C
380C
300C
3FFC
300C
ENDCHAR
STARTCHAR uni2EEF
ENCODING 12015
SWIDTH 1000 0
DWIDTH 16 0
BBX 15 16 0 -2
BITMAP
0188
7FFC
0460
064C
FFFE
2008
3FFC
3198
3198
3FF8
3198
3198
3FFC
3184
01FE
00FC
ENDCHAR
STARTCHAR uni2EF0
ENCODING 12016
SWIDTH 1000 0
DWIDTH 16 0
BBX 15 16 0 -2
BITMAP
03E0
0330
0330
030C
FFFE
0300
03D8
06D8
06F0
06F0
06E0
0CC4
0DC4
1BC6
34FE
C07C
ENDCHAR
STARTCHAR uni2EF1
ENCODING 12017
SWIDTH 1000 0
DWIDTH 16 0
BBX 15 16 0 -2
BITMAP
0CC0
1FE0
3188
FFFC
36D8
3EF8
76C4
16FE
FECC
16F4
76DC
16EC
FEFC
16C6
77FE
13FC
ENDCHAR
STARTCHAR uni2EF2
ENCODING 12018
SWIDTH 1000 0
DWIDTH 16 0
BBX 15 16 0 -2
BITMAP
0C40
0FE0
18D0
3FF8
D9B0
1FF0
19B0
5FF0
7FFC
6198
7FF8
6198
7FFC
6186
01FE
00FC
ENDCHAR
STARTCHAR uni2EF3
ENCODING 12019
SWIDTH 1000 0
DWIDTH 16 0
BBX 15 16 0 -2
BITMAP
0E00
0C60
0FF0
18C0
2198
FFFC
3318
3318
3FF8
3318
3318
3FF8
3304
0306
03FE
01FC
ENDCHAR
STARTCHAR uni2F00
ENCODING 12032
SWIDTH 1000 0
DWIDTH 16 0
BBX 15 3 0 6
BITMAP
0008
001C
FFFE
ENDCHAR
STARTCHAR uni2F01
ENCODING 12033
SWIDTH 1000 0
DWIDTH 16 0
BBX 3 16 6 -2
BITMAP
E0
C0
C0
C0
C0
C0
C0
C0
C0
C0
C0
C0
C0
C0
C0
C0
ENDCHAR
STARTCHAR uni2F02
ENCODING 12034
SWIDTH 1000 0
DWIDTH 16 0
BBX 9 10 3 2
BITMAP
8000
6000
3000
1800
0C00
0E00
0700
0300
0380
0180
ENDCHAR
STARTCHAR uni2F03
ENCODING 12035
SWIDTH 1000 0
DWIDTH 16 0
BBX 9 16 1 -2
BITMAP
0380
0300
0300
0300
0300
0300
0300
0300
0300
0300
0600
0600
0600
0C00
1800
E000
ENDCHAR
STARTCHAR uni2F04
ENCODING 12036
SWIDTH 1000 0
DWIDTH 16 0
BBX 15 16 0 -2
BITMAP
0030
FFF8
0030
0060
00C0
0180
0300
0600
0C00
1800
3000
6000
6004
E004
7FFE
3FFC
ENDCHAR
STARTCHAR uni2F05
ENCODING 12037
SWIDTH 1000 0
DWIDTH 16 0
BBX 6 16 4 -2
BITMAP
1C
18
18
18
18
18
18
18
18
18
18
18
18
18
F8
30
ENDCHAR
STARTCHAR uni2F06
ENCODING 12038
SWIDTH 1000 0
DWIDTH 16 0
BBX 15 11 0 1
BITMAP
0030
3FF8
0000
0000
0000
0000
0000
0000
0000
000C
FFFE
ENDCHAR
STARTCHAR uni2F07
ENCODING 12039
SWIDTH 1000 0
DWIDTH 16 0
BBX 15 5 0 9
BITMAP
01C0
0180
0180
018C
FFFE
ENDCHAR
STARTCHAR uni2F08
ENCODING 12040
SWIDTH 1000 0
DWIDTH 16 0
BBX 15 16 0 -2
BITMAP
01C0
0180
0180
0180
0180
0180
0180
0340
0340
0340
0620
0630
0C10
181E
300C
C004
ENDCHAR
STARTCHAR uni2F09
ENCODING 12041
SWIDTH 1000 0
DWIDTH 16 0
BBX 15 16 0 -2
BITMAP
0EE0
0CC0
0CC0
0CC0
0CC0
0CC0
0CC0
0CC0
0CC0
0CC0
0CC0
18C4
18C4
30C6
20FE
C07C
ENDCHAR
STARTCHAR uni2F0A
ENCODING 12042
SWIDTH 1000 0
DWIDTH 16 0
BBX 15 16 0 -2
BITMAP
0180
1FC0
0080
0080
0080
0180
0180
01C0
0340
0340
0220
0630
0C18
181E
300C
C004
ENDCHAR
STARTCHAR uni2F0B
ENCODING 12043
SWIDTH 1000 0
DWIDTH 16 0
BBX 15 16 0 -2
BITMAP
0040
04E0
0740
0640
0640
0640
0620
0420
0C20
0C30
0810
1818
1018
200E
400C
8004
ENDCHAR
STARTCHAR uni2F0C
ENCODING 12044
SWIDTH 1000 0
DWIDTH 16 0
BBX 14 16 1 -2
BITMAP
8018
FFFC
C018
C018
C018
C018
C018
C018
C018
C018
C018
C018
C018
C018
C078
C030
ENDCHAR
STARTCHAR uni2F0D
ENCODING 12045
SWIDTH 1000 0
DWIDTH 16 0
BBX 15 4 0 5
BITMAP
4004
7FFE
C006
C008
ENDCHAR
STARTCHAR uni2F0E
ENCODING 12046
SWIDTH 1000 0
DWIDTH 16 0
BBX 8 16 4 -2
BITMAP
40
30
18
19
02
02
04
04
08
18
98
70
30
20
30
30
ENDCHAR
STARTCHAR uni2F0F
ENCODING 12047
SWIDTH 1000 0
DWIDTH 16 0
BBX 15 16 0 -2
BITMAP
0860
0FF0
0C60
0C60
0C60
0C60
0C60
0C60
0C60
0C60
0C60
1864
1864
3066
207E
C03C
ENDCHAR
STARTCHAR uni2F10
ENCODING 12048
SWIDTH 1000 0
DWIDTH 16 0
BBX 14 16 1 -2
BITMAP
E01C
C018
C018
C018
C018
C018
C018
C018
C018
C018
C018
C018
C018
C018
FFF8
C018
ENDCHAR
STARTCHAR uni2F11
ENCODING 12049
SWIDTH 1000 0
DWIDTH 16 0
BBX 15 15 0 -2
BITMAP
000C
7FFE
060C
060C
060C
060C
060C
060C
060C
0C0C
0C0C
0818
1818
30F8
C030
ENDCHAR
STARTCHAR uni2F12
ENCODING 12050
SWIDTH 1000 0
DWIDTH 16 0
BBX 15 16 0 -2
BITMAP
0380
0300
0300
030C
FFFE
030C
030C
030C
030C
060C
060C
060C
0C18
1818
30F8
C030
ENDCHAR
STARTCHAR uni2F13
ENCODING 12051
SWIDTH 1000 0
DWIDTH 16 0
BBX 15 16 0 -2
BITMAP
0800
0C00
0C0C
1FFE
180C
300C
200C
400C
800C
000C
0018
0018
0018
0030
00F0
0060
ENDCHAR
STARTCHAR uni2F14
ENCODING 12052
SWIDTH 1000 0
DWIDTH 16 0
BBX 14 16 0 -2
BITMAP
1C00
1800
1800
1810
1838
1870
18C0
1B80
1E00
F800
1800
1808
1808
180C
1FFC
0FF8
ENDCHAR
STARTCHAR uni2F15
ENCODING 12053
SWIDTH 1000 0
DWIDTH 16 0
BBX 14 16 1 -2
BITMAP
8030
FFF8
C000
C000
C000
C000
C000
C000
C000
C000
C000
C000
C000
C018
FFFC
C000
ENDCHAR
STARTCHAR uni2F16
ENCODING 12054
SWIDTH 1000 0
DWIDTH 16 0
BBX 15 15 0 -1
BITMAP
000C
FFFE
3000
3000
3000
3000
3000
3000
3000
3000
3000
3000
3000
3FFC
1FFC
ENDCHAR
STARTCHAR uni2F17
ENCODING 12055
SWIDTH 1000 0
DWIDTH 16 0
BBX 15 16 0 -2
BITMAP
01C0
0180
0180
0180
0180
018C
FFFE
0180
0180
0180
0180
0180
0180
0180
0180
0180
ENDCHAR
STARTCHAR uni2F18
ENCODING 12056
SWIDTH 1000 0
DWIDTH 16 0
BBX 8 16 6 -2
BITMAP
E0
C0
C0
C0
C0
F0
DC
CE
C7
C3
C0
C0
C0
C0
C0
C0
ENDCHAR
STARTCHAR uni2F19
ENCODING 12057
SWIDTH 1000 0
DWIDTH 16 0
BBX 9 16 4 -2
BITMAP
8300
FF80
C300
C300
C300
C300
C300
C300
C300
C300
C300
DF00
C600
C000
C000
C000
ENDCHAR
STARTCHAR uni2F1A
ENCODING 12058
SWIDTH 1000 0
DWIDTH 16 0
BBX 15 16 0 -2
BITMAP
200C
3FFE
3000
3000
3000
3000
3000
3000
3000
3000
3000
2000
6000
6000
4000
8000
ENDCHAR
STARTCHAR uni2F1B
ENCODING 12059
SWIDTH 1000 0
DWIDTH 16 0
BBX 15 15 0 -1
BITMAP
0100
0180
0180
0300
0300
0300
0200
0620
0410
0410
0C08
080C
11FC
FF86
F006
ENDCHAR
STARTCHAR uni2F1C
ENCODING 12060
SWIDTH 1000 0
DWIDTH 16 0
BBX 15 15 0 -2
BITMAP
0018
7FFC
0818
0830
0430
0460
0260
02C0
0180
0180
03C0
0670
0C3E
300C
C004
ENDCHAR
STARTCHAR uni2F1D
ENCODING 12061
SWIDTH 1000 0
DWIDTH 16 0
BBX 12 14 2 -1
BITMAP
8060
FFF0
C060
C060
C060
C060
C060
C060
C060
C060
C060
C060
FFE0
C060
ENDCHAR
STARTCHAR uni2F1E
ENCODING 12062
SWIDTH 1000 0
DWIDTH 16 0
BBX 14 16 1 -2
BITMAP
8018
FFFC
C018
C018
C018
C018
C018
C018
C018
C018
C018
C018
C018
C018
FFF8
C018
ENDCHAR
STARTCHAR uni2F1F
ENCODING 12063
SWIDTH 1000 0
DWIDTH 16 0
BBX 15 15 0 -1
BITMAP
01C0
0180
0180
0180
0180
01B0
3FF8
0180
0180
0180
0180
0180
0180
018C
FFFE
ENDCHAR
STARTCHAR uni2F20
ENCODING 12064
SWIDTH 1000 0
DWIDTH 16 0
BBX 15 15 0 -1
BITMAP
01C0
0180
0180
0180
0180
018C
FFFE
0180
0180
0180
0180
0180
0180
0198
7FFC
ENDCHAR
STARTCHAR uni2F21
ENCODING 12065
SWIDTH 1000 0
DWIDTH 16 0
BBX 15 16 0 -2
BITMAP
0200
0300
0318
07FC
0618
0C30
1C30
3260
C360
01C0
0180
03C0
0670
0C3E
300C
C004
ENDCHAR
STARTCHAR uni2F22
ENCODING 12066
SWIDTH 1000 0
DWIDTH 16 0
BBX 15 16 0 -2
BITMAP
0200
2300
2318
17FC
1618
0C30
1C30
3460
C260
03C0
0180
03C0
0670
0C3E
300C
C004
ENDCHAR
STARTCHAR uni2F23
ENCODING 12067
SWIDTH 1000 0
DWIDTH 16 0
BBX 14 16 0 -2
BITMAP
0300
0318
07FC
0618
0C18
1C30
1630
6360
01E0
00C0
0180
0300
0600
0C00
3000
C000
ENDCHAR
STARTCHAR uni2F24
ENCODING 12068
SWIDTH 1000 0
DWIDTH 16 0
BBX 15 16 0 -2
BITMAP
01C0
0180
0180
0180
018C
FFFE
0180
0340
0340
0340
0620
0630
0C10
181E
300C
C004
ENDCHAR
STARTCHAR uni2F25
ENCODING 12069
SWIDTH 1000 0
DWIDTH 16 0
BBX 15 16 0 -2
BITMAP
0380
0300
0300
0600
060C
FFFE
0C30
0C30
1830
1860
3C60
33C0
01E0
0338
0E1C
F00C
ENDCHAR
STARTCHAR uni2F26
ENCODING 12070
SWIDTH 1000 0
DWIDTH 16 0
BBX 15 16 0 -2
BITMAP
0008
3FFC
0018
0030
0160
0180
018C
FFFE
0180
0180
0180
0180
0180
0180
0F80
0300
ENDCHAR
STARTCHAR uni2F27
ENCODING 12071
SWIDTH 1000 0
DWIDTH 16 0
BBX 15 6 0 5
BITMAP
01C0
0180
4184
7FFE
C006
C008
ENDCHAR
STARTCHAR uni2F28
ENCODING 12072
SWIDTH 1000 0
DWIDTH 16 0
BBX 15 16 0 -2
BITMAP
0038
0030
0030
0034
FFFE
0030
1030
0C30
0630
0630
0030
0030
0030
0030
01F0
0060
ENDCHAR
STARTCHAR uni2F29
ENCODING 12073
SWIDTH 1000 0
DWIDTH 16 0
BBX 15 16 0 -2
BITMAP
01C0
0180
0180
0180
11A0
1D90
1998
318C
318C
2186
4186
8186
0180
0180
0F80
0300
ENDCHAR
STARTCHAR uni2F2A
ENCODING 12074
SWIDTH 1000 0
DWIDTH 16 0
BBX 15 16 0 -2
BITMAP
0380
0300
0300
030C
FFFE
0300
03E0
03C0
06C0
06C0
06C0
0CC4
0CC4
18C6
30FE
C07C
ENDCHAR
STARTCHAR uni2F2B
ENCODING 12075
SWIDTH 1000 0
DWIDTH 16 0
BBX 14 16 0 -2
BITMAP
2018
3FFC
3018
3018
3018
3FF8
3018
3000
3000
3000
3000
2000
6000
6000
4000
8000
ENDCHAR
STARTCHAR uni2F2C
ENCODING 12076
SWIDTH 1000 0
DWIDTH 16 0
BBX 14 16 1 -2
BITMAP
0380
0300
E31C
C318
C318
C318
C318
C318
C318
FFF8
C318
0300
0300
0300
0300
0300
ENDCHAR
STARTCHAR uni2F2D
ENCODING 12077
SWIDTH 1000 0
DWIDTH 16 0
BBX 14 16 1 -2
BITMAP
0380
0300
0300
0300
E31C
C318
C318
C318
C318
C318
C318
C318
C318
C318
FFF8
C018
ENDCHAR
STARTCHAR uni2F2E
ENCODING 12078
SWIDTH 1000 0
DWIDTH 16 0
BBX 14 16 1 -2
BITMAP
0CCC
0CCC
1998
1998
3330
2220
4440
8880
CCC0
6660
3330
1110
1998
1998
0CCC
0CCC
ENDCHAR
STARTCHAR uni2F2F
ENCODING 12079
SWIDTH 1000 0
DWIDTH 16 0
BBX 15 14 0 -1
BITMAP
0018
7FFC
0180
0180
0180
0180
0180
0180
0180
0180
0180
0180
018C
FFFE
ENDCHAR
STARTCHAR uni2F30
ENCODING 12080
SWIDTH 1000 0
DWIDTH 16 0
BBX 15 16 0 -2
BITMAP
0018
FFFC
0018
0018
0018
4018
7FF8
6018
6000
6000
6000
6004
6004
6006
7FFE
3FFC
ENDCHAR
STARTCHAR uni2F31
ENCODING 12081
SWIDTH 1000 0
DWIDTH 16 0
BBX 13 16 2 -2
BITMAP
0700
0600
8630
FFF8
C630
C630
C630
C630
C630
C630
C630
C6F0
C660
0600
0600
0600
ENDCHAR
STARTCHAR uni2F32
ENCODING 12082
SWIDTH 1000 0
DWIDTH 16 0
BBX 15 16 0 -2
BITMAP
0018
7FFC
0180
0180
0180
0180
018C
FFFE
0180
0180
0180
0180
0180
0180
0180
0180
ENDCHAR
STARTCHAR uni2F33
ENCODING 12083
SWIDTH 1000 0
DWIDTH 16 0
BBX 14 15 0 -1
BITMAP
0100
0380
0300
0620
0470
3860
0CC0
0EC0
0780
0120
0310
0218
07F8
FF0C
E00C
ENDCHAR
STARTCHAR uni2F34
ENCODING 12084
SWIDTH 1000 0
DWIDTH 16 0
BBX 15 16 0 -2
BITMAP
01C0
418C
7FFE
6000
6000
6000
6000
6000
6000
6000
6000
6000
6000
4000
4000
8000
ENDCHAR
STARTCHAR uni2F35
ENCODING 12085
SWIDTH 1000 0
DWIDTH 16 0
BBX 15 16 0 -2
BITMAP
0800
FC00
1800
1800
3000
3600
7E00
6600
0C00
2C00
2800
1800
1000
3800
4FFE
83FC
ENDCHAR
STARTCHAR uni2F36
ENCODING 12086
SWIDTH 1000 0
DWIDTH 16 0
BBX 15 16 0 -2
BITMAP
0E70
0C60
0C60
0C60
0C60
0C6C
FFFE
0C60
0C60
0C60
0C60
0C60
1860
1860
3060
C060
ENDCHAR
STARTCHAR uni2F37
ENCODING 12087
SWIDTH 1000 0
DWIDTH 16 0
BBX 15 16 0 -2
BITMAP
01D8
018C
018C
0184
FFFE
0180
0180
00C0
00C0
00C0
0064
0074
0034
001C
001E
0006
ENDCHAR
STARTCHAR uni2F38
ENCODING 12088
SWIDTH 1000 0
DWIDTH 16 0
BBX 15 16 0 -2
BITMAP
0018
FFFC
0018
2018
3FF8
3018
3000
300C
7FFE
600C
000C
000C
0018
0018
01F0
0060
ENDCHAR
STARTCHAR uni2F39
ENCODING 12089
SWIDTH 937 0
DWIDTH 15 0
BBX 14 15 0 -1
BITMAP
0030
7FF8
0030
0030
0030
0030
0030
3FF0
0030
0030
0030
0030
0030
0038
FFFC
ENDCHAR
STARTCHAR uni2F3A
ENCODING 12090
SWIDTH 1000 0
DWIDTH 16 0
BBX 13 16 1 -2
BITMAP
0080
01C0
0380
0700
1C40
E0E0
01C0
0380
0610
1838
6070
00E0
0180
0700
1C00
E000
ENDCHAR
STARTCHAR uni2F3B
ENCODING 12091
SWIDTH 1000 0
DWIDTH 16 0
BBX 10 16 2 -2
BITMAP
0100
0380
0700
0C00
1880
61C0
0380
0600
0E00
3600
C600
0600
0600
0600
0600
0600
ENDCHAR
STARTCHAR uni2F3C
ENCODING 12092
SWIDTH 1000 0
DWIDTH 16 0
BBX 15 15 0 -1
BITMAP
0100
00C0
0060
0760
0600
0610
2608
260C
2606
6606
C610
C610
0618
07F8
03F0
ENDCHAR
STARTCHAR uni2F3D
ENCODING 12093
SWIDTH 1000 0
DWIDTH 16 0
BBX 15 16 0 -2
BITMAP
03B0
0318
0318
0304
03FE
FF00
0310
0198
01B8
01B0
00E0
01C4
03F4
0E3C
701E
0004
ENDCHAR
STARTCHAR uni2F3E
ENCODING 12094
SWIDTH 1000 0
DWIDTH 16 0
BBX 14 16 0 -2
BITMAP
0070
21F8
3FC0
3018
3FFC
3018
3018
3018
3FF8
3018
3000
3000
2000
6000
4000
8000
ENDCHAR
STARTCHAR uni2F3F
ENCODING 12095
SWIDTH 1000 0
DWIDTH 16 0
BBX 15 16 0 -2
BITMAP
0030
01F8
3FC0
0180
0198
7FFC
0180
0180
018C
FFFE
0180
0180
0180
0180
0F80
0300
ENDCHAR
STARTCHAR uni2F40
ENCODING 12096
SWIDTH 1000 0
DWIDTH 16 0
BBX 15 16 0 -2
BITMAP
01C0
0180
018C
FFFE
0180
0180
01B0
3FF8
0430
0260
0360
01C0
03E0
067E
1C1C
E004
ENDCHAR
STARTCHAR uni2F41
ENCODING 12097
SWIDTH 1000 0
DWIDTH 16 0
BBX 15 16 0 -2
BITMAP
01C0
0198
01FC
0180
0180
0198
7FFC
0818
0830
0430
0660
03C0
0180
07E0
1C7E
E01C
ENDCHAR
STARTCHAR uni2F42
ENCODING 12098
SWIDTH 1000 0
DWIDTH 16 0
BBX 15 16 0 -2
BITMAP
01C0
0180
018C
FFFE
0830
0830
0830
0460
0460
02C0
03C0
0180
03C0
0670
183E
E00C
ENDCHAR
STARTCHAR uni2F43
ENCODING 12099
SWIDTH 1000 0
DWIDTH 16 0
BBX 15 16 0 -2
BITMAP
1070
0C60
0660
0660
0060
2060
1860
0C60
0C6C
007E
0FE0
F060
0060
0060
0060
0060
ENDCHAR
STARTCHAR uni2F44
ENCODING 12100
SWIDTH 1000 0
DWIDTH 16 0
BBX 15 16 0 -2
BITMAP
0030
21F8
3FC0
3000
3000
300C
3FFE
30C0
30C0
30C0
30C0
20C0
60C0
40C0
80C0
00C0
ENDCHAR
STARTCHAR uni2F45
ENCODING 12101
SWIDTH 1000 0
DWIDTH 16 0
BBX 15 16 0 -2
BITMAP
01C0
0180
018C
FFFE
0600
0600
0618
07FC
0618
0618
0618
0C18
0C18
1830
31F0
C060
ENDCHAR
STARTCHAR uni2F46
ENCODING 12102
SWIDTH 1000 0
DWIDTH 16 0
BBX 15 16 0 -2
BITMAP
0018
7FFC
0300
0300
0300
030C
FFFE
0300
03E0
06C0
06C0
06C4
0CC4
18C6
30FE
C07C
ENDCHAR
STARTCHAR uni2F47
ENCODING 12103
SWIDTH 1000 0
DWIDTH 16 0
BBX 11 14 3 -1
BITMAP
80C0
FFE0
C0C0
C0C0
C0C0
C0C0
FFC0
C0C0
C0C0
C0C0
C0C0
C0C0
FFC0
C0C0
ENDCHAR
STARTCHAR uni2F48
ENCODING 12104
SWIDTH 1000 0
DWIDTH 16 0
BBX 13 16 2 -2
BITMAP
8030
FFF8
C030
C030
C030
C030
C330
FFB0
C030
C030
C030
C030
C030
C030
FFF0
C030
ENDCHAR
STARTCHAR uni2F49
ENCODING 12105
SWIDTH 1000 0
DWIDTH 16 0
BBX 13 16 1 -2
BITMAP
1030
1FF8
1830
1830
1830
1FF0
1830
1830
1830
1FF0
1830
1830
1030
3030
21F0
C060
ENDCHAR
STARTCHAR uni2F4A
ENCODING 12106
SWIDTH 1000 0
DWIDTH 16 0
BBX 15 16 0 -2
BITMAP
01C0
0180
0180
018C
FFFE
03C0
03C0
07A0
0DA0
0DB0
1998
319E
618C
8184
0180
0180
ENDCHAR
STARTCHAR uni2F4B
ENCODING 12107
SWIDTH 1000 0
DWIDTH 16 0
BBX 15 16 0 -2
BITMAP
1800
1800
1804
3FFE
200C
4388
8310
0300
0380
0280
0640
0460
0C30
181E
300C
C004
ENDCHAR
STARTCHAR uni2F4C
ENCODING 12108
SWIDTH 1000 0
DWIDTH 16 0
BBX 15 15 0 -1
BITMAP
01C0
0180
0180
0180
3980
3180
3198
31FC
3180
3180
3180
3180
3180
318C
FFFE
ENDCHAR
STARTCHAR uni2F4D
ENCODING 12109
SWIDTH 1000 0
DWIDTH 16 0
BBX 15 16 0 -2
BITMAP
000C
FFFE
0300
0300
0630
0FF8
0C30
1860
2E60
C6C0
0180
0300
0600
0C00
3000
C000
ENDCHAR
STARTCHAR uni2F4E
ENCODING 12110
SWIDTH 1000 0
DWIDTH 16 0
BBX 15 16 0 -2
BITMAP
0860
0FF0
0C60
0C60
0C60
187E
303E
C030
3FF8
0830
0460
02C0
0380
07E0
1C7E
E01C
ENDCHAR
STARTCHAR uni2F4F
ENCODING 12111
SWIDTH 1000 0
DWIDTH 16 0
BBX 15 16 0 -2
BITMAP
1018
1FFC
1998
1998
1998
199C
FFFE
3330
3330
3330
3330
3634
7FFE
6C30
19F0
6060
ENDCHAR
STARTCHAR uni2F50
ENCODING 12112
SWIDTH 1000 0
DWIDTH 16 0
BBX 15 16 0 -2
BITMAP
38E0
30C0
30C0
30C0
30CC
32DC
3FF0
30C0
30C0
30C0
30C0
30C4
33C4
3CC6
F0FE
C07C
ENDCHAR
STARTCHAR uni2F51
ENCODING 12113
SWIDTH 1000 0
DWIDTH 16 0
BBX 15 16 0 -2
BITMAP
0060
03F0
3F00
0300
0318
7FFC
0300
0300
030C
FFFE
0300
0304
0304
0306
03FE
01FC
ENDCHAR
STARTCHAR uni2F52
ENCODING 12114
SWIDTH 1000 0
DWIDTH 16 0
BBX 15 16 0 -2
BITMAP
0030
21F8
3FC0
3180
3180
318C
3FFE
30C0
30C0
30C0
3060
3064
3034
37BC
FC1E
E006
ENDCHAR
STARTCHAR uni2F53
ENCODING 12115
SWIDTH 1000 0
DWIDTH 16 0
BBX 15 16 0 -2
BITMAP
0C00
0C18
1FFC
1800
37F8
6000
8030
3FF8
0030
0030
0030
0034
001C
001C
000E
0006
ENDCHAR
STARTCHAR uni2F54
ENCODING 12116
SWIDTH 1000 0
DWIDTH 16 0
BBX 15 16 0 -2
BITMAP
01C0
0180
0180
0188
0D8C
FFDC
0DD0
0DE0
19A0
19B0
3190
219E
418C
8184
0780
0300
ENDCHAR
STARTCHAR uni2F55
ENCODING 12117
SWIDTH 1000 0
DWIDTH 16 0
BBX 15 16 0 -2
BITMAP
01C0
0180
0180
0988
099C
0998
19E0
3180
31C0
0340
0360
0630
0C38
181E
300C
C004
ENDCHAR
STARTCHAR uni2F56
ENCODING 12118
SWIDTH 1000 0
DWIDTH 16 0
BBX 15 16 0 -2
BITMAP
0030
20F8
3FE0
3020
33A0
3320
3320
3310
3310
3310
3318
230C
630E
4304
8304
0300
ENDCHAR
STARTCHAR uni2F57
ENCODING 12119
SWIDTH 1000 0
DWIDTH 16 0
BBX 15 16 0 -2
BITMAP
0420
0E18
0C0C
1826
3036
4430
0460
0260
0240
01C0
0180
03C0
0670
0C3E
300C
C004
ENDCHAR
STARTCHAR uni2F58
ENCODING 12120
SWIDTH 1000 0
DWIDTH 16 0
BBX 15 16 0 -2
BITMAP
0020
1C70
03E0
01C0
0370
0C38
3058
0460
04E0
02C0
0380
0380
06C0
0C70
303E
C00C
ENDCHAR
STARTCHAR uni2F59
ENCODING 12121
SWIDTH 1000 0
DWIDTH 16 0
BBX 13 16 0 -2
BITMAP
0E38
0C30
0C30
0C30
0C30
0FF0
0C30
0030
7FF0
0630
0630
0C30
0C30
1830
3030
C030
ENDCHAR
STARTCHAR uni2F5A
ENCODING 12122
SWIDTH 1000 0
DWIDTH 16 0
BBX 15 16 0 -2
BITMAP
38E0
30C0
30C0
30CC
3FFE
3000
3000
3060
3FF0
3060
3060
2060
6060
4060
8060
0060
ENDCHAR
STARTCHAR uni2F5B
ENCODING 12123
SWIDTH 1000 0
DWIDTH 16 0
BBX 15 16 0 -2
BITMAP
0018
7FFC
0060
1C60
1860
186C
3FFE
33E0
0360
0660
0C60
1860
3060
C060
01E0
00C0
ENDCHAR
STARTCHAR uni2F5C
ENCODING 12124
SWIDTH 1000 0
DWIDTH 16 0
BBX 15 16 0 -2
BITMAP
01C0
1980
1980
3198
3FFC
6180
4180
8180
018C
FFFE
0180
0180
0180
0180
0180
0180
ENDCHAR
STARTCHAR uni2F5D
ENCODING 12125
SWIDTH 1000 0
DWIDTH 16 0
BBX 15 16 0 -2
BITMAP
0180
01B0
0198
0198
0184
FFFE
0180
03C0
0340
0360
0620
0630
0C18
181E
300C
C004
ENDCHAR
STARTCHAR uni2F5E
ENCODING 12126
SWIDTH 1000 0
DWIDTH 16 0
BBX 15 16 0 -2
BITMAP
01C0
0180
018C
FFFE
0380
0300
2620
1C70
0E60
06C0
0390
0308
020C
05FC
FF8E
7804
ENDCHAR
STARTCHAR uni2F5F
ENCODING 12127
SWIDTH 1000 0
DWIDTH 16 0
BBX 15 15 0 -1
BITMAP
000C
FFFE
0300
0300
0300
0300
0318
7FFC
0300
0340
0360
0330
0330
030C
FFFE
ENDCHAR
STARTCHAR uni2F60
ENCODING 12128
SWIDTH 1000 0
DWIDTH 16 0
BBX 15 16 0 -2
BITMAP
0038
21FC
3FD0
3010
3390
3310
3310
3310
3310
3318
3398
2358
23EC
7F6E
4C24
8004
ENDCHAR
STARTCHAR uni2F61
ENCODING 12129
SWIDTH 1000 0
DWIDTH 16 0
BBX 15 16 0 -2
BITMAP
000C
FFFE
0C00
0C60
0FF0
0C60
0C60
0E60
1B60
1B60
1860
1864
1BE4
1E66
F87E
E03C
ENDCHAR
STARTCHAR uni2F62
ENCODING 12130
SWIDTH 1000 0
DWIDTH 16 0
BBX 15 16 0 -2
BITMAP
1C38
1830
1830
1834
FFFE
1830
1830
1830
1830
1FF0
1830
1830
1830
1830
1FF0
1830
ENDCHAR
STARTCHAR uni2F63
ENCODING 12131
SWIDTH 1000 0
DWIDTH 16 0
BBX 15 15 0 -1
BITMAP
01C0
1180
1980
1998
3FFC
2180
6180
4180
81B0
3FF8
0180
0180
0180
018C
FFFE
ENDCHAR
STARTCHAR uni2F64
ENCODING 12132
SWIDTH 1000 0
DWIDTH 16 0
BBX 15 16 0 -2
BITMAP
200C
3FFE
318C
318C
318C
3FFC
318C
318C
318C
3FFC
318C
318C
218C
618C
41BC
8018
ENDCHAR
STARTCHAR uni2F65
ENCODING 12133
SWIDTH 1000 0
DWIDTH 16 0
BBX 14 14 1 -1
BITMAP
8018
FFFC
C318
C318
C318
C318
FFF8
C318
C318
C318
C318
C318
FFF8
C018
ENDCHAR
STARTCHAR uni2F66
ENCODING 12134
SWIDTH 1000 0
DWIDTH 16 0
BBX 15 16 0 -2
BITMAP
0004
FFFE
018C
0190
1180
1980
1998
19FC
1980
1980
1980
3180
3180
2D80
47FE
81FC
ENDCHAR
STARTCHAR uni2F67
ENCODING 12135
SWIDTH 1000 0
DWIDTH 16 0
BBX 15 16 0 -2
BITMAP
01C0
418C
7FFE
6000
6000
6000
6000
6000
6000
6000
6000
6000
6000
4000
4000
8000
ENDCHAR
STARTCHAR uni2F68
ENCODING 12136
SWIDTH 1000 0
DWIDTH 16 0
BBX 15 10 0 2
BITMAP
0080
7FD0
01B8
43A4
334C
1E68
0C30
181E
300C
C004
ENDCHAR
STARTCHAR uni2F69
ENCODING 12137
SWIDTH 1000 0
DWIDTH 16 0
BBX 12 16 2 -2
BITMAP
0600
0600
8C60
FFF0
C060
C060
C060
C060
FFE0
C060
C060
C060
C060
C060
FFE0
C060
ENDCHAR
STARTCHAR uni2F6A
ENCODING 12138
SWIDTH 1000 0
DWIDTH 16 0
BBX 15 16 0 -2
BITMAP
01C0
0180
2184
3FFE
318C
3188
3190
3FF8
3230
3260
3160
21C0
63E0
423E
8C1C
3004
ENDCHAR
STARTCHAR uni2F6B
ENCODING 12139
SWIDTH 1000 0
DWIDTH 16 0
BBX 15 14 0 -1
BITMAP
2018
3FFC
36D8
36D8
36D8
36D8
36D8
36D8
36D8
36D8
36D8
36D8
36DC
FFFE
ENDCHAR
STARTCHAR uni2F6C
ENCODING 12140
SWIDTH 1000 0
DWIDTH 16 0
BBX 12 16 2 -2
BITMAP
8060
FFF0
C060
C060
C060
FFE0
C060
C060
C060
FFE0
C060
C060
C060
C060
FFE0
C060
ENDCHAR
STARTCHAR uni2F6D
ENCODING 12141
SWIDTH 1000 0
DWIDTH 16 0
BBX 15 16 0 -2
BITMAP
0020
1FF0
0060
0480
03C0
018C
FFFE
038C
0790
0780
0D80
1980
3180
C180
0780
0300
ENDCHAR
STARTCHAR uni2F6E
ENCODING 12142
SWIDTH 1000 0
DWIDTH 16 0
BBX 15 16 0 -2
BITMAP
1800
1830
1FF8
3180
2180
4180
018C
FFFE
0180
0340
0340
0620
0C30
181E
300C
C004
ENDCHAR
STARTCHAR uni2F6F
ENCODING 12143
SWIDTH 1000 0
DWIDTH 16 0
BBX 15 16 0 -2
BITMAP
000C
FFFE
0600
0600
0C00
0C00
1818
3FFC
5818
9818
1818
1818
1818
1818
1FF8
1818
ENDCHAR
STARTCHAR uni2F70
ENCODING 12144
SWIDTH 1000 0
DWIDTH 16 0
BBX 15 16 0 -2
BITMAP
0030
3FF8
0000
0000
0000
000C
FFFE
0180
09A0
1D90
1998
318C
6186
8186
0780
0300
ENDCHAR
STARTCHAR uni2F71
ENCODING 12145
SWIDTH 1000 0
DWIDTH 16 0
BBX 14 16 1 -2
BITMAP
0380
0300
0300
8318
FFFC
C618
C618
C498
C458
FFF8
DC78
D078
C018
C018
C078
C030
ENDCHAR
STARTCHAR uni2F72
ENCODING 12146
SWIDTH 1000 0
DWIDTH 16 0
BBX 15 16 0 -2
BITMAP
0038
01FC
7FC0
0180
0180
018C
FFFE
03C0
07C0
05A0
0DB0
199E
318C
C184
0180
0180
ENDCHAR
STARTCHAR uni2F73
ENCODING 12147
SWIDTH 1000 0
DWIDTH 16 0
BBX 15 16 0 -2
BITMAP
01C0
0180
4184
7FFE
C00C
C050
09E0
0C40
0C40
1820
1820
1030
3018
201E
400C
8004
ENDCHAR
STARTCHAR uni2F74
ENCODING 12148
SWIDTH 1000 0
DWIDTH 16 0
BBX 15 15 0 -1
BITMAP
01C0
0180
0198
7FFC
1020
1030
1030
1830
0860
0C60
0C40
0C40
0880
008C
FFFE
ENDCHAR
STARTCHAR uni2F75
ENCODING 12149
SWIDTH 1000 0
DWIDTH 16 0
BBX 15 16 0 -2
BITMAP
1040
1860
1860
32CC
3FFE
7998
5918
9A18
1818
1818
1818
1818
1818
1818
1878
1830
ENDCHAR
STARTCHAR uni2F76
ENCODING 12150
SWIDTH 1000 0
DWIDTH 16 0
BBX 15 16 0 -2
BITMAP
01C0
2188
199C
1D98
0DB0
01AC
FFFE
07C0
07C0
0DA0
0DB0
1990
319E
618C
8184
0180
ENDCHAR
STARTCHAR uni2F77
ENCODING 12151
SWIDTH 1000 0
DWIDTH 16 0
BBX 15 16 0 -2
BITMAP
0100
0380
0320
1670
0C60
06C0
0788
0304
FFFE
F186
09B0
1D98
198C
3186
C186
0180
ENDCHAR
STARTCHAR uni2F78
ENCODING 12152
SWIDTH 1000 0
DWIDTH 16 0
BBX 15 16 0 -2
BITMAP
1800
1818
1FFC
3180
2180
C180
018C
FFFE
0180
399C
3198
3198
3198
3198
3FF8
3018
ENDCHAR
STARTCHAR uni2F79
ENCODING 12153
SWIDTH 1000 0
DWIDTH 16 0
BBX 14 16 1 -2
BITMAP
800C
FFFC
C44C
C66C
E66C
D76C
DDCC
CCCC
CCEC
CEEC
DBBC
D33C
E22C
C40C
C03C
C018
ENDCHAR
STARTCHAR uni2F7A
ENCODING 12154
SWIDTH 1000 0
DWIDTH 16 0
BBX 15 16 0 -2
BITMAP
0830
0670
0648
7FFC
0180
0190
3FF8
0180
0180
018C
FFFE
0180
0180
0180
0180
0180
ENDCHAR
STARTCHAR uni2F7B
ENCODING 12155
SWIDTH 1000 0
DWIDTH 16 0
BBX 15 16 0 -2
BITMAP
0606
FEFE
1616
1E1E
3E3E
3636
6666
5656
9E9E
3E3E
3636
6666
4646
8686
1E1E
0C0C
ENDCHAR
STARTCHAR uni2F7C
ENCODING 12156
SWIDTH 1000 0
DWIDTH 16 0
BBX 15 16 0 -2
BITMAP
0380
0318
0358
7FF0
0330
036C
FFFE
0180
0318
063C
0EF0
3784
C604
0606
07FE
03FC
ENDCHAR
STARTCHAR uni2F7D
ENCODING 12157
SWIDTH 1000 0
DWIDTH 16 0
BBX 15 16 0 -2
BITMAP
000C
FFFE
0180
0300
4206
7FFE
6666
6666
6666
6666
6666
6666
6666
6666
666E
600C
ENDCHAR
STARTCHAR uni2F7E
ENCODING 12158
SWIDTH 1000 0
DWIDTH 16 0
BBX 15 16 0 -2
BITMAP
01D8
01BC
7FE0
0180
0198
3FFC
0180
018C
FFFE
03C0
07C0
05A0
0DB0
199E
318C
C184
ENDCHAR
STARTCHAR uni2F7F
ENCODING 12159
SWIDTH 1000 0
DWIDTH 16 0
BBX 15 16 0 -2
BITMAP
000C
FFFE
1830
1830
1FF0
1830
1830
1830
1FF0
1830
1834
183E
FFF0
0030
0030
0030
ENDCHAR
STARTCHAR uni2F80
ENCODING 12160
SWIDTH 1000 0
DWIDTH 16 0
BBX 15 16 0 -2
BITMAP
01C0
0198
3FFC
0198
FFFE
0198
3FF8
0188
0198
7FFC
0180
018C
FFFE
0180
0180
0180
ENDCHAR
STARTCHAR uni2F81
ENCODING 12161
SWIDTH 1000 0
DWIDTH 16 0
BBX 14 16 1 -2
BITMAP
0380
830C
FFFC
C30C
C30C
C6CC
CC6C
DB6C
E30C
C30C
C6CC
CC6C
F06C
C00C
C07C
C018
ENDCHAR
STARTCHAR uni2F82
ENCODING 12162
SWIDTH 1000 0
DWIDTH 16 0
BBX 14 16 1 -2
BITMAP
8030
FFF8
C600
C600
C630
FFF8
C030
C030
C030
FFF0
C630
C600
C600
C618
FFFC
C000
ENDCHAR
STARTCHAR uni2F83
ENCODING 12163
SWIDTH 1000 0
DWIDTH 16 0
BBX 10 16 3 -2
BITMAP
1800
B180
FFC0
C180
C180
C180
FF80
C180
C180
C180
FF80
C180
C180
C180
FF80
C180
ENDCHAR
STARTCHAR uni2F84
ENCODING 12164
SWIDTH 1000 0
DWIDTH 16 0
BBX 15 15 0 -1
BITMAP
000C
FFFE
0300
0220
0610
05F8
7F0C
380C
0180
01B0
3FF8
0180
0180
018C
FFFE
ENDCHAR
STARTCHAR uni2F85
ENCODING 12165
SWIDTH 1000 0
DWIDTH 16 0
BBX 14 16 1 -2
BITMAP
0400
9E18
F9FC
C018
C018
C018
C018
C818
FDF8
C018
C018
C018
C018
C018
FFF8
C018
ENDCHAR
STARTCHAR uni2F86
ENCODING 12166
SWIDTH 1000 0
DWIDTH 16 0
BBX 15 16 0 -2
BITMAP
0038
7FFC
0180
0180
018C
FFFE
0180
0180
2198
3FFC
3018
3018
3018
3018
3FF8
3018
ENDCHAR
STARTCHAR uni2F87
ENCODING 12167
SWIDTH 1000 0
DWIDTH 16 0
BBX 15 16 0 -2
BITMAP
3038
3030
3230
3F34
67FC
4630
67B0
97B0
1DB0
0DB4
0BFE
1B30
3030
2030
4030
8030
ENDCHAR
STARTCHAR uni2F88
ENCODING 12168
SWIDTH 1000 0
DWIDTH 16 0
BBX 15 16 0 -2
BITMAP
0180
1330
1FF8
1A30
1B30
19B0
1934
FFFE
1830
1BB0
1B30
1B30
1330
3330
20F0
C060
ENDCHAR
STARTCHAR uni2F89
ENCODING 12169
SWIDTH 1000 0
DWIDTH 16 0
BBX 14 16 1 -2
BITMAP
2060
3FF0
3060
3060
3FE0
3060
3060
3FE0
3220
3230
3130
3160
30C0
3F7C
F838
C008
ENDCHAR
STARTCHAR uni2F8A
ENCODING 12170
SWIDTH 1000 0
DWIDTH 16 0
BBX 15 16 0 -2
BITMAP
0620
07F0
0C60
1848
3FFC
7198
B198
3198
3FF8
3018
3000
3004
3004
3006
3FFE
1FFC
ENDCHAR
STARTCHAR uni2F8B
ENCODING 12171
SWIDTH 1000 0
DWIDTH 16 0
BBX 15 16 0 -2
BITMAP
1C38
1830
1830
DAB6
DAB6
DAB6
DAB6
DAB6
DAB6
FEFE
DAB6
1830
3030
3030
2030
C030
ENDCHAR
STARTCHAR uni2F8C
ENCODING 12172
SWIDTH 1000 0
DWIDTH 16 0
BBX 15 16 0 -2
BITMAP
01C0
0188
01FC
0180
2184
3FFE
3006
31C8
3180
3198
3FFC
3180
2184
6186
41FE
80FC
ENDCHAR
STARTCHAR uni2F8D
ENCODING 12173
SWIDTH 1000 0
DWIDTH 16 0
BBX 15 16 0 -2
BITMAP
01C0
0180
418C
7FFE
618C
618C
618C
618C
7FFC
618C
0190
0188
018C
FFFC
7C06
4006
ENDCHAR
STARTCHAR uni2F8E
ENCODING 12174
SWIDTH 1000 0
DWIDTH 16 0
BBX 15 15 0 -1
BITMAP
0100
0180
0380
2218
3FFC
36D8
36D8
36D8
36D8
36D8
36D8
36D8
36D8
36DC
FFFE
ENDCHAR
STARTCHAR uni2F8F
ENCODING 12175
SWIDTH 1000 0
DWIDTH 16 0
BBX 15 16 0 -2
BITMAP
1818
1BFC
3000
6000
8C00
1C0C
1BFE
3030
7030
B030
3030
3030
3030
3030
31F0
3060
ENDCHAR
STARTCHAR uni2F90
ENCODING 12176
SWIDTH 1000 0
DWIDTH 16 0
BBX 15 16 0 -2
BITMAP
01C0
0180
018C
FFFE
0300
0700
0688
0C9C
1C98
2CF0
CC40
0C60
0CB8
0F1E
7C0C
3004
ENDCHAR
STARTCHAR uni2F91
ENCODING 12177
SWIDTH 1000 0
DWIDTH 16 0
BBX 15 16 0 -2
BITMAP
000C
FFFE
06C0
06C0
46CC
7FFE
66CC
66CC
66CC
66CC
67CC
66CC
600C
600C
600C
600C
ENDCHAR
STARTCHAR uni2F92
ENCODING 12178
SWIDTH 1000 0
DWIDTH 16 0
BBX 15 16 0 -2
BITMAP
1030
1FF8
1830
1830
1FF0
1830
1830
1FF0
1830
1830
1FF0
04C4
0EC4
0CC6
18FE
E07C
ENDCHAR
STARTCHAR uni2F93
ENCODING 12179
SWIDTH 1000 0
DWIDTH 16 0
BBX 14 16 0 -2
BITMAP
0CC0
0FE0
18C0
3118
7FFC
9998
1998
1FF8
1998
1998
1FF8
1818
1818
3018
3078
C030
ENDCHAR
STARTCHAR uni2F94
ENCODING 12180
SWIDTH 1000 0
DWIDTH 16 0
BBX 15 16 0 -2
BITMAP
0060
1FF0
000C
FFFE
0000
0020
1FF0
0020
1FF0
0000
1030
1FF8
1830
1830
1FF0
1830
ENDCHAR
STARTCHAR uni2F95
ENCODING 12181
SWIDTH 1000 0
DWIDTH 16 0
BBX 15 16 0 -2
BITMAP
0860
1C18
190C
638C
0340
0660
0C38
381E
D02C
1FF8
1830
1830
1830
1830
1FF0
1830
ENDCHAR
STARTCHAR uni2F96
ENCODING 12182
SWIDTH 1000 0
DWIDTH 16 0
BBX 15 15 0 -1
BITMAP
000C
FFFE
0000
1030
1FF8
1830
1830
1830
1830
1FF0
0820
0C70
0660
044C
FFFE
ENDCHAR
STARTCHAR uni2F97
ENCODING 12183
SWIDTH 1000 0
DWIDTH 16 0
BBX 15 16 0 -2
BITMAP
000C
FFFE
0180
0308
0F1C
3B98
C6B0
0CE0
31E0
C3E0
06D0
0CD8
30CE
C0CC
0384
0100
ENDCHAR
STARTCHAR uni2F98
ENCODING 12184
SWIDTH 1000 0
DWIDTH 16 0
BBX 12 16 1 -2
BITMAP
0180
0320
0E70
7BE0
31C0
1700
1C80
E1C0
03C0
0E60
38E0
C1E0
0760
1C60
E1C0
0080
ENDCHAR
STARTCHAR uni2F99
ENCODING 12185
SWIDTH 1000 0
DWIDTH 16 0
BBX 14 16 0 -2
BITMAP
2018
3FFC
3018
3018
3FF8
3018
3018
3FF8
3018
3018
3018
3FF8
0C60
1C38
300C
C00C
ENDCHAR
STARTCHAR uni2F9A
ENCODING 12186
SWIDTH 1000 0
DWIDTH 16 0
BBX 15 16 0 -2
BITMAP
01C0
0180
0198
7FFC
0180
018C
FFFE
0660
2660
3678
366C
6666
4C66
8C60
19E0
60C0
ENDCHAR
STARTCHAR uni2F9B
ENCODING 12187
SWIDTH 1000 0
DWIDTH 16 0
BBX 15 16 0 -2
BITMAP
01C0
0198
7FFC
0180
0180
018C
FFFE
0180
1180
19B0
19F8
1980
3980
2D80
47FE
81FC
ENDCHAR
STARTCHAR uni2F9C
ENCODING 12188
SWIDTH 1000 0
DWIDTH 16 0
BBX 15 16 0 -2
BITMAP
1018
1FFC
1818
1818
1818
1818
1FF8
1998
0180
1D98
19FC
1980
1D80
3580
23FE
C0FC
ENDCHAR
STARTCHAR uni2F9D
ENCODING 12189
SWIDTH 1000 0
DWIDTH 16 0
BBX 14 16 1 -2
BITMAP
2620
3FF0
3060
3060
3FE0
3068
306C
3FEC
3078
3070
FFE0
F1E0
0760
1C60
E1E0
00C0
ENDCHAR
STARTCHAR uni2F9E
ENCODING 12190
SWIDTH 1000 0
DWIDTH 16 0
BBX 15 16 0 -2
BITMAP
01C0
018C
FFFE
0180
3FF8
3198
3198
3FF8
3198
3198
3FF8
3198
018C
FFFE
0180
0180
ENDCHAR
STARTCHAR uni2F9F
ENCODING 12191
SWIDTH 1000 0
DWIDTH 16 0
BBX 15 16 0 -2
BITMAP
01C0
0198
7FFC
0830
0C30
0E60
044C
FFFE
0180
0180
0198
7FFC
0180
0180
0180
0180
ENDCHAR
STARTCHAR uni2FA0
ENCODING 12192
SWIDTH 1000 0
DWIDTH 16 0
BBX 15 16 0 -2
BITMAP
2018
3FFC
3000
3010
3FF8
3000
3018
3FFC
3688
368C
3658
2670
6630
47DE
9F0C
1804
ENDCHAR
STARTCHAR uni2FA1
ENCODING 12193
SWIDTH 1000 0
DWIDTH 16 0
BBX 15 16 0 -2
BITMAP
0100
0380
0740
3CE0
0390
3E3C
01E0
7F80
1180
19B0
19F8
1980
3980
2D80
47FE
81FC
ENDCHAR
STARTCHAR uni2FA2
ENCODING 12194
SWIDTH 1000 0
DWIDTH 16 0
BBX 14 16 1 -2
BITMAP
2040
3FE0
30C0
30C0
3FC0
30C0
8010
FFF8
C630
C630
FFF0
C030
C008
C00C
FFFC
7FF8
ENDCHAR
STARTCHAR uni2FA3
ENCODING 12195
SWIDTH 1000 0
DWIDTH 16 0
BBX 15 16 0 -2
BITMAP
000C
FFFE
06C0
46CC
7FFE
66CC
66CC
6CFC
687C
700C
600C
7FFC
600C
600C
7FFC
600C
ENDCHAR
STARTCHAR uni2FA4
ENCODING 12196
SWIDTH 1000 0
DWIDTH 16 0
BBX 15 16 0 -2
BITMAP
0038
03FC
7F80
1198
1998
0DB0
09AC
FFFE
07C0
07C0
0DA0
0DB0
199E
318C
C184
0180
ENDCHAR
STARTCHAR uni2FA5
ENCODING 12197
SWIDTH 1000 0
DWIDTH 16 0
BBX 15 15 0 -1
BITMAP
2018
3FFC
3198
3198
3FF8
3198
3198
3198
3FF8
2188
01B0
3FF8
0180
018C
FFFE
ENDCHAR
STARTCHAR uni2FA6
ENCODING 12198
SWIDTH 1000 0
DWIDTH 16 0
BBX 15 15 0 -1
BITMAP
0180
0380
0340
0660
0C38
185E
37EC
C184
0198
3FFC
0190
1998
0DB0
0DA4
FFFE
ENDCHAR
STARTCHAR uni2FA7
ENCODING 12199
SWIDTH 1000 0
DWIDTH 16 0
BBX 15 16 0 -2
BITMAP
0830
0FF8
0C00
0C20
0FF0
0C00
0FF0
0C00
0C0C
FFFE
0C8C
0C58
0C60
0FBE
7C1C
7004
ENDCHAR
STARTCHAR uni2FA8
ENCODING 12200
SWIDTH 1000 0
DWIDTH 16 0
BBX 14 16 1 -2
BITMAP
868C
FEFC
C6CC
FEFC
C6CC
C6CC
FEFC
C28C
C00C
C00C
C00C
C00C
C00C
C00C
C03C
C018
ENDCHAR
STARTCHAR uni2FA9
ENCODING 12201
SWIDTH 1000 0
DWIDTH 16 0
BBX 15 16 0 -2
BITMAP
2610
3FF8
3030
3030
3FF0
3008
3FFC
3018
3018
3FF8
3180
018C
FFFE
0180
0180
0180
ENDCHAR
STARTCHAR uni2FAA
ENCODING 12202
SWIDTH 1000 0
DWIDTH 16 0
BBX 15 16 0 -2
BITMAP
0198
3FFC
0198
0198
FFFE
0198
0198
3FF8
218C
199C
1BD0
0DE0
39B0
E19E
478C
0304
ENDCHAR
STARTCHAR uni2FAB
ENCODING 12203
SWIDTH 1000 0
DWIDTH 16 0
BBX 15 16 0 -2
BITMAP
0C30
0C30
1860
104C
3FFE
70C0
B0C8
3FFC
30C0
30C8
3FFC
30C0
30C0
30CC
3FFE
3000
ENDCHAR
STARTCHAR uni2FAC
ENCODING 12204
SWIDTH 1000 0
DWIDTH 16 0
BBX 15 16 0 -2
BITMAP
000C
FFFE
0180
0180
4186
7FFE
6186
71C6
6DB6
6DB6
6186
71C6
6DB6
6DB6
618E
618C
ENDCHAR
STARTCHAR uni2FAD
ENCODING 12205
SWIDTH 1000 0
DWIDTH 16 0
BBX 15 16 0 -2
BITMAP
01C0
0198
7FFC
0190
3FF8
018C
FFFE
0000
1FF8
19B0
19B0
1FF0
1830
1830
18F0
1860
ENDCHAR
STARTCHAR uni2FAE
ENCODING 12206
SWIDTH 1000 0
DWIDTH 16 0
BBX 15 16 0 -2
BITMAP
0770
0660
0664
FE7E
0660
0660
0668
7E7C
0660
0660
3E64
E47E
4C60
1860
1060
6060
ENDCHAR
STARTCHAR uni2FAF
ENCODING 12207
SWIDTH 1000 0
DWIDTH 16 0
BBX 15 16 0 -2
BITMAP
000C
FFFE
0300
0600
440C
7FFE
66CC
66CC
67CC
66CC
66CC
67CC
66CC
66CC
7FFC
600C
ENDCHAR
STARTCHAR uni2FB0
ENCODING 12208
SWIDTH 1000 0
DWIDTH 16 0
BBX 15 16 0 -2
BITMAP
0E70
0C6C
FFFE
0C60
0C60
0FE0
3198
3FFC
3198
3198
3FF8
018C
FFFE
0180
0180
0180
ENDCHAR
STARTCHAR uni2FB1
ENCODING 12209
SWIDTH 1000 0
DWIDTH 16 0
BBX 15 16 0 -2
BITMAP
0310
3FF8
0630
0634
FFFE
1010
1FF8
1830
1FF0
0190
7FF8
1980
198C
3FFE
3180
0180
ENDCHAR
STARTCHAR uni2FB2
ENCODING 12210
SWIDTH 1000 0
DWIDTH 16 0
BBX 15 15 0 -1
BITMAP
0770
0660
0668
7E7C
0660
0660
3E78
0660
0660
0668
7E7C
0660
0660
066C
FFFE
ENDCHAR
STARTCHAR uni2FB3
ENCODING 12211
SWIDTH 1000 0
DWIDTH 16 0
BBX 15 16 0 -2
BITMAP
0380
0318
7FFC
1830
0C70
0C4C
FFFE
0000
1FF0
1830
1830
1FF0
1830
1830
1FF0
1830
ENDCHAR
STARTCHAR uni2FB4
ENCODING 12212
SWIDTH 1000 0
DWIDTH 16 0
BBX 15 16 0 -2
BITMAP
000C
FFFE
0180
1330
1FF8
1830
1FF0
1830
1830
1FF0
1830
1830
1FF0
1830
3C1C
E00C
ENDCHAR
STARTCHAR uni2FB5
ENCODING 12213
SWIDTH 1000 0
DWIDTH 16 0
BBX 15 16 0 -2
BITMAP
4018
7FFC
6098
63D8
6F18
6318
6FD8
6B58
6B58
6FD8
6B5A
635A
63EC
5E6C
582E
8006
ENDCHAR
STARTCHAR uni2FB6
ENCODING 12214
SWIDTH 1000 0
DWIDTH 16 0
BBX 15 16 0 -2
BITMAP
0034
7FF6
033C
1F38
3B36
FB1A
1B6E
FFF6
1B68
1B6C
1B68
133E
3332
231C
430E
8306
ENDCHAR
STARTCHAR uni2FB7
ENCODING 12215
SWIDTH 1000 0
DWIDTH 16 0
BBX 15 16 0 -2
BITMAP
0180
01C0
0320
07F0
0C1E
3FFC
CC34
0FF0
0C30
0FF0
0E0C
0D98
0CD0
0CFE
7F1C
3804
ENDCHAR
STARTCHAR uni2FB8
ENCODING 12216
SWIDTH 1000 0
DWIDTH 16 0
BBX 15 16 0 -2
BITMAP
1030
0C70
0C4C
FFFE
0180
1318
1FFC
1818
1FF8
1818
1818
1FF8
1818
1818
1FF8
1818
ENDCHAR
STARTCHAR uni2FB9
ENCODING 12217
SWIDTH 1000 0
DWIDTH 16 0
BBX 15 16 0 -2
BITMAP
0070
03F8
3F80
018C
FFFE
07C0
0DB0
199E
3FFC
D81C
1818
1FF8
1818
1818
1FF8
1818
ENDCHAR
STARTCHAR uni2FBA
ENCODING 12218
SWIDTH 1000 0
DWIDTH 16 0
BBX 15 16 0 -2
BITMAP
2018
3FFC
3180
3190
3FF8
3180
3190
3FF8
3180
3186
3FFE
2A46
6936
CDAC
CD9C
0008
ENDCHAR
STARTCHAR uni2FBB
ENCODING 12219
SWIDTH 1000 0
DWIDTH 16 0
BBX 15 16 0 -2
BITMAP
1030
1FF8
1830
1BF0
5B34
7FFE
D00C
DFF8
1830
1FF0
1830
1FF0
1830
1830
18F0
1860
ENDCHAR
STARTCHAR uni2FBC
ENCODING 12220
SWIDTH 1000 0
DWIDTH 16 0
BBX 15 16 0 -2
BITMAP
01C0
018C
FFFE
0000
1FF0
1830
1FF0
400C
7FFE
600C
6FEC
6C6C
6C6C
6FEC
603C
6018
ENDCHAR
STARTCHAR uni2FBD
ENCODING 12221
SWIDTH 1000 0
DWIDTH 16 0
BBX 15 16 0 -2
BITMAP
2208
3F0C
3018
3E30
30C0
3404
3E0E
3018
3270
FF80
3006
2206
6F0C
F338
C060
0380
ENDCHAR
STARTCHAR uni2FBE
ENCODING 12222
SWIDTH 1000 0
DWIDTH 16 0
BBX 14 16 1 -2
BITMAP
E00C
DDEC
C84C
DDEC
C84C
DDEC
C00C
C00C
C00C
C00C
C00C
C00C
C00C
C00C
C03C
C018
ENDCHAR
STARTCHAR uni2FBF
ENCODING 12223
SWIDTH 1000 0
DWIDTH 16 0
BBX 14 15 1 -2
BITMAP
E5B8
D9B0
CD30
F6B0
D730
C9B0
D4B0
FFF0
C040
61E0
6788
7C08
600C
7FFC
3FF8
ENDCHAR
STARTCHAR uni2FC0
ENCODING 12224
SWIDTH 1000 0
DWIDTH 16 0
BBX 15 16 0 -2
BITMAP
000C
FFFE
0000
1FF0
1830
1830
1FF0
400C
7FFE
644C
66EC
628C
6FEC
618C
61BC
6198
ENDCHAR
STARTCHAR uni2FC1
ENCODING 12225
SWIDTH 1000 0
DWIDTH 16 0
BBX 15 16 0 -2
BITMAP
0300
2618
3FFC
3318
3318
3FF8
3318
3318
3FF8
29B0
0DA8
0DB8
19EC
198C
31FE
C0FC
ENDCHAR
STARTCHAR uni2FC2
ENCODING 12226
SWIDTH 1000 0
DWIDTH 16 0
BBX 15 16 0 -2
BITMAP
0600
0640
0FE0
18C0
3198
DFFC
1998
1998
1FF8
1998
1998
1FF8
1488
344C
E666
C666
ENDCHAR
STARTCHAR uni2FC3
ENCODING 12227
SWIDTH 1000 0
DWIDTH 16 0
BBX 15 16 0 -2
BITMAP
0300
1630
1FF8
1830
1FF0
1830
1FF0
1808
1FFC
1804
1FFE
2926
29B6
ED8C
CC7C
0018
ENDCHAR
STARTCHAR uni2FC4
ENCODING 12228
SWIDTH 1000 0
DWIDTH 16 0
BBX 14 16 1 -2
BITMAP
0380
0330
03F8
0300
8318
FFFC
C698
D8D8
EF98
F378
C7B8
CCD8
F6D8
C218
FFF8
C018
ENDCHAR
STARTCHAR uni2FC5
ENCODING 12229
SWIDTH 1000 0
DWIDTH 16 0
BBX 15 16 0 -2
BITMAP
4184
7FFE
6660
6664
7FFE
666C
666C
7FFC
6C60
6C6C
6FEC
6C78
4C64
4FE6
BE7E
183C
ENDCHAR
STARTCHAR uni2FC6
ENCODING 12230
SWIDTH 1000 0
DWIDTH 16 0
BBX 15 16 0 -2
BITMAP
0180
018C
FFFE
1998
39B8
2FEC
67C4
8DB0
333E
C7EC
0C64
1AC0
61E0
0338
0C18
F000
ENDCHAR
STARTCHAR uni2FC7
ENCODING 12231
SWIDTH 1000 0
DWIDTH 16 0
BBX 15 16 0 -2
BITMAP
01C0
418C
7FFE
6000
6738
66B4
7FFE
6630
7774
7774
7774
7776
56F4
56B6
A736
0630
ENDCHAR
STARTCHAR uni2FC8
ENCODING 12232
SWIDTH 1000 0
DWIDTH 16 0
BBX 15 16 0 -2
BITMAP
0E70
0C68
7FFC
0C60
0FE0
000C
FFFE
0000
1FF8
1998
1FF8
1998
1FF8
0C38
1C0C
700C
ENDCHAR
STARTCHAR uni2FC9
ENCODING 12233
SWIDTH 1000 0
DWIDTH 16 0
BBX 15 16 0 -2
BITMAP
0030
3FF8
0184
FFFE
07C0
0DB0
399E
E38C
0E64
19BE
EDAC
0DB4
0FF0
799C
338C
0300
ENDCHAR
STARTCHAR uni2FCA
ENCODING 12234
SWIDTH 1000 0
DWIDTH 16 0
BBX 15 16 0 -2
BITMAP
2018
3FFC
3198
3DB8
37F8
37D8
3198
3FF8
0180
0198
7FFC
0184
FFFE
244C
E666
C666
ENDCHAR
STARTCHAR uni2FCB
ENCODING 12235
SWIDTH 1000 0
DWIDTH 16 0
BBX 15 16 0 -2
BITMAP
266C
366C
1668
FFFE
0DF0
199C
3186
FFFE
3198
3598
37D8
35F8
3DF8
3998
31B8
3190
ENDCHAR
STARTCHAR uni2FCC
ENCODING 12236
SWIDTH 1000 0
DWIDTH 16 0
BBX 14 16 1 -2
BITMAP
8018
FFFC
CD98
FDF8
0D80
8D98
FDFC
CD98
FDF8
CD98
CD98
FDF8
CD88
0C0C
0FFC
07F8
ENDCHAR
STARTCHAR uni2FCD
ENCODING 12237
SWIDTH 1000 0
DWIDTH 16 0
BBX 15 16 0 -2
BITMAP
0820
6FEE
6C6C
6FEC
6C6C
6FEC
6C6C
6FEC
600C
7EFC
06C0
FEFE
36CC
36CC
66CC
86CC
ENDCHAR
STARTCHAR uni2FCE
ENCODING 12238
SWIDTH 1000 0
DWIDTH 16 0
BBX 15 16 0 -2
BITMAP
1870
1A64
FFFE
1860
7E60
0068
7FFC
6698
6698
7E58
2650
3470
3770
FCDE
618C
0604
ENDCHAR
STARTCHAR uni2FCF
ENCODING 12239
SWIDTH 1000 0
DWIDTH 16 0
BBX 15 16 0 -2
BITMAP
4C08
7CFC
6018
7CF8
6018
7FF8
0000
7BDC
6F78
6318
7BD8
6F7A
631A
7FFC
F78E
4206
ENDCHAR
STARTCHAR uni2FD0
ENCODING 12240
SWIDTH 1000 0
DWIDTH 16 0
BBX 15 16 0 -2
BITMAP
0600
1FF0
1830
1FF0
1830
1FF0
2008
3FFC
3198
3FF8
3198
3FF8
0004
FFFE
0C60
7860
ENDCHAR
STARTCHAR uni2FD1
ENCODING 12241
SWIDTH 1000 0
DWIDTH 16 0
BBX 15 16 0 -2
BITMAP
01C0
018C
FFFE
0ACC
FD78
6D68
6D6C
4D7C
B9E6
18B4
1FF0
1830
1FF0
1830
3030
C030
ENDCHAR
STARTCHAR uni2FD2
ENCODING 12242
SWIDTH 1000 0
DWIDTH 16 0
BBX 15 16 0 -2
BITMAP
0180
1D90
19F8
1984
FFFE
0660
376E
3BBC
300C
3FFC
366C
376C
3BBC
300C
3FFC
300C
ENDCHAR
STARTCHAR uni2FD3
ENCODING 12243
SWIDTH 1000 0
DWIDTH 16 0
BBX 15 16 0 -2
BITMAP
1CE0
18C4
FFFE
26C0
34FC
FF0C
00FC
7EC0
66F8
7EC0
66F8
7EC0
66FC
66C4
6EFE
6C7C
ENDCHAR
STARTCHAR uni2FD4
ENCODING 12244
SWIDTH 1000 0
DWIDTH 16 0
BBX 15 16 0 -2
BITMAP
0CC0
1FE0
3188
FFFC
36D8
3EF8
76C4
16FE
FECC
16F4
76DC
16EC
FEFC
16C6
77FE
13FC
ENDCHAR
STARTCHAR uni2FD5
ENCODING 12245
SWIDTH 1000 0
DWIDTH 16 0
BBX 15 16 0 -2
BITMAP
0180
03C0
0630
1FFE
E00C
3BBC
2AA8
3BB8
0008
3FFC
36D8
36D8
3FF8
36D8
36F8
36D8
ENDCHAR
STARTCHAR uni3000
ENCODING 12288
SWIDTH 1000 0
DWIDTH 16 0
BBX 1 1 0 0
BITMAP
00
ENDCHAR
STARTCHAR uni3001
ENCODING 12289
SWIDTH 1000 0
DWIDTH 16 0
BBX 4 5 6 4
BITMAP
80
40
60
30
30
ENDCHAR
STARTCHAR uni3002
ENCODING 12290
SWIDTH 1000 0
DWIDTH 16 0
BBX 5 5 5 4
BITMAP
70
88
88
88
70
ENDCHAR
STARTCHAR uni3003
ENCODING 12291
SWIDTH 1000 0
DWIDTH 16 0
BBX 8 6 3 4
BITMAP
33
33
22
66
44
88
ENDCHAR
STARTCHAR uni3005
ENCODING 12293
SWIDTH 1000 0
DWIDTH 16 0
BBX 12 13 2 -1
BITMAP
0E00
0C00
0C60
1FF0
1860
30C0
20C0
4180
9900
0600
0300
0380
0100
ENDCHAR
STARTCHAR uni3006
ENCODING 12294
SWIDTH 1000 0
DWIDTH 16 0
BBX 14 15 1 -1
BITMAP
0008
0004
000C
0018
0030
0040
1D80
2200
2780
4980
5000
5000
6000
C000
C000
ENDCHAR
STARTCHAR uni3007
ENCODING 12295
SWIDTH 1000 0
DWIDTH 16 0
BBX 15 12 0 0
BITMAP
07C0
1830
2008
4004
8002
8002
8002
8002
4004
2008
1830
07C0
ENDCHAR
STARTCHAR uni3008
ENCODING 12296
SWIDTH 1000 0
DWIDTH 16 0
BBX 5 16 5 -2
BITMAP
08
08
10
10
20
40
40
80
80
40
40
20
10
10
08
08
ENDCHAR
STARTCHAR uni3009
ENCODING 12297
SWIDTH 1000 0
DWIDTH 16 0
BBX 5 16 5 -2
BITMAP
80
80
40
40
20
10
10
08
08
10
10
20
40
40
80
80
ENDCHAR
STARTCHAR uni300A
ENCODING 12298
SWIDTH 1000 0
DWIDTH 16 0
BBX 8 16 4 -2
BITMAP
09
09
12
12
24
48
48
90
90
48
48
24
12
12
09
09
ENDCHAR
STARTCHAR uni300B
ENCODING 12299
SWIDTH 1000 0
DWIDTH 16 0
BBX 8 16 3 -2
BITMAP
90
90
48
48
24
12
12
09
09
12
12
24
48
48
90
90
ENDCHAR
STARTCHAR uni300C
ENCODING 12300
SWIDTH 1000 0
DWIDTH 16 0
BBX 5 12 6 2
BITMAP
F8
80
80
80
80
80
80
80
80
80
80
80
ENDCHAR
STARTCHAR uni300D
ENCODING 12301
SWIDTH 1000 0
DWIDTH 16 0
BBX 5 12 4 -2
BITMAP
08
08
08
08
08
08
08
08
08
08
08
F8
ENDCHAR
STARTCHAR uni300E
ENCODING 12302
SWIDTH 1000 0
DWIDTH 16 0
BBX 6 12 5 2
BITMAP
FC
84
BC
A0
A0
A0
A0
A0
A0
A0
A0
E0
ENDCHAR
STARTCHAR uni300F
ENCODING 12303
SWIDTH 1000 0
DWIDTH 16 0
BBX 6 12 4 -2
BITMAP
1C
14
14
14
14
14
14
14
14
F4
84
FC
ENDCHAR
STARTCHAR uni3010
ENCODING 12304
SWIDTH 1000 0
DWIDTH 16 0
BBX 5 16 6 -2
BITMAP
F8
E0
E0
E0
C0
C0
C0
C0
C0
C0
C0
C0
E0
E0
E0
F8
ENDCHAR
STARTCHAR uni3011
ENCODING 12305
SWIDTH 1000 0
DWIDTH 16 0
BBX 5 16 4 -2
BITMAP
F8
38
38
38
18
18
18
18
18
18
18
18
38
38
38
F8
ENDCHAR
STARTCHAR uni3012
ENCODING 12306
SWIDTH 1000 0
DWIDTH 16 0
BBX 14 15 0 -2
BITMAP
FFFC
FFFC
0000
0000
FFFC
FFFC
0300
0300
0300
0300
0300
0300
0300
0300
0300
ENDCHAR
STARTCHAR uni3013
ENCODING 12307
SWIDTH 1000 0
DWIDTH 16 0
BBX 11 9 2 2
BITMAP
FFE0
FFE0
FFE0
0000
0000
0000
FFE0
FFE0
FFE0
ENDCHAR
STARTCHAR uni3014
ENCODING 12308
SWIDTH 1000 0
DWIDTH 16 0
BBX 4 16 7 -2
BITMAP
10
60
80
80
80
80
80
80
80
80
80
80
80
80
60
10
ENDCHAR
STARTCHAR uni3015
ENCODING 12309
SWIDTH 1000 0
DWIDTH 16 0
BBX 4 16 4 -2
BITMAP
80
60
10
10
10
10
10
10
10
10
10
10
10
10
60
80
ENDCHAR
STARTCHAR uni3016
ENCODING 12310
SWIDTH 1000 0
DWIDTH 16 0
BBX 5 16 6 -2
BITMAP
F8
A0
A0
A0
C0
C0
C0
C0
C0
C0
C0
C0
A0
A0
A0
F8
ENDCHAR
STARTCHAR uni3017
ENCODING 12311
SWIDTH 1000 0
DWIDTH 16 0
BBX 5 16 4 -2
BITMAP
F8
28
28
28
18
18
18
18
18
18
18
18
28
28
28
F8
ENDCHAR
STARTCHAR uni301A
ENCODING 12314
SWIDTH 1000 0
DWIDTH 16 0
BBX 5 16 6 -2
BITMAP
F8
A0
A0
A0
A0
A0
A0
A0
A0
A0
A0
A0
A0
A0
A0
F8
ENDCHAR
STARTCHAR uni301B
ENCODING 12315
SWIDTH 1000 0
DWIDTH 16 0
BBX 5 16 4 -2
BITMAP
F8
28
28
28
28
28
28
28
28
28
28
28
28
28
28
F8
ENDCHAR
STARTCHAR uni301C
ENCODING 12316
SWIDTH 1000 0
DWIDTH 16 0
BBX 15 6 0 3
BITMAP
3C00
6600
8302
0184
00D8
0070
ENDCHAR
STARTCHAR uni301D
ENCODING 12317
SWIDTH 1000 0
DWIDTH 16 0
BBX 6 3 9 10
BITMAP
6C
48
90
ENDCHAR
STARTCHAR uni301F
ENCODING 12319
SWIDTH 1000 0
DWIDTH 16 0
BBX 6 3 1 -1
BITMAP
6C
48
90
ENDCHAR
STARTCHAR uni3021
ENCODING 12321
SWIDTH 1000 0
DWIDTH 16 0
BBX 3 16 6 -2
BITMAP
E0
C0
C0
C0
C0
C0
C0
C0
C0
C0
C0
C0
C0
C0
C0
C0
ENDCHAR
STARTCHAR uni3022
ENCODING 12322
SWIDTH 1000 0
DWIDTH 16 0
BBX 10 16 3 -2
BITMAP
01C0
0180
E180
C180
C180
C180
C180
C180
C180
C180
C180
C180
C180
C180
0180
0180
ENDCHAR
STARTCHAR uni3023
ENCODING 12323
SWIDTH 1000 0
DWIDTH 16 0
BBX 13 16 1 -2
BITMAP
0038
E030
C730
C630
C630
C630
C630
C630
C630
C630
C630
C630
C630
C630
C030
0030
ENDCHAR
STARTCHAR uni3024
ENCODING 12324
SWIDTH 1000 0
DWIDTH 16 0
BBX 14 16 0 -2
BITMAP
001C
0018
0018
0018
0C30
0330
01B0
00E0
0060
00F0
0198
030C
060C
0C0C
3000
C000
ENDCHAR
STARTCHAR uni3025
ENCODING 12325
SWIDTH 1000 0
DWIDTH 16 0
BBX 13 16 1 -2
BITMAP
1040
1860
30E0
21C0
6F80
F6C0
6C60
1830
3018
2018
6018
4030
6030
2060
39C0
0F00
ENDCHAR
STARTCHAR uni3026
ENCODING 12326
SWIDTH 1000 0
DWIDTH 16 0
BBX 15 5 0 6
BITMAP
01C0
0180
0180
018C
FFFE
ENDCHAR
STARTCHAR uni3027
ENCODING 12327
SWIDTH 1000 0
DWIDTH 16 0
BBX 15 11 0 1
BITMAP
01C0
0180
018C
FFFE
0000
0000
0000
0000
0000
0030
3FF8
ENDCHAR
STARTCHAR uni3028
ENCODING 12328
SWIDTH 1000 0
DWIDTH 16 0
BBX 15 15 0 -1
BITMAP
01C0
0180
018C
FFFE
0000
0000
0000
0030
3FF8
0000
0000
0000
0000
000C
FFFE
ENDCHAR
STARTCHAR uni3029
ENCODING 12329
SWIDTH 1000 0
DWIDTH 16 0
BBX 15 16 0 -2
BITMAP
0C00
0C00
1800
1830
3FF8
3430
0430
0460
0660
02C0
0380
0380
06C0
0C70
303E
C00C
ENDCHAR
STARTCHAR uni3038
ENCODING 12344
SWIDTH 1000 0
DWIDTH 16 0
BBX 15 16 0 -2
BITMAP
01C0
0180
0180
0180
0180
018C
FFFE
0180
0180
0180
0180
0180
0180
0180
0180
0180
ENDCHAR
STARTCHAR uni3039
ENCODING 12345
SWIDTH 1000 0
DWIDTH 16 0
BBX 15 16 0 -2
BITMAP
0E70
0C60
0C60
0C60
0C60
0C6C
FFFE
0C60
0C60
0C60
0C60
0C60
0C60
0C60
0C60
0C60
ENDCHAR
STARTCHAR uni303A
ENCODING 12346
SWIDTH 1000 0
DWIDTH 16 0
BBX 15 16 0 -2
BITMAP
1DDC
1998
1998
1998
1998
199C
FFFE
1998
1998
1998
1998
1998
1198
3198
2198
C198
ENDCHAR
STARTCHAR uni3041
ENCODING 12353
SWIDTH 1000 0
DWIDTH 16 0
BBX 9 11 3 -2
BITMAP
1800
4A00
7E00
1000
1E00
3500
5580
5880
AD80
C100
0600
ENDCHAR
STARTCHAR uni3042
ENCODING 12354
SWIDTH 1000 0
DWIDTH 16 0
BBX 12 15 2 -1
BITMAP
1800
0C00
0980
CF80
7C00
1900
1FC0
3260
7230
5C30
CC30
BC30
E060
00C0
0700
ENDCHAR
STARTCHAR uni3043
ENCODING 12355
SWIDTH 1000 0
DWIDTH 16 0
BBX 10 8 3 -1
BITMAP
8100
8180
C080
C0C0
C1C0
5080
6000
2000
ENDCHAR
STARTCHAR uni3044
ENCODING 12356
SWIDTH 1000 0
DWIDTH 16 0
BBX 13 12 1 0
BITMAP
8000
4040
4020
6030
6010
6018
6438
6418
2810
3800
3000
1000
ENDCHAR
STARTCHAR uni3045
ENCODING 12357
SWIDTH 1000 0
DWIDTH 16 0
BBX 7 11 4 -2
BITMAP
30
18
00
B8
64
06
06
06
0C
08
30
ENDCHAR
STARTCHAR uni3046
ENCODING 12358
SWIDTH 1000 0
DWIDTH 16 0
BBX 9 16 3 -2
BITMAP
1800
0E00
0600
0000
0000
9E00
F300
6180
0180
0180
0180
0100
0300
0200
0400
1800
ENDCHAR
STARTCHAR uni3047
ENCODING 12359
SWIDTH 1000 0
DWIDTH 16 0
BBX 9 10 3 -1
BITMAP
0800
1C00
0400
5E00
7600
0800
1800
2C00
6580
C780
ENDCHAR
STARTCHAR uni3048
ENCODING 12360
SWIDTH 1000 0
DWIDTH 16 0
BBX 12 15 2 -1
BITMAP
0E00
0300
0300
0000
2700
3D80
1300
0600
0400
1800
3C00
6600
C200
C3F0
01F0
ENDCHAR
STARTCHAR uni3049
ENCODING 12361
SWIDTH 1000 0
DWIDTH 16 0
BBX 9 10 3 -2
BITMAP
3000
9500
FD80
2080
2F00
3180
6180
A980
6700
2000
ENDCHAR
STARTCHAR uni304A
ENCODING 12362
SWIDTH 1000 0
DWIDTH 16 0
BBX 14 15 1 -1
BITMAP
3000
1830
1818
120C
DE18
7800
10E0
1330
1418
1818
3018
F018
5230
39E0
1000
ENDCHAR
STARTCHAR uni304B
ENCODING 12363
SWIDTH 1000 0
DWIDTH 16 0
BBX 14 14 1 -1
BITMAP
1800
0C00
0C00
0F20
B990
F898
5088
108C
309C
218C
6980
6700
C300
C200
ENDCHAR
STARTCHAR uni304C
ENCODING 12364
SWIDTH 1000 0
DWIDTH 16 0
BBX 15 15 0 -1
BITMAP
0004
1816
0C1A
0C08
0F20
B990
F898
5088
108C
309C
218C
6980
6700
C300
C200
ENDCHAR
STARTCHAR uni304D
ENCODING 12365
SWIDTH 1000 0
DWIDTH 16 0
BBX 9 16 3 -2
BITMAP
1000
1800
1B00
CF00
7C00
0580
C780
7E00
3300
0100
7F80
C380
8000
C000
7E00
1E00
ENDCHAR
STARTCHAR uni304E
ENCODING 12366
SWIDTH 1000 0
DWIDTH 16 0
BBX 13 16 2 -2
BITMAP
1010
1858
1B68
CF20
7C00
0580
C780
7E00
3300
0100
7F80
C380
8000
C000
7E00
1E00
ENDCHAR
STARTCHAR uni304F
ENCODING 12367
SWIDTH 1000 0
DWIDTH 16 0
BBX 7 16 3 -2
BITMAP
0C
06
06
0C
18
30
60
80
C0
60
30
18
0C
06
06
02
ENDCHAR
STARTCHAR uni3050
ENCODING 12368
SWIDTH 1000 0
DWIDTH 16 0
BBX 12 16 3 -2
BITMAP
0C00
0600
0620
0CB0
18D0
3040
6000
8000
C000
6000
3000
1800
0C00
0600
0600
0200
ENDCHAR
STARTCHAR uni3051
ENCODING 12369
SWIDTH 1000 0
DWIDTH 16 0
BBX 14 16 1 -2
BITMAP
01C0
C060
6060
6060
6078
6DFC
C7E4
C060
C060
C060
D060
D060
6040
60C0
2080
0100
ENDCHAR
STARTCHAR uni3052
ENCODING 12370
SWIDTH 1000 0
DWIDTH 16 0
BBX 14 16 1 -2
BITMAP
0188
C0CC
60F4
60D8
60C0
60D8
CDFC
C7C0
C0C0
C0C0
D0C0
D0C0
6080
6180
2100
0200
ENDCHAR
STARTCHAR uni3053
ENCODING 12371
SWIDTH 1000 0
DWIDTH 16 0
BBX 11 12 2 0
BITMAP
2000
1F80
0F80
0200
0000
0000
4000
8000
8000
C000
7FE0
1FE0
ENDCHAR
STARTCHAR uni3054
ENCODING 12372
SWIDTH 1000 0
DWIDTH 16 0
BBX 13 14 2 0
BITMAP
0010
0058
2068
1FA0
0F80
0200
0000
0000
4000
8000
8000
C000
7FE0
1FE0
ENDCHAR
STARTCHAR uni3055
ENCODING 12373
SWIDTH 1000 0
DWIDTH 16 0
BBX 9 15 3 -1
BITMAP
1800
3000
3100
1980
8F80
FE00
6600
0300
3B00
4780
8180
C000
4000
7E00
1E00
ENDCHAR
STARTCHAR uni3056
ENCODING 12374
SWIDTH 1000 0
DWIDTH 16 0
BBX 13 15 2 -1
BITMAP
1810
3058
3168
19A0
8F80
FE00
6600
0300
3B00
4780
8180
C000
4000
7E00
1E00
ENDCHAR
STARTCHAR uni3057
ENCODING 12375
SWIDTH 1000 0
DWIDTH 16 0
BBX 11 15 3 -1
BITMAP
C000
6000
7000
6000
6000
6000
6000
6000
4000
4000
4020
4040
6180
3F00
1C00
ENDCHAR
STARTCHAR uni3058
ENCODING 12376
SWIDTH 1000 0
DWIDTH 16 0
BBX 11 15 3 -1
BITMAP
C000
6040
7160
61A0
6080
6000
6000
6000
4000
4000
4020
4040
6180
3F00
1C00
ENDCHAR
STARTCHAR uni3059
ENCODING 12377
SWIDTH 1000 0
DWIDTH 16 0
BBX 15 16 0 -2
BITMAP
0380
00C0
00C0
01FC
8FDE
F840
6340
06C0
04C0
04C0
06C0
03C0
0080
0180
0100
0600
ENDCHAR
STARTCHAR uni305A
ENCODING 12378
SWIDTH 1000 0
DWIDTH 16 0
BBX 15 16 0 -2
BITMAP
0394
00DE
00CA
00C0
8FFC
F8DE
6340
06C0
04C0
04C0
06C0
03C0
0080
0180
0100
0600
ENDCHAR
STARTCHAR uni305B
ENCODING 12379
SWIDTH 1000 0
DWIDTH 16 0
BBX 15 14 0 -1
BITMAP
00C0
1860
0C60
0C60
0CFC
8FFE
FE60
6C60
0CC0
0CC0
0C00
0C00
07F0
03F0
ENDCHAR
STARTCHAR uni305C
ENCODING 12380
SWIDTH 1000 0
DWIDTH 16 0
BBX 15 15 0 -1
BITMAP
0004
0196
18DA
0CC8
0CC0
0CFC
8FFE
FEC0
6CC0
0D80
0C80
0C00
0C00
07F0
03F0
ENDCHAR
STARTCHAR uni305D
ENCODING 12381
SWIDTH 1000 0
DWIDTH 16 0
BBX 12 15 1 -2
BITMAP
1780
1D80
0B00
0200
0600
09F0
1FF0
F300
C200
0400
0400
0400
0600
0380
0180
ENDCHAR
STARTCHAR uni305E
ENCODING 12382
SWIDTH 1000 0
DWIDTH 16 0
BBX 14 15 1 -2
BITMAP
1788
1DAC
0B34
0210
0600
09F0
1FF0
F300
C200
0400
0400
0400
0600
0380
0180
ENDCHAR
STARTCHAR uni305F
ENCODING 12383
SWIDTH 1000 0
DWIDTH 16 0
BBX 12 13 1 0
BITMAP
3000
1800
1A00
9EC0
FC70
7030
1040
3000
2000
6200
6300
C1F0
C0F0
ENDCHAR
STARTCHAR uni3060
ENCODING 12384
SWIDTH 1000 0
DWIDTH 16 0
BBX 14 14 1 0
BITMAP
0008
302C
1834
1A10
9EC0
FC70
7030
1040
3000
2000
6200
6300
C1F0
C0F0
ENDCHAR
STARTCHAR uni3061
ENCODING 12385
SWIDTH 1000 0
DWIDTH 16 0
BBX 12 15 2 -1
BITMAP
1800
0C00
0C00
8B80
FF80
5800
1000
13C0
3660
3830
3030
0030
0060
00C0
0F00
ENDCHAR
STARTCHAR uni3062
ENCODING 12386
SWIDTH 1000 0
DWIDTH 16 0
BBX 13 15 2 -1
BITMAP
1800
0C10
0C58
8B68
FFA0
5800
1000
13C0
3660
3830
3030
0030
0060
00C0
0F00
ENDCHAR
STARTCHAR uni3063
ENCODING 12387
SWIDTH 1000 0
DWIDTH 16 0
BBX 10 7 2 -1
BITMAP
8F80
F8C0
6040
00C0
0080
0380
0E00
ENDCHAR
STARTCHAR uni3064
ENCODING 12388
SWIDTH 1000 0
DWIDTH 16 0
BBX 13 10 1 0
BITMAP
07E0
9C10
F818
6008
0018
0018
0030
0060
00C0
0700
ENDCHAR
STARTCHAR uni3065
ENCODING 12389
SWIDTH 1000 0
DWIDTH 16 0
BBX 14 14 1 0
BITMAP
0008
002C
0034
0010
07E0
9C10
F818
6008
0018
0018
0030
0060
00C0
0700
ENDCHAR
STARTCHAR uni3066
ENCODING 12390
SWIDTH 1000 0
DWIDTH 16 0
BBX 12 13 1 -1
BITMAP
83F0
DEF0
7180
2200
0400
0400
0800
0800
0800
0C00
0600
0780
0180
ENDCHAR
STARTCHAR uni3067
ENCODING 12391
SWIDTH 1000 0
DWIDTH 16 0
BBX 14 13 1 -1
BITMAP
83E0
DEE0
7188
222C
0434
0410
0800
0800
0800
0C00
0600
0780
0180
ENDCHAR
STARTCHAR uni3068
ENCODING 12392
SWIDTH 1000 0
DWIDTH 16 0
BBX 9 15 3 -1
BITMAP
6000
3000
3800
3000
3000
1180
1780
1E00
3000
4000
C000
8000
C180
7F80
3E00
ENDCHAR
STARTCHAR uni3069
ENCODING 12393
SWIDTH 1000 0
DWIDTH 16 0
BBX 12 15 3 -1
BITMAP
6020
30B0
38D0
3040
3000
1180
1780
1E00
3000
4000
C000
8000
C180
7F80
3E00
ENDCHAR
STARTCHAR uni306A
ENCODING 12394
SWIDTH 1000 0
DWIDTH 16 0
BBX 13 15 1 -1
BITMAP
1800
0C00
0800
9E60
FC38
5038
3040
2040
6080
C080
C080
07C0
08F0
09B8
0700
ENDCHAR
STARTCHAR uni306B
ENCODING 12395
SWIDTH 1000 0
DWIDTH 16 0
BBX 13 14 1 -1
BITMAP
4000
6000
61E0
67F0
6040
C000
C000
C000
C200
D400
D600
63F8
61F0
2000
ENDCHAR
STARTCHAR uni306C
ENCODING 12396
SWIDTH 1000 0
DWIDTH 16 0
BBX 14 14 1 0
BITMAP
0600
0300
4100
4300
47E0
6F30
3218
2618
7418
5818
DDD0
9230
E37C
41CC
ENDCHAR
STARTCHAR uni306D
ENCODING 12397
SWIDTH 1000 0
DWIDTH 16 0
BBX 14 15 1 -1
BITMAP
1000
1800
0C00
1800
BBE0
F630
5C18
1818
1018
3018
71F0
5230
D27C
B9CC
3000
ENDCHAR
STARTCHAR uni306E
ENCODING 12398
SWIDTH 1000 0
DWIDTH 16 0
BBX 13 12 1 0
BITMAP
07C0
1B70
3130
6318
4218
C618
8418
8C18
D830
7030
60E0
0380
ENDCHAR
STARTCHAR uni306F
ENCODING 12399
SWIDTH 1000 0
DWIDTH 16 0
BBX 14 14 1 -1
BITMAP
C1C0
6060
6060
6040
66F8
C3F8
C140
C040
C040
D060
D3E0
6478
66DC
6388
ENDCHAR
STARTCHAR uni3070
ENCODING 12400
SWIDTH 1000 0
DWIDTH 16 0
BBX 14 15 1 -1
BITMAP
0008
C38C
60D4
60D8
6088
6DF0
C7F0
C280
C080
C080
D0C0
D7C0
68F0
6DB8
6710
ENDCHAR
STARTCHAR uni3071
ENCODING 12401
SWIDTH 1000 0
DWIDTH 16 0
BBX 14 15 1 -1
BITMAP
0018
C3A4
60E4
60D8
6080
6DF0
C7F0
C280
C080
C080
D0C0
D7C0
68F0
6DB8
6710
ENDCHAR
STARTCHAR uni3072
ENCODING 12402
SWIDTH 1000 0
DWIDTH 16 0
BBX 14 14 1 -1
BITMAP
0040
0C60
9C60
7070
3050
2058
204C
4048
4040
40C0
4080
6180
3700
1E00
ENDCHAR
STARTCHAR uni3073
ENCODING 12403
SWIDTH 1000 0
DWIDTH 16 0
BBX 15 15 0 -1
BITMAP
0004
0016
0C5A
9C68
7060
3070
2050
205C
404C
4040
40C0
4080
6180
3700
1E00
ENDCHAR
STARTCHAR uni3074
ENCODING 12404
SWIDTH 1000 0
DWIDTH 16 0
BBX 15 15 0 -1
BITMAP
000C
0012
0C52
9C6C
7060
3070
2050
205C
404C
4040
40C0
4080
6180
3700
1E00
ENDCHAR
STARTCHAR uni3075
ENCODING 12405
SWIDTH 1000 0
DWIDTH 16 0
BBX 15 14 0 -1
BITMAP
0200
0100
01C0
03C0
0400
0400
0200
03E0
0718
098C
B18E
6584
4380
0100
ENDCHAR
STARTCHAR uni3076
ENCODING 12406
SWIDTH 1000 0
DWIDTH 16 0
BBX 15 14 0 -1
BITMAP
0200
0104
01D6
03DA
0408
0400
0200
03E0
0718
098C
B18E
6584
4380
0100
ENDCHAR
STARTCHAR uni3077
ENCODING 12407
SWIDTH 1000 0
DWIDTH 16 0
BBX 15 14 0 -1
BITMAP
0200
010C
01D2
03D2
040C
0400
0200
03E0
0718
098C
B18E
6584
4380
0100
ENDCHAR
STARTCHAR uni3078
ENCODING 12408
SWIDTH 1000 0
DWIDTH 16 0
BBX 15 10 0 1
BITMAP
0E00
1A00
1100
3180
B0C0
E060
4030
001C
000E
0006
ENDCHAR
STARTCHAR uni3079
ENCODING 12409
SWIDTH 1000 0
DWIDTH 16 0
BBX 15 13 0 1
BITMAP
0010
0058
0068
0E20
1A00
1100
3180
B0C0
E060
4030
001C
000E
0006
ENDCHAR
STARTCHAR uni307A
ENCODING 12410
SWIDTH 1000 0
DWIDTH 16 0
BBX 15 13 0 1
BITMAP
0030
0048
0048
0E30
1A00
1100
3180
B0C0
E060
4030
001C
000E
0006
ENDCHAR
STARTCHAR uni307B
ENCODING 12411
SWIDTH 1000 0
DWIDTH 16 0
BBX 14 14 1 -1
BITMAP
C0F0
67F8
6040
6060
6078
C0F8
C7E0
C060
C060
D060
D3E0
6478
64DC
2388
ENDCHAR
STARTCHAR uni307C
ENCODING 12412
SWIDTH 1000 0
DWIDTH 16 0
BBX 14 14 1 -1
BITMAP
C1C8
6FEC
6094
60D8
60E8
C1E0
CFC0
C0C0
C0C0
D0C0
D7C0
68F0
69B8
2710
ENDCHAR
STARTCHAR uni307D
ENCODING 12413
SWIDTH 1000 0
DWIDTH 16 0
BBX 14 15 1 -1
BITMAP
0018
C1A4
6FE4
6098
60C0
60F0
C1F0
CFC0
C0C0
C0C0
D0C0
D7C0
68F0
69B8
2710
ENDCHAR
STARTCHAR uni307E
ENCODING 12414
SWIDTH 1000 0
DWIDTH 16 0
BBX 11 15 2 -1
BITMAP
0C00
0600
0600
44C0
7FC0
3E00
0480
4FC0
7F00
2400
0600
7E00
8780
CEE0
7860
ENDCHAR
STARTCHAR uni307F
ENCODING 12415
SWIDTH 1000 0
DWIDTH 16 0
BBX 14 14 1 -1
BITMAP
0100
2F80
3980
1300
0660
0430
0C30
3FF0
5830
907C
E04C
60C0
0080
0100
ENDCHAR
STARTCHAR uni3080
ENCODING 12416
SWIDTH 1000 0
DWIDTH 16 0
BBX 14 15 1 -1
BITMAP
3000
1800
1A30
FE58
784C
105C
1048
7820
D820
9030
B010
7030
2030
3FE0
1FC0
ENDCHAR
STARTCHAR uni3081
ENCODING 12417
SWIDTH 1000 0
DWIDTH 16 0
BBX 13 14 1 -1
BITMAP
0300
0180
4180
4100
67C0
3B70
3230
7618
5C18
C818
9E18
F630
4060
0180
ENDCHAR
STARTCHAR uni3082
ENCODING 12418
SWIDTH 1000 0
DWIDTH 16 0
BBX 11 15 2 -1
BITMAP
0C00
0600
8600
6C00
3C00
1C00
4800
8900
D880
7C40
3C60
1060
1060
1FC0
0F80
ENDCHAR
STARTCHAR uni3083
ENCODING 12419
SWIDTH 1000 0
DWIDTH 16 0
BBX 12 11 1 -1
BITMAP
0400
1E00
2300
27E0
2D30
B230
FBE0
4DC0
0C00
0600
0600
ENDCHAR
STARTCHAR uni3084
ENCODING 12420
SWIDTH 1000 0
DWIDTH 16 0
BBX 15 15 0 -1
BITMAP
0100
0080
1CC0
23C0
3078
118C
1F06
8C06
FCFC
6478
0600
0300
0300
0180
0180
ENDCHAR
STARTCHAR uni3085
ENCODING 12421
SWIDTH 1000 0
DWIDTH 16 0
BBX 10 12 3 -2
BITMAP
8C00
D400
5F00
5680
F6C0
B640
D6C0
D580
4F00
0C00
0800
1000
ENDCHAR
STARTCHAR uni3086
ENCODING 12422
SWIDTH 1000 0
DWIDTH 16 0
BBX 13 15 1 -2
BITMAP
0300
C580
69E0
6BB0
6D98
4998
D998
D598
E598
E5B0
43E0
6100
0300
0200
0400
ENDCHAR
STARTCHAR uni3087
ENCODING 12423
SWIDTH 1000 0
DWIDTH 16 0
BBX 9 11 3 -1
BITMAP
1800
0C00
0B00
0F00
0800
0800
0800
7C00
8F00
DB80
7000
ENDCHAR
STARTCHAR uni3088
ENCODING 12424
SWIDTH 1000 0
DWIDTH 16 0
BBX 11 15 2 -1
BITMAP
0C00
0700
0600
0600
06C0
07E0
0600
0600
0600
0600
0600
7E00
8780
CCE0
7860
ENDCHAR
STARTCHAR uni3089
ENCODING 12425
SWIDTH 1000 0
DWIDTH 16 0
BBX 10 15 3 -1
BITMAP
1000
0800
1C00
2C00
4000
4000
4000
4F00
D180
E0C0
C0C0
00C0
0180
0300
1C00
ENDCHAR
STARTCHAR uni308A
ENCODING 12426
SWIDTH 1000 0
DWIDTH 16 0
BBX 9 15 3 -2
BITMAP
C000
6600
6B00
5180
5180
D180
E180
E180
4180
6180
0300
0300
0600
0C00
3000
ENDCHAR
STARTCHAR uni308B
ENCODING 12427
SWIDTH 1000 0
DWIDTH 16 0
BBX 11 14 2 -1
BITMAP
2700
3D80
1300
0600
0400
0800
1780
38C0
6060
C060
CC60
1360
19C0
0F80
ENDCHAR
STARTCHAR uni308C
ENCODING 12428
SWIDTH 1000 0
DWIDTH 16 0
BBX 14 15 1 -1
BITMAP
3000
1800
1800
11E0
BB30
F630
5430
1830
1030
3060
7060
5060
D064
B878
3030
ENDCHAR
STARTCHAR uni308D
ENCODING 12429
SWIDTH 1000 0
DWIDTH 16 0
BBX 11 14 2 -1
BITMAP
2300
3F80
1B00
0600
0800
1800
3780
78C0
C060
C060
0060
00C0
0180
0E00
ENDCHAR
STARTCHAR uni308E
ENCODING 12430
SWIDTH 1000 0
DWIDTH 16 0
BBX 10 10 2 -2
BITMAP
3000
1800
F700
5980
10C0
3040
50C0
F080
5B00
1000
ENDCHAR
STARTCHAR uni308F
ENCODING 12431
SWIDTH 1000 0
DWIDTH 16 0
BBX 13 15 1 -1
BITMAP
3000
1800
1C00
1800
B000
FDE0
5630
1818
3018
3018
5018
D030
D860
3980
1000
ENDCHAR
STARTCHAR uni3090
ENCODING 12432
SWIDTH 1000 0
DWIDTH 16 0
BBX 13 14 1 -1
BITMAP
1100
1F80
0D00
0300
0200
07E0
1C30
2C18
6818
C818
5318
74B0
24E0
03C0
ENDCHAR
STARTCHAR uni3091
ENCODING 12433
SWIDTH 1000 0
DWIDTH 16 0
BBX 14 14 0 -1
BITMAP
0BC0
0EC0
0580
0200
07E0
0C30
1B30
0560
07C0
0C00
1830
3648
639C
C18C
ENDCHAR
STARTCHAR uni3092
ENCODING 12434
SWIDTH 1000 0
DWIDTH 16 0
BBX 11 15 3 -1
BITMAP
1800
0C00
8D80
FF80
7800
1040
3C60
66E0
C780
CE00
1600
3000
2000
3F80
1F80
ENDCHAR
STARTCHAR uni3093
ENCODING 12435
SWIDTH 1000 0
DWIDTH 16 0
BBX 13 14 1 -1
BITMAP
0600
0300
0300
0600
0600
0C00
0800
1E00
3308
2308
6310
6330
C1E0
C1C0
ENDCHAR
STARTCHAR uni3094
ENCODING 12436
SWIDTH 1000 0
DWIDTH 16 0
BBX 12 16 3 -2
BITMAP
1820
0EB0
06D0
0040
0000
9E00
F300
6180
0180
0180
0180
0100
0300
0200
0400
1800
ENDCHAR
STARTCHAR uni3095
ENCODING 12437
SWIDTH 1000 0
DWIDTH 16 0
BBX 9 10 1 -2
BITMAP
3000
1800
1200
BD00
ED00
6580
2480
6C00
DC00
C800
ENDCHAR
STARTCHAR uni3096
ENCODING 12438
SWIDTH 1000 0
DWIDTH 16 0
BBX 9 10 2 -2
BITMAP
0C00
C600
6700
7F80
C680
C600
D600
6400
2C00
0800
ENDCHAR
STARTCHAR uni3099
ENCODING 12441
SWIDTH 1000 0
DWIDTH 16 0
BBX 4 4 11 10
BITMAP
20
B0
D0
40
ENDCHAR
STARTCHAR uni309A
ENCODING 12442
SWIDTH 1000 0
DWIDTH 16 0
BBX 4 4 11 10
BITMAP
60
90
90
60
ENDCHAR
STARTCHAR uni309B
ENCODING 12443
SWIDTH 1000 0
DWIDTH 16 0
BBX 4 4 0 10
BITMAP
20
B0
D0
40
ENDCHAR
STARTCHAR uni309C
ENCODING 12444
SWIDTH 1000 0
DWIDTH 16 0
BBX 4 4 0 10
BITMAP
60
90
90
60
ENDCHAR
STARTCHAR uni309D
ENCODING 12445
SWIDTH 1000 0
DWIDTH 16 0
BBX 6 10 4 1
BITMAP
80
80
40
40
20
10
18
0C
1C
60
ENDCHAR
STARTCHAR uni309E
ENCODING 12446
SWIDTH 1000 0
DWIDTH 16 0
BBX 8 11 4 1
BITMAP
02
8B
8D
44
40
20
10
18
0C
1C
60
ENDCHAR
STARTCHAR uni30A1
ENCODING 12449
SWIDTH 1000 0
DWIDTH 16 0
BBX 9 9 3 -1
BITMAP
0200
DF00
7180
0300
1C00
0800
1800
1000
6000
ENDCHAR
STARTCHAR uni30A2
ENCODING 12450
SWIDTH 1000 0
DWIDTH 16 0
BBX 12 13 2 -1
BITMAP
00C0
8FE0
F870
60C0
0D80
0600
0600
0600
0600
0400
0C00
0800
1000
ENDCHAR
STARTCHAR uni30A3
ENCODING 12451
SWIDTH 1000 0
DWIDTH 16 0
BBX 8 10 3 -2
BITMAP
02
07
06
1C
38
EC
0C
0C
0C
08
ENDCHAR
STARTCHAR uni30A4
ENCODING 12452
SWIDTH 1000 0
DWIDTH 16 0
BBX 10 14 2 -1
BITMAP
0180
01C0
0300
0300
0600
0C00
1E00
3600
C600
0600
0600
0600
0600
0600
ENDCHAR
STARTCHAR uni30A5
ENCODING 12453
SWIDTH 1000 0
DWIDTH 16 0
BBX 9 11 4 -2
BITMAP
3000
1800
9200
FF00
C180
8300
0200
0600
0C00
0800
3000
ENDCHAR
STARTCHAR uni30A6
ENCODING 12454
SWIDTH 1000 0
DWIDTH 16 0
BBX 12 14 2 -1
BITMAP
1800
0C00
0CC0
CFE0
7870
6060
60C0
60C0
4080
0180
0300
0200
0400
0800
ENDCHAR
STARTCHAR uni30A7
ENCODING 12455
SWIDTH 1000 0
DWIDTH 16 0
BBX 9 8 3 -1
BITMAP
4600
7F00
2800
0C00
0C00
0800
DF00
7F80
ENDCHAR
STARTCHAR uni30A8
ENCODING 12456
SWIDTH 1000 0
DWIDTH 16 0
BBX 13 10 1 1
BITMAP
43E0
3FF0
1E20
0300
0300
0300
0300
8370
FFF8
7008
ENDCHAR
STARTCHAR uni30A9
ENCODING 12457
SWIDTH 1000 0
DWIDTH 16 0
BBX 9 11 3 -2
BITMAP
0C00
0400
8700
FF80
4C00
1C00
3400
6400
8C00
0C00
0400
ENDCHAR
STARTCHAR uni30AA
ENCODING 12458
SWIDTH 1000 0
DWIDTH 16 0
BBX 13 14 1 -1
BITMAP
0300
0180
0180
0180
CFF0
7BB8
2780
0580
0D80
1980
3180
2580
C380
0180
ENDCHAR
STARTCHAR uni30AB
ENCODING 12459
SWIDTH 1000 0
DWIDTH 16 0
BBX 13 13 1 0
BITMAP
0C00
0700
0620
47F0
7F38
3630
0C30
0C30
0860
1860
1360
21C0
C0C0
ENDCHAR
STARTCHAR uni30AC
ENCODING 12460
SWIDTH 1000 0
DWIDTH 16 0
BBX 15 14 0 0
BITMAP
0004
0C16
071A
0628
47F0
7F38
3630
0C30
0C30
0860
1860
1360
21C0
C0C0
ENDCHAR
STARTCHAR uni30AD
ENCODING 12461
SWIDTH 1000 0
DWIDTH 16 0
BBX 13 14 1 -1
BITMAP
0C00
0C00
06C0
4FE0
7C00
2600
0670
87F8
FF00
7300
0300
0300
0300
0300
ENDCHAR
STARTCHAR uni30AE
ENCODING 12462
SWIDTH 1000 0
DWIDTH 16 0
BBX 15 15 0 -1
BITMAP
0004
0C16
0C1A
06C8
4FE0
7C00
2600
0670
87F8
FF00
7300
0300
0300
0300
0300
ENDCHAR
STARTCHAR uni30AF
ENCODING 12463
SWIDTH 1000 0
DWIDTH 16 0
BBX 10 14 3 -1
BITMAP
1800
0C00
1880
1F80
31C0
2180
4300
8300
0600
0600
0C00
1800
3000
C000
ENDCHAR
STARTCHAR uni30B0
ENCODING 12464
SWIDTH 1000 0
DWIDTH 16 0
BBX 13 15 2 -1
BITMAP
0010
1858
0C68
1920
1F80
31C0
2180
4300
8300
0600
0600
0C00
1800
3000
C000
ENDCHAR
STARTCHAR uni30B1
ENCODING 12465
SWIDTH 1000 0
DWIDTH 16 0
BBX 13 14 1 -1
BITMAP
1000
1800
0C00
1800
19F0
3FF8
2100
4180
8180
0300
0300
0600
0C00
3000
ENDCHAR
STARTCHAR uni30B2
ENCODING 12466
SWIDTH 1000 0
DWIDTH 16 0
BBX 15 15 0 -1
BITMAP
0004
1016
181A
0C08
1800
19F0
3FF8
2100
4180
8180
0300
0300
0600
0C00
3000
ENDCHAR
STARTCHAR uni30B3
ENCODING 12467
SWIDTH 1000 0
DWIDTH 16 0
BBX 10 10 3 1
BITMAP
0300
FF80
71C0
0180
0180
0100
0300
0300
FF00
7180
ENDCHAR
STARTCHAR uni30B4
ENCODING 12468
SWIDTH 1000 0
DWIDTH 16 0
BBX 13 13 2 1
BITMAP
0010
0058
0068
0320
FF80
71C0
0180
0180
0100
0300
0300
FF00
7180
ENDCHAR
STARTCHAR uni30B5
ENCODING 12469
SWIDTH 1000 0
DWIDTH 16 0
BBX 13 13 1 -1
BITMAP
0180
18C0
0CC0
8DF0
FFF8
6CC0
0CC0
08C0
0180
0180
0300
0200
0C00
ENDCHAR
STARTCHAR uni30B6
ENCODING 12470
SWIDTH 1000 0
DWIDTH 16 0
BBX 15 15 0 -1
BITMAP
0004
0016
019A
18C8
0CC0
8DF0
FFF8
6CC0
0CC0
08C0
0180
0180
0300
0200
0C00
ENDCHAR
STARTCHAR uni30B7
ENCODING 12471
SWIDTH 1000 0
DWIDTH 16 0
BBX 11 13 3 -1
BITMAP
6000
3000
1020
0040
C040
6080
2180
0300
0600
0C00
D800
7000
2000
ENDCHAR
STARTCHAR uni30B8
ENCODING 12472
SWIDTH 1000 0
DWIDTH 16 0
BBX 13 15 2 -1
BITMAP
0010
0058
6068
3020
1000
0020
C040
60C0
2180
0300
0600
0C00
D800
7000
2000
ENDCHAR
STARTCHAR uni30B9
ENCODING 12473
SWIDTH 1000 0
DWIDTH 16 0
BBX 11 12 2 0
BITMAP
0100
4780
7CC0
3180
0180
0300
0200
0700
0D80
18C0
20E0
C060
ENDCHAR
STARTCHAR uni30BA
ENCODING 12474
SWIDTH 1000 0
DWIDTH 16 0
BBX 14 14 1 0
BITMAP
0008
002C
0134
4790
7CC0
3180
0180
0300
0200
0700
0D80
18C0
20E0
C060
ENDCHAR
STARTCHAR uni30BB
ENCODING 12475
SWIDTH 1000 0
DWIDTH 16 0
BBX 13 13 1 0
BITMAP
1800
0E00
0C00
0C20
0FF0
9E38
FC60
6C40
0C80
0C00
0C00
07F0
03F0
ENDCHAR
STARTCHAR uni30BC
ENCODING 12476
SWIDTH 1000 0
DWIDTH 16 0
BBX 15 14 0 0
BITMAP
0004
1816
0E1A
0C08
0C20
0FF0
9E38
FC60
6C40
0C80
0C00
0C00
07F0
03F0
ENDCHAR
STARTCHAR uni30BD
ENCODING 12477
SWIDTH 1000 0
DWIDTH 16 0
BBX 10 13 3 0
BITMAP
0100
8180
40C0
60C0
6180
0180
0180
0300
0200
0600
0400
0800
3000
ENDCHAR
STARTCHAR uni30BE
ENCODING 12478
SWIDTH 1000 0
DWIDTH 16 0
BBX 14 14 1 0
BITMAP
0008
002C
8134
4190
60C0
6180
0180
0100
0300
0200
0600
0400
0800
3000
ENDCHAR
STARTCHAR uni30BF
ENCODING 12479
SWIDTH 1000 0
DWIDTH 16 0
BBX 10 14 3 -1
BITMAP
1800
0C00
1880
1F80
31C0
2180
7B00
8B00
0E00
0600
0C00
1800
3000
C000
ENDCHAR
STARTCHAR uni30C0
ENCODING 12480
SWIDTH 1000 0
DWIDTH 16 0
BBX 13 15 2 -1
BITMAP
0010
1858
0C68
1920
1F80
31C0
2180
7B00
8B00
0E00
0600
0C00
1800
3000
C000
ENDCHAR
STARTCHAR uni30C1
ENCODING 12481
SWIDTH 1000 0
DWIDTH 16 0
BBX 13 14 1 -1
BITMAP
00C0
03E0
0700
3E00
0300
87F0
FF78
7300
0300
0300
0200
0600
0400
1800
ENDCHAR
STARTCHAR uni30C2
ENCODING 12482
SWIDTH 1000 0
DWIDTH 16 0
BBX 15 15 0 -1
BITMAP
0004
0096
03DA
0708
3E00
0300
87F0
FF78
7300
0300
0300
0200
0600
0400
1800
ENDCHAR
STARTCHAR uni30C3
ENCODING 12483
SWIDTH 1000 0
DWIDTH 16 0
BBX 9 9 3 -2
BITMAP
1100
9980
C980
4100
0300
0600
0400
0800
3000
ENDCHAR
STARTCHAR uni30C4
ENCODING 12484
SWIDTH 1000 0
DWIDTH 16 0
BBX 11 12 2 0
BITMAP
1080
08C0
8C60
44C0
60C0
2080
0180
0100
0300
0200
0400
1800
ENDCHAR
STARTCHAR uni30C5
ENCODING 12485
SWIDTH 1000 0
DWIDTH 16 0
BBX 14 14 1 0
BITMAP
0008
002C
1034
0990
8CC0
44C0
60C0
2080
0180
0100
0300
0200
0400
1800
ENDCHAR
STARTCHAR uni30C6
ENCODING 12486
SWIDTH 1000 0
DWIDTH 16 0
BBX 12 14 1 -1
BITMAP
1080
1FC0
0E40
0000
80E0
FFF0
7210
0300
0300
0300
0600
0600
0400
1800
ENDCHAR
STARTCHAR uni30C7
ENCODING 12487
SWIDTH 1000 0
DWIDTH 16 0
BBX 15 15 0 -1
BITMAP
0004
1096
1FDA
0E48
0000
80E0
FFF0
7210
0300
0300
0300
0600
0600
0400
1800
ENDCHAR
STARTCHAR uni30C8
ENCODING 12488
SWIDTH 1000 0
DWIDTH 16 0
BBX 8 14 5 -1
BITMAP
C0
60
70
60
60
78
6E
63
63
60
60
60
60
60
ENDCHAR
STARTCHAR uni30C9
ENCODING 12489
SWIDTH 1000 0
DWIDTH 16 0
BBX 10 15 5 -1
BITMAP
0080
C2C0
6340
7100
6000
6000
7800
6E00
6300
6300
6000
6000
6000
6000
6000
ENDCHAR
STARTCHAR uni30CA
ENCODING 12490
SWIDTH 1000 0
DWIDTH 16 0
BBX 13 14 1 -1
BITMAP
0600
0300
0300
0300
03F0
9F78
FB08
6300
0600
0600
0400
0C00
0800
3000
ENDCHAR
STARTCHAR uni30CB
ENCODING 12491
SWIDTH 1000 0
DWIDTH 16 0
BBX 13 9 1 2
BITMAP
2180
3FC0
1C40
0000
0000
0000
81F0
FFF8
7808
ENDCHAR
STARTCHAR uni30CC
ENCODING 12492
SWIDTH 1000 0
DWIDTH 16 0
BBX 11 12 1 0
BITMAP
0080
23C0
3EE0
18C0
0180
1D80
0700
0780
0CC0
18E0
2040
C000
ENDCHAR
STARTCHAR uni30CD
ENCODING 12493
SWIDTH 1000 0
DWIDTH 16 0
BBX 11 15 2 -1
BITMAP
0800
0600
0600
0100
6F80
39C0
0300
0600
0F80
1EE0
3660
C600
0600
0600
0600
ENDCHAR
STARTCHAR uni30CE
ENCODING 12494
SWIDTH 1000 0
DWIDTH 16 0
BBX 10 13 2 0
BITMAP
0300
0180
01C0
0180
0300
0300
0600
0400
0C00
1800
1000
2000
C000
ENDCHAR
STARTCHAR uni30CF
ENCODING 12495
SWIDTH 1000 0
DWIDTH 16 0
BBX 13 10 1 1
BITMAP
3000
1980
1840
1860
3030
3030
2018
6018
4018
8000
ENDCHAR
STARTCHAR uni30D0
ENCODING 12496
SWIDTH 1000 0
DWIDTH 16 0
BBX 14 13 1 1
BITMAP
0008
002C
0034
3010
1980
1840
1860
3030
3030
2018
6018
4018
8000
ENDCHAR
STARTCHAR uni30D1
ENCODING 12497
SWIDTH 1000 0
DWIDTH 16 0
BBX 14 13 1 1
BITMAP
0018
0024
0024
3018
1980
1840
1860
3030
3030
2018
6018
4018
8000
ENDCHAR
STARTCHAR uni30D2
ENCODING 12498
SWIDTH 1000 0
DWIDTH 16 0
BBX 10 12 3 0
BITMAP
C000
6000
7000
6000
6380
7F80
6800
6000
6000
60C0
3FC0
1F00
ENDCHAR
STARTCHAR uni30D3
ENCODING 12499
SWIDTH 1000 0
DWIDTH 16 0
BBX 12 14 3 0
BITMAP
0020
00B0
C0D0
6040
7000
6000
6380
7F80
6800
6000
6000
60C0
3FC0
1F00
ENDCHAR
STARTCHAR uni30D4
ENCODING 12500
SWIDTH 1000 0
DWIDTH 16 0
BBX 12 14 3 0
BITMAP
0060
0090
C090
6060
7000
6000
6380
7F80
6800
6000
6000
60C0
3FC0
1F00
ENDCHAR
STARTCHAR uni30D5
ENCODING 12501
SWIDTH 1000 0
DWIDTH 16 0
BBX 11 12 2 0
BITMAP
0180
CFC0
7CE0
30C0
0180
0180
0300
0300
0600
0C00
1800
6000
ENDCHAR
STARTCHAR uni30D6
ENCODING 12502
SWIDTH 1000 0
DWIDTH 16 0
BBX 14 14 1 0
BITMAP
0008
002C
0134
CF90
7CC0
30C0
0180
0180
0300
0300
0600
0C00
1800
6000
ENDCHAR
STARTCHAR uni30D7
ENCODING 12503
SWIDTH 1000 0
DWIDTH 16 0
BBX 14 14 1 0
BITMAP
0018
0024
0124
CF98
7CC0
30C0
0180
0180
0300
0300
0600
0C00
1800
6000
ENDCHAR
STARTCHAR uni30D8
ENCODING 12504
SWIDTH 1000 0
DWIDTH 16 0
BBX 14 9 0 2
BITMAP
0400
0E00
1900
1180
30C0
6060
C030
001C
000C
ENDCHAR
STARTCHAR uni30D9
ENCODING 12505
SWIDTH 1000 0
DWIDTH 16 0
BBX 14 12 0 2
BITMAP
0020
00B0
00D0
0440
0E00
1900
1180
30C0
6060
C030
001C
000C
ENDCHAR
STARTCHAR uni30DA
ENCODING 12506
SWIDTH 1000 0
DWIDTH 16 0
BBX 14 12 0 2
BITMAP
0060
0090
0090
0460
0E00
1900
1180
30C0
6060
C030
001C
000C
ENDCHAR
STARTCHAR uni30DB
ENCODING 12507
SWIDTH 1000 0
DWIDTH 16 0
BBX 12 14 2 -1
BITMAP
0C00
0600
0700
86E0
FFF0
7610
0600
0680
2640
6660
C630
D630
0E00
0600
ENDCHAR
STARTCHAR uni30DC
ENCODING 12508
SWIDTH 1000 0
DWIDTH 16 0
BBX 14 15 1 -1
BITMAP
0008
0C2C
0634
0710
86E0
FFF0
7610
0600
0680
2640
6660
C630
D630
0E00
0600
ENDCHAR
STARTCHAR uni30DD
ENCODING 12509
SWIDTH 1000 0
DWIDTH 16 0
BBX 14 15 1 -1
BITMAP
0018
0C24
0624
0718
86E0
FFF0
7610
0600
0680
2640
6660
C630
D630
0E00
0600
ENDCHAR
STARTCHAR uni30DE
ENCODING 12510
SWIDTH 1000 0
DWIDTH 16 0
BBX 12 11 1 0
BITMAP
0040
C7E0
7E70
30C0
00C0
0180
1300
0C00
0600
0300
0300
ENDCHAR
STARTCHAR uni30DF
ENCODING 12511
SWIDTH 1000 0
DWIDTH 16 0
BBX 7 13 4 0
BITMAP
40
30
1C
0E
42
30
3C
0C
80
60
38
1C
06
ENDCHAR
STARTCHAR uni30E0
ENCODING 12512
SWIDTH 1000 0
DWIDTH 16 0
BBX 13 13 1 0
BITMAP
0400
0600
0300
0600
0600
0400
0C80
0840
1820
1030
9FF0
FC18
6018
ENDCHAR
STARTCHAR uni30E1
ENCODING 12513
SWIDTH 1000 0
DWIDTH 16 0
BBX 10 12 2 0
BITMAP
0180
00C0
00C0
3180
0D80
0700
0300
0780
0CC0
18C0
3000
C000
ENDCHAR
STARTCHAR uni30E2
ENCODING 12514
SWIDTH 1000 0
DWIDTH 16 0
BBX 13 12 1 0
BITMAP
21C0
3FE0
1C00
0600
06F0
CFF8
7E00
2600
0600
0600
03E0
01E0
ENDCHAR
STARTCHAR uni30E3
ENCODING 12515
SWIDTH 1000 0
DWIDTH 16 0
BBX 10 10 2 -2
BITMAP
3000
1080
1FC0
FD80
6900
0E00
0C00
0400
0600
0600
ENDCHAR
STARTCHAR uni30E4
ENCODING 12516
SWIDTH 1000 0
DWIDTH 16 0
BBX 13 14 1 -1
BITMAP
1800
0C00
0C20
0DF0
0718
BC70
F640
4280
0300
0300
0100
0180
0180
0180
ENDCHAR
STARTCHAR uni30E5
ENCODING 12517
SWIDTH 1000 0
DWIDTH 16 0
BBX 10 7 2 0
BITMAP
2300
3F80
1900
0300
0200
DF80
71C0
ENDCHAR
STARTCHAR uni30E6
ENCODING 12518
SWIDTH 1000 0
DWIDTH 16 0
BBX 13 11 1 0
BITMAP
0080
27C0
3E60
10C0
00C0
00C0
0180
01B0
DFF8
7808
2000
ENDCHAR
STARTCHAR uni30E7
ENCODING 12519
SWIDTH 1000 0
DWIDTH 16 0
BBX 8 9 4 -1
BITMAP
84
FE
43
06
7E
26
04
BE
E6
ENDCHAR
STARTCHAR uni30E8
ENCODING 12520
SWIDTH 1000 0
DWIDTH 16 0
BBX 10 12 3 0
BITMAP
0300
DF80
71C0
0180
0180
6F80
3980
0300
0300
8B00
FF80
6080
ENDCHAR
STARTCHAR uni30E9
ENCODING 12521
SWIDTH 1000 0
DWIDTH 16 0
BBX 10 13 3 -1
BITMAP
4E00
7F00
2000
0100
8F80
F9C0
6180
0300
0300
0600
0C00
1800
6000
ENDCHAR
STARTCHAR uni30EA
ENCODING 12522
SWIDTH 1000 0
DWIDTH 16 0
BBX 9 14 3 -1
BITMAP
0600
C300
6380
6300
6300
6300
6300
6300
4300
0600
0600
0C00
0800
3000
ENDCHAR
STARTCHAR uni30EB
ENCODING 12523
SWIDTH 1000 0
DWIDTH 16 0
BBX 14 11 1 0
BITMAP
0300
3180
19C0
1980
1184
3188
3190
21B0
61E0
43C0
8180
ENDCHAR
STARTCHAR uni30EC
ENCODING 12524
SWIDTH 1000 0
DWIDTH 16 0
BBX 11 12 3 0
BITMAP
C000
6000
6000
6000
6000
6020
6040
6180
6700
FC00
7000
6000
ENDCHAR
STARTCHAR uni30ED
ENCODING 12525
SWIDTH 1000 0
DWIDTH 16 0
BBX 10 11 3 0
BITMAP
0100
8F80
FCC0
40C0
6180
6180
6180
6180
6300
7F80
6080
ENDCHAR
STARTCHAR uni30EE
ENCODING 12526
SWIDTH 1000 0
DWIDTH 16 0
BBX 9 10 3 -2
BITMAP
8200
FF00
C180
C180
8300
0300
0200
0600
0400
1800
ENDCHAR
STARTCHAR uni30EF
ENCODING 12527
SWIDTH 1000 0
DWIDTH 16 0
BBX 11 13 2 -1
BITMAP
0080
C7C0
7C60
60C0
60C0
60C0
4180
0180
0300
0600
0400
0800
3000
ENDCHAR
STARTCHAR uni30F0
ENCODING 12528
SWIDTH 1000 0
DWIDTH 16 0
BBX 13 14 1 -1
BITMAP
0300
0180
0180
41E0
7FF0
3980
1980
91B0
FFF8
7180
0180
0180
0180
0180
ENDCHAR
STARTCHAR uni30F1
ENCODING 12529
SWIDTH 1000 0
DWIDTH 16 0
BBX 13 11 1 0
BITMAP
00C0
37E0
1CC0
0880
0700
0300
0300
0260
DFF0
7818
2000
ENDCHAR
STARTCHAR uni30F2
ENCODING 12530
SWIDTH 1000 0
DWIDTH 16 0
BBX 11 13 2 -1
BITMAP
0080
DFC0
7860
20C0
00C0
4F80
7980
3300
0300
0600
0C00
1800
6000
ENDCHAR
STARTCHAR uni30F3
ENCODING 12531
SWIDTH 1000 0
DWIDTH 16 0
BBX 11 13 3 -1
BITMAP
8000
6000
3020
1040
0040
0080
0180
0300
0600
0C00
D800
7000
2000
ENDCHAR
STARTCHAR uni30F4
ENCODING 12532
SWIDTH 1000 0
DWIDTH 16 0
BBX 14 15 1 -1
BITMAP
0008
182C
0C34
0C90
CFC0
78E0
60C0
60C0
6180
4180
0100
0300
0200
0400
0800
ENDCHAR
STARTCHAR uni30F5
ENCODING 12533
SWIDTH 1000 0
DWIDTH 16 0
BBX 10 10 3 -2
BITMAP
1800
0D00
5F80
79C0
1980
1980
3100
2300
4F00
8200
ENDCHAR
STARTCHAR uni30F6
ENCODING 12534
SWIDTH 1000 0
DWIDTH 16 0
BBX 10 11 2 -2
BITMAP
1800
1800
3180
3FC0
6200
8300
0300
0600
0400
0800
3000
ENDCHAR
STARTCHAR uni30F7
ENCODING 12535
SWIDTH 1000 0
DWIDTH 16 0
BBX 13 15 2 -1
BITMAP
0010
0058
0168
C7A0
7CC0
6180
6180
6180
4300
0300
0200
0600
0400
0800
3000
ENDCHAR
STARTCHAR uni30F8
ENCODING 12536
SWIDTH 1000 0
DWIDTH 16 0
BBX 14 15 1 -1
BITMAP
0008
032C
01B4
0190
41E0
7FF0
3980
1980
91B0
FFF8
7180
0180
0180
0180
0180
ENDCHAR
STARTCHAR uni30F9
ENCODING 12537
SWIDTH 1000 0
DWIDTH 16 0
BBX 14 14 1 0
BITMAP
0008
002C
0034
00D0
37E0
1CC0
0880
0700
0300
0300
0260
DFF0
7818
2000
ENDCHAR
STARTCHAR uni30FA
ENCODING 12538
SWIDTH 1000 0
DWIDTH 16 0
BBX 13 15 2 -1
BITMAP
0010
0058
0168
DFA0
78C0
2180
0180
4F00
7B00
3600
0600
0400
0800
1800
6000
ENDCHAR
STARTCHAR uni30FB
ENCODING 12539
SWIDTH 1000 0
DWIDTH 16 0
BBX 4 4 6 4
BITMAP
60
F0
F0
60
ENDCHAR
STARTCHAR uni30FC
ENCODING 12540
SWIDTH 1000 0
DWIDTH 16 0
BBX 13 3 1 6
BITMAP
8000
FFF0
7FF8
ENDCHAR
STARTCHAR uni30FD
ENCODING 12541
SWIDTH 1000 0
DWIDTH 16 0
BBX 5 7 5 2
BITMAP
80
40
20
30
18
18
08
ENDCHAR
STARTCHAR uni30FE
ENCODING 12542
SWIDTH 1000 0
DWIDTH 16 0
BBX 8 10 4 2
BITMAP
02
0B
0D
84
40
20
30
18
18
08
ENDCHAR
STARTCHAR uni3105
ENCODING 12549
SWIDTH 1000 0
DWIDTH 16 0
BBX 14 16 0 -2
BITMAP
3000
1C00
1800
3018
30FC
FFFC
7818
2018
0018
0018
0038
0030
0270
0170
01E0
00C0
ENDCHAR
STARTCHAR uni3106
ENCODING 12550
SWIDTH 1000 0
DWIDTH 16 0
BBX 14 16 0 -2
BITMAP
1800
0E00
1C18
18FC
37D8
7E18
3018
0630
01F0
00E0
00E0
01F0
03B8
0618
1818
E000
ENDCHAR
STARTCHAR uni3107
ENCODING 12551
SWIDTH 1000 0
DWIDTH 16 0
BBX 14 14 1 -1
BITMAP
0078
C3FC
7F98
7818
6018
6018
6018
6018
6018
6018
6018
6018
6018
4010
ENDCHAR
STARTCHAR uni3108
ENCODING 12552
SWIDTH 1000 0
DWIDTH 16 0
BBX 13 13 1 0
BITMAP
80F0
FFF8
7C08
6000
6000
6000
6000
6000
6000
6000
7000
7FF0
3FF0
ENDCHAR
STARTCHAR uni3109
ENCODING 12553
SWIDTH 1000 0
DWIDTH 16 0
BBX 14 16 0 -2
BITMAP
0400
0E00
0C00
1810
39F8
7F9C
2318
0318
0718
0618
0E18
1C38
3830
6160
80E0
00C0
ENDCHAR
STARTCHAR uni310A
ENCODING 12554
SWIDTH 1000 0
DWIDTH 16 0
BBX 14 14 0 -1
BITMAP
0600
0300
0300
8378
FFFC
7F04
0300
0600
0620
0C20
18F0
7BF8
3E18
1018
ENDCHAR
STARTCHAR uni310B
ENCODING 12555
SWIDTH 1000 0
DWIDTH 16 0
BBX 12 15 2 -2
BITMAP
8300
FF80
7B00
0600
0400
0CE0
1FF0
1860
0060
00C0
00C0
0180
0B80
0700
0600
ENDCHAR
STARTCHAR uni310C
ENCODING 12556
SWIDTH 1000 0
DWIDTH 16 0
BBX 13 16 1 -2
BITMAP
0C00
0600
3600
3600
6620
7FF0
FFB8
6630
0630
0630
0C30
0C70
1860
31E0
60E0
80C0
ENDCHAR
STARTCHAR uni310D
ENCODING 12557
SWIDTH 1000 0
DWIDTH 16 0
BBX 12 16 1 -2
BITMAP
0CC0
0660
0670
0C60
0CC0
1880
3180
6700
E300
39C0
1CE0
0C60
0E70
0630
0630
0630
ENDCHAR
STARTCHAR uni310E
ENCODING 12558
SWIDTH 1000 0
DWIDTH 16 0
BBX 14 15 0 -2
BITMAP
00F8
8FFC
7E04
3600
0C00
1870
3FF8
3E38
0038
0030
0030
0070
04E0
03E0
01C0
ENDCHAR
STARTCHAR uni310F
ENCODING 12559
SWIDTH 1000 0
DWIDTH 16 0
BBX 15 15 0 -2
BITMAP
203C
3FFE
1E02
1800
1800
1800
1800
1800
3000
3000
3000
2000
6000
4000
8000
ENDCHAR
STARTCHAR uni3110
ENCODING 12560
SWIDTH 1000 0
DWIDTH 16 0
BBX 11 16 2 -2
BITMAP
0180
00E0
60C0
30C0
30C0
30C0
30C0
20C0
63C0
6EC0
FCC0
60C0
00C0
00C0
00C0
00C0
ENDCHAR
STARTCHAR uni3111
ENCODING 12561
SWIDTH 1000 0
DWIDTH 16 0
BBX 9 16 2 -2
BITMAP
0400
0300
0300
0600
0C00
1800
3000
E000
2000
1800
0C00
0600
0300
0380
0180
0180
ENDCHAR
STARTCHAR uni3112
ENCODING 12562
SWIDTH 1000 0
DWIDTH 16 0
BBX 13 15 1 -2
BITMAP
80E0
7FF8
3E10
0300
0300
0300
0300
0300
0300
0300
0300
0300
0300
0300
0200
ENDCHAR
STARTCHAR uni3113
ENCODING 12563
SWIDTH 1000 0
DWIDTH 16 0
BBX 14 15 1 -1
BITMAP
0400
0380
6340
3338
3330
3330
3330
3330
33F0
7FF0
3B20
0300
8378
FFFC
7804
ENDCHAR
STARTCHAR uni3114
ENCODING 12564
SWIDTH 1000 0
DWIDTH 16 0
BBX 12 16 1 -2
BITMAP
0080
00C0
01E0
0300
0E40
7860
00F0
03C0
1F00
F300
0300
0300
0300
0300
0300
0200
ENDCHAR
STARTCHAR uni3115
ENCODING 12565
SWIDTH 1000 0
DWIDTH 16 0
BBX 14 16 0 -2
BITMAP
0030
1FF8
071C
0018
0030
1030
1FF0
1F18
1800
1800
1800
1800
3000
3000
2000
C000
ENDCHAR
STARTCHAR uni3116
ENCODING 12566
SWIDTH 1000 0
DWIDTH 16 0
BBX 12 13 2 -1
BITMAP
0040
87E0
FE30
6030
6830
6460
6660
6360
6360
60C0
60C0
7FE0
6020
ENDCHAR
STARTCHAR uni3117
ENCODING 12567
SWIDTH 1000 0
DWIDTH 16 0
BBX 15 15 0 -2
BITMAP
0008
C3FC
7F0E
380C
070C
030C
031C
0398
0378
0230
0320
0300
0300
0300
0200
ENDCHAR
STARTCHAR uni3118
ENCODING 12568
SWIDTH 1000 0
DWIDTH 16 0
BBX 13 15 1 -1
BITMAP
0C00
0600
0670
85F8
7F00
6C00
0800
0860
1BF0
1E60
1860
00C0
0080
0180
0200
ENDCHAR
STARTCHAR uni3119
ENCODING 12569
SWIDTH 1000 0
DWIDTH 16 0
BBX 14 15 0 -1
BITMAP
0200
0300
0180
0180
0300
0300
0200
0640
0420
0C30
1818
11F8
270C
FC0C
700C
ENDCHAR
STARTCHAR uni311A
ENCODING 12570
SWIDTH 1000 0
DWIDTH 16 0
BBX 12 16 1 -2
BITMAP
0040
C070
30E0
18C0
1D80
0B00
0600
0600
0600
0400
0400
0600
0600
0600
0600
0400
ENDCHAR
STARTCHAR uni311B
ENCODING 12571
SWIDTH 1000 0
DWIDTH 16 0
BBX 14 14 1 -1
BITMAP
0038
81FC
7FC0
3B00
0180
0180
0F80
1380
2180
2000
3000
1010
1FE0
07C0
ENDCHAR
STARTCHAR uni311C
ENCODING 12572
SWIDTH 1000 0
DWIDTH 16 0
BBX 14 15 1 -1
BITMAP
0300
01C0
01B8
81FC
7F80
3B80
0180
0F80
1380
21C0
20C0
3000
1010
1FE0
07C0
ENDCHAR
STARTCHAR uni311D
ENCODING 12573
SWIDTH 1000 0
DWIDTH 16 0
BBX 15 15 0 -1
BITMAP
00C0
1860
0C60
0C60
0CFC
8FFE
FE60
6C60
0C60
0C40
0C40
0C80
0C00
07FC
03FC
ENDCHAR
STARTCHAR uni311E
ENCODING 12574
SWIDTH 1000 0
DWIDTH 16 0
BBX 15 16 0 -2
BITMAP
803C
FFFE
7A02
0300
1B00
3310
3FF8
7FDC
3318
0618
0618
0C30
0C30
1860
1040
2080
ENDCHAR
STARTCHAR uni311F
ENCODING 12575
SWIDTH 1000 0
DWIDTH 16 0
BBX 15 13 0 -1
BITMAP
0380
8F00
F900
6100
0100
0180
0080
00C0
0060
0030
0018
000E
0006
ENDCHAR
STARTCHAR uni3120
ENCODING 12576
SWIDTH 1000 0
DWIDTH 16 0
BBX 14 15 0 -1
BITMAP
0400
0680
06C0
0C60
0C60
18C0
37C0
FD80
6120
0330
0618
0CF8
1B8C
FE0C
700C
ENDCHAR
STARTCHAR uni3121
ENCODING 12577
SWIDTH 1000 0
DWIDTH 16 0
BBX 12 15 1 -2
BITMAP
0040
41E0
3F70
1860
0060
30C0
0CC0
0780
0380
02C0
0660
0C30
1830
3000
C000
ENDCHAR
STARTCHAR uni3122
ENCODING 12578
SWIDTH 1000 0
DWIDTH 16 0
BBX 14 16 0 -2
BITMAP
41C0
7FE0
1070
1860
1860
10C0
30D8
33FC
FF18
7018
0018
0030
0030
0060
0040
0080
ENDCHAR
STARTCHAR uni3123
ENCODING 12579
SWIDTH 1000 0
DWIDTH 16 0
BBX 12 15 0 -1
BITMAP
3000
1C00
1800
3000
3000
21C0
FFE0
7870
0060
0060
00C0
00C0
0180
0100
0200
ENDCHAR
STARTCHAR uni3124
ENCODING 12580
SWIDTH 1000 0
DWIDTH 16 0
BBX 15 16 0 -2
BITMAP
0300
0180
0180
81BC
FFFE
7F82
02C0
06C0
06C0
0CC0
08C0
18C0
30C0
207E
403E
8000
ENDCHAR
STARTCHAR uni3125
ENCODING 12581
SWIDTH 1000 0
DWIDTH 16 0
BBX 14 15 1 -1
BITMAP
0400
0600
0700
0600
0600
0600
0C00
0C00
1800
1800
1000
3078
67FC
FE04
7000
ENDCHAR
STARTCHAR uni3126
ENCODING 12582
SWIDTH 1000 0
DWIDTH 16 0
BBX 15 14 0 -1
BITMAP
1980
0CC0
0CE0
0CC0
0CC0
0CC0
08C0
18C0
18C0
30C0
30C0
60C0
407E
803E
ENDCHAR
STARTCHAR uni3127
ENCODING 12583
SWIDTH 1000 0
DWIDTH 16 0
BBX 15 3 0 5
BITMAP
807C
7FFE
7802
ENDCHAR
STARTCHAR uni3128
ENCODING 12584
SWIDTH 1000 0
DWIDTH 16 0
BBX 14 15 0 -1
BITMAP
0020
0018
1818
0618
0330
01B0
00F0
0060
0060
00F0
0198
0318
060C
180C
E000
ENDCHAR
STARTCHAR uni3129
ENCODING 12585
SWIDTH 1000 0
DWIDTH 16 0
BBX 12 15 2 -2
BITMAP
8080
6070
6060
6060
6060
6060
6060
6060
6060
6060
6060
63E0
FF60
7060
0020
ENDCHAR
STARTCHAR uni312A
ENCODING 12586
SWIDTH 1000 0
DWIDTH 16 0
BBX 15 15 0 -2
BITMAP
403C
7FFE
3A02
0300
0310
03F8
03DC
0318
0618
0618
0C30
0D30
18E0
30C0
C080
ENDCHAR
STARTCHAR uni312B
ENCODING 12587
SWIDTH 1000 0
DWIDTH 16 0
BBX 15 15 0 -2
BITMAP
803C
FFFE
7F82
06E0
06C0
06C0
06C0
06C0
0CC0
08C0
18C0
30C0
207E
403E
8000
ENDCHAR
STARTCHAR uni312C
ENCODING 12588
SWIDTH 1000 0
DWIDTH 16 0
BBX 15 16 0 -2
BITMAP
0300
01C0
20DC
3FFE
1E02
1800
1800
1800
1800
3000
3000
3000
2000
6000
4000
8000
ENDCHAR
STARTCHAR uni312D
ENCODING 12589
SWIDTH 1000 0
DWIDTH 16 0
BBX 14 16 1 -2
BITMAP
8078
FFFC
7A04
0380
0300
6360
3FF8
3B30
3330
3330
3330
3330
2320
0300
0300
0200
ENDCHAR
STARTCHAR uni312E
ENCODING 12590
SWIDTH 1000 0
DWIDTH 16 0
BBX 14 15 1 -1
BITMAP
0600
0638
80FC
7FC0
3B00
0180
0180
0F80
1380
2180
2000
3000
1010
1FE0
07C0
ENDCHAR
STARTCHAR uni312F
ENCODING 12591
SWIDTH 1000 0
DWIDTH 16 0
BBX 12 15 2 -2
BITMAP
8300
FF80
7B00
0600
0400
0CE0
3FF0
F860
5860
18C0
18C0
1D80
1B80
1B00
1800
ENDCHAR
STARTCHAR uni3190
ENCODING 12688
SWIDTH 1000 0
DWIDTH 16 0
BBX 3 7 7 7
BITMAP
E0
C0
C0
C0
C0
C0
C0
ENDCHAR
STARTCHAR uni3191
ENCODING 12689
SWIDTH 1000 0
DWIDTH 16 0
BBX 7 7 5 7
BITMAP
70
60
60
60
66
F8
60
ENDCHAR
ENDFONT
